<svg xmlns="http://www.w3.org/2000/svg" xmlns:xlink="http://www.w3.org/1999/xlink" width="76" height="80" viewBox="0 0 76 80"><defs><path id="2bfda" d="M505.95 1344.26v-47.1h1.93v47.1z"/><path id="2bfdb" d="M509.153 1311.38v33.044a.714.714 0 0 1-.193.47l-16.535 16.59a.663.663 0 0 1-.478.192H455.85l1.085 6.17a2.684 2.684 0 0 0 2.628 2.214c.158 0 .316-.015.471-.044l55.27-10.068a2.693 2.693 0 0 0 2.174-3.112l-7.997-45.486z"/><path id="2bfdc" d="M493.11 1359.744l14.132-14.194H493.11v14.194z"/><path id="2bfdd" d="M518.119 1356.843l-8.048-45.493-.334.03v7.536l6.709 37.924a2.695 2.695 0 0 1-2.188 3.113l-55.198 9.99a2.679 2.679 0 0 0 1.252.073l55.62-10.06a2.695 2.695 0 0 0 2.187-3.113z"/><path id="2bfde" d="M505.6 1345.55l-12.49 12.543v1.65l14.132-14.193H505.6z"/><path id="2bfdf" d="M444.658 1300.297a2.515 2.515 0 0 1 2.51-2.49h3.317v7.426a4.98 4.98 0 0 0 2.37 4.614 4.97 4.97 0 0 0 5.182 0 4.98 4.98 0 0 0 2.37-4.614v-4.133a.83.83 0 1 0-1.658 0v4.133a3.32 3.32 0 0 1-1.56 3.12 3.313 3.313 0 0 1-3.486 0 3.32 3.32 0 0 1-1.56-3.12v-7.426h55.301v46.299h-15.692a.83.83 0 0 0-.829.83v15.711h-43.754a2.515 2.515 0 0 1-2.51-2.513zm13.964-4.15h-6.385a3.317 3.317 0 0 1 3.194-2.49 3.317 3.317 0 0 1 3.19 2.49zm33.953 63.318v-13.71h13.689zm16.286-13.942a.864.864 0 0 0 .235-.578v-32.947l7.99 45.353a2.516 2.516 0 0 1-2.04 2.91l-56.878 10.04a2.51 2.51 0 0 1-2.91-2.039l-1.047-5.955h37.545c.22 0 .431-.087.587-.243zm-61.692 16.784h5.357l1.098 6.244a4.17 4.17 0 0 0 4.832 3.386l56.899-10.042a4.179 4.179 0 0 0 3.383-4.833l-9.625-54.607v-5.494a.83.83 0 0 0-.83-.83h-47.966a4.956 4.956 0 0 0-4.886-4.131 4.956 4.956 0 0 0-4.885 4.13h-3.377a4.174 4.174 0 0 0-4.169 4.174v57.83a4.174 4.174 0 0 0 4.17 4.173z"/><path id="2bfdg" d="M458.598 1316.515h42.668c.457 0 .828-.433.828-.967 0-.535-.37-.968-.828-.968h-42.668c-.457 0-.828.433-.828.968 0 .534.37.967.828.967z"/><path id="2bfdh" d="M451.546 1322.965h49.719c.461 0 .835-.433.835-.967 0-.535-.374-.968-.835-.968h-49.72c-.46 0-.835.433-.835.968 0 .534.374.967.836.967z"/><path id="2bfdi" d="M451.546 1330.065h49.719c.461 0 .835-.433.835-.967 0-.535-.374-.968-.835-.968h-49.72c-.46 0-.835.433-.835.968 0 .534.374.967.836.967z"/><path id="2bfdj" d="M451.546 1336.515h49.719c.461 0 .835-.433.835-.967 0-.535-.374-.968-.835-.968h-49.72c-.46 0-.835.433-.835.968 0 .534.374.967.836.967z"/><path id="2bfdk" d="M451.538 1342.965h33.675c.457 0 .828-.433.828-.967 0-.535-.37-.968-.828-.968h-33.675c-.457 0-.828.433-.828.968 0 .534.37.967.828.967z"/><path id="2bfdl" d="M451.538 1350.065h33.675c.457 0 .828-.433.828-.967 0-.535-.37-.968-.828-.968h-33.675c-.457 0-.828.433-.828.968 0 .534.37.967.828.967z"/><path id="2bfdm" d="M451.538 1356.515h33.675c.457 0 .828-.433.828-.967 0-.535-.37-.968-.828-.968h-33.675c-.457 0-.828.433-.828.968 0 .534.37.967.828.967z"/><path id="2bfdn" d="M448.463 1365.873h-1.285v-1.29a.322.322 0 1 0-.642 0v1.29h-1.285a.322.322 0 0 0 0 .645h1.285v1.29a.322.322 0 1 0 .642 0v-1.29h1.285a.322.322 0 0 0 0-.645z"/><path id="2bfdo" d="M518.483 1322.643h-1.285v-1.29a.322.322 0 1 0-.642 0v1.29h-1.285a.322.322 0 0 0 0 .645h1.285v1.29a.322.322 0 1 0 .642 0v-1.29h1.285a.322.322 0 0 0 0-.645z"/><path id="2bfdp" d="M516.227 1365.545c-.708 0-1.283.578-1.283 1.29 0 .713.575 1.29 1.283 1.29.709 0 1.283-.577 1.283-1.29 0-.712-.574-1.29-1.283-1.29zm-1.927 1.29c0-1.068.863-1.935 1.927-1.935s1.927.867 1.927 1.935a1.931 1.931 0 0 1-1.927 1.936 1.931 1.931 0 0 1-1.927-1.936z"/><path id="2bfdq" d="M515.587 1296.515c-.708 0-1.283.578-1.283 1.29 0 .713.575 1.29 1.283 1.29.709 0 1.283-.577 1.283-1.29 0-.712-.574-1.29-1.283-1.29zm0 3.226a1.931 1.931 0 0 1-1.927-1.936c0-1.068.863-1.935 1.927-1.935s1.927.867 1.927 1.935a1.931 1.931 0 0 1-1.927 1.936z"/></defs><g><g transform="translate(-443 -1292)"><g><use fill="#e4ebed" xlink:href="#2bfda"/></g><g><use fill="#49cb70" xlink:href="#2bfdb"/></g><g><use fill="#effafe" xlink:href="#2bfdc"/></g><g><use fill="#1a923e" xlink:href="#2bfdd"/></g><g><use fill="#e4ebed" xlink:href="#2bfde"/></g><g><use fill="#263238" xlink:href="#2bfdf"/></g><g><use fill="#263238" xlink:href="#2bfdg"/></g><g><use fill="#263238" xlink:href="#2bfdh"/></g><g><use fill="#263238" xlink:href="#2bfdi"/></g><g><use fill="#263238" xlink:href="#2bfdj"/></g><g><use fill="#263238" xlink:href="#2bfdk"/></g><g><use fill="#263238" xlink:href="#2bfdl"/></g><g><use fill="#263238" xlink:href="#2bfdm"/></g><g><use fill="#f6c002" xlink:href="#2bfdn"/></g><g><use fill="#49cb70" xlink:href="#2bfdo"/></g><g><use fill="#f6c002" xlink:href="#2bfdp"/></g><g><use fill="#f6c002" xlink:href="#2bfdq"/></g></g></g></svg>