<svg xmlns="http://www.w3.org/2000/svg" xmlns:xlink="http://www.w3.org/1999/xlink" width="83" height="80" viewBox="0 0 83 80"><defs><path id="d6r8a" d="M766.474 1324.485a3.36 3.36 0 1 1 3.36-3.36 3.363 3.363 0 0 1-3.36 3.356zm0 8.759a3.36 3.36 0 1 1 3.36-3.36 3.363 3.363 0 0 1-3.36 3.356zm-3.36 5.399a3.36 3.36 0 1 1 6.72 0 3.36 3.36 0 0 1-6.72 0zm0 8.76a3.36 3.36 0 1 1 6.72 0 3.36 3.36 0 0 1-6.72 0zm6.72 8.762a3.36 3.36 0 1 1-6.72 0 3.36 3.36 0 0 1 6.72 0zm-5.583-45.209h46.298a.68.68 0 1 1 0 1.362H764.25a.68.68 0 0 1 0-1.362zm45.049 13.525a3.36 3.36 0 1 1 .023 0zm0 8.76a3.36 3.36 0 1 1 .023 0zm0 8.759a3.36 3.36 0 1 1 3.36-3.36 3.363 3.363 0 0 1-3.337 3.363zm0 2.042a3.36 3.36 0 1 1-3.36 3.36 3.363 3.363 0 0 1 3.383-3.356zm-64.273 8.76a3.36 3.36 0 1 1-3.36 3.36 3.363 3.363 0 0 1 3.384-3.357zm0-2.043a3.36 3.36 0 1 1 3.36-3.36 3.363 3.363 0 0 1-3.336 3.363zm0-8.76a3.36 3.36 0 1 1 3.384-3.356 3.363 3.363 0 0 1-3.36 3.36zm0-8.759a3.36 3.36 0 1 1 .024 0zm10.713 0a3.36 3.36 0 1 1 .024 0zm0 8.76a3.36 3.36 0 1 1 3.38-3.357 3.363 3.363 0 0 1-3.356 3.36zm0 10.801a3.36 3.36 0 1 1-3.36 3.36 3.363 3.363 0 0 1 3.384-3.356zm2.383-6.808l-1.412 1.413 1.412 1.409a.68.68 0 1 1-.963.963l-1.413-1.412-1.413 1.412a.68.68 0 1 1-.963-.963l1.413-1.413-1.413-1.413a.68.68 0 1 1 .963-.963l1.413 1.413 1.413-1.413a.68.68 0 1 1 .963.963zm-.68-33.675h-13.617a.68.68 0 0 1 0-1.362h13.617a.68.68 0 1 1 0 1.362zm19.744 40.483a3.36 3.36 0 1 1-3.36 3.36 3.363 3.363 0 0 1 3.36-3.356zm0-2.042a3.36 3.36 0 1 1 3.36-3.36 3.363 3.363 0 0 1-3.36 3.363zm0-8.76a3.36 3.36 0 1 1 3.36-3.36 3.363 3.363 0 0 1-3.36 3.364zm0-8.759a3.36 3.36 0 1 1 0-6.72 3.36 3.36 0 0 1 0 6.72zm-3.36-12.119a3.36 3.36 0 1 1 6.72 0 3.36 3.36 0 0 1-6.72 0zm14.073 31.68a3.36 3.36 0 1 1-3.36 3.36 3.363 3.363 0 0 1 3.36-3.356zm0-2.042a3.36 3.36 0 1 1 3.36-3.36 3.363 3.363 0 0 1-3.36 3.363zm0-8.76a3.36 3.36 0 1 1 3.36-3.36 3.363 3.363 0 0 1-3.36 3.364zm0-8.759a3.36 3.36 0 1 1 0-6.72 3.36 3.36 0 0 1 0 6.72zm-3.36-12.119a3.36 3.36 0 1 1 6.72 0 3.36 3.36 0 0 1-6.72 0zm14.07 22.921a3.36 3.36 0 1 1-3.36 3.36 3.363 3.363 0 0 1 3.36-3.356zm0-2.042a3.36 3.36 0 1 1 3.36-3.357 3.363 3.363 0 0 1-3.36 3.36zm-3.36-12.12a3.36 3.36 0 1 1 6.72 0 3.36 3.36 0 0 1-6.72 0zm0-8.759a3.36 3.36 0 1 1 6.72 0 3.36 3.36 0 0 1-6.72 0zm18.703-16.861h-2.042v2.723a.68.68 0 1 1-1.362 0v-2.723h-12.255v2.723a.68.68 0 1 1-1.362 0v-2.723h-12.255v2.723a.68.68 0 1 1-1.362 0v-2.723H771.06v2.723a.68.68 0 1 1-1.362 0v-2.723h-12.255v2.723a.68.68 0 1 1-1.362 0v-2.723h-12.255v2.723a.68.68 0 1 1-1.362 0v-2.723h-.34a2.723 2.723 0 0 0-2.724 2.723v53.107a2.723 2.723 0 0 0 2.723 2.723h71.83a2.723 2.723 0 0 0 2.724-2.723v-53.107a2.723 2.723 0 0 0-2.724-2.723z"/><path id="d6r8b" d="M743.06 1356.16a2 2 0 1 1 4 0 2 2 0 0 1-4 0z"/><path id="d6r8c" d="M743.06 1347.4a2 2 0 1 1 4 0 2 2 0 0 1-4 0z"/><path id="d6r8d" d="M743.06 1338.64a2 2 0 1 1 4 0 2 2 0 0 1-4 0z"/><path id="d6r8e" d="M743.06 1329.88a2 2 0 1 1 4 0 2 2 0 0 1-4 0z"/><path id="d6r8f" d="M753.77 1329.88a2 2 0 1 1 4 0 2 2 0 0 1-4 0z"/><path id="d6r8g" d="M753.77 1338.64a2 2 0 1 1 4 0 2 2 0 0 1-4 0z"/><path id="d6r8h" d="M753.77 1356.16a2 2 0 1 1 4 0 2 2 0 0 1-4 0z"/><path id="d6r8i" d="M764.48 1329.88a2 2 0 1 1 4 0 2 2 0 0 1-4 0z"/><path id="d6r8j" d="M764.48 1338.64a2 2 0 1 1 4 0 2 2 0 0 1-4 0z"/><path id="d6r8k" d="M764.48 1356.16a2 2 0 1 1 4 0 2 2 0 0 1-4 0z"/><path id="d6r8l" d="M764.48 1347.4a2 2 0 1 1 4 0 2 2 0 0 1-4 0z"/><path id="d6r8m" d="M796.62 1321.12a2 2 0 1 1 4 0 2 2 0 0 1-4 0z"/><path id="d6r8n" d="M796.62 1338.64a2 2 0 1 1 4 0 2 2 0 0 1-4 0z"/><path id="d6r8o" d="M796.62 1329.88a2 2 0 1 1 4 0 2 2 0 0 1-4 0z"/><path id="d6r8p" d="M796.62 1347.4a2 2 0 1 1 4 0 2 2 0 0 1-4 0z"/><path id="d6r8q" d="M813.962 1304.26h-1.702a2.723 2.723 0 0 1 2.723 2.723v53.107a2.723 2.723 0 0 1-2.723 2.723h1.702a2.723 2.723 0 0 0 2.724-2.723v-53.107a2.723 2.723 0 0 0-2.724-2.723z"/><path id="d6r8r" d="M807.33 1321.12a2 2 0 1 1 4 0 2 2 0 0 1-4 0z"/><path id="d6r8s" d="M807.33 1338.64a2 2 0 1 1 4 0 2 2 0 0 1-4 0z"/><path id="d6r8t" d="M807.33 1329.88a2 2 0 1 1 4 0 2 2 0 0 1-4 0z"/><path id="d6r8u" d="M775.19 1329.88a2 2 0 1 1 4 0 2 2 0 0 1-4 0z"/><path id="d6r8v" d="M775.19 1338.64a2 2 0 1 1 4 0 2 2 0 0 1-4 0z"/><path id="d6r8w" d="M775.19 1356.16a2 2 0 1 1 4 0 2 2 0 0 1-4 0z"/><path id="d6r8x" d="M775.19 1347.4a2 2 0 1 1 4 0 2 2 0 0 1-4 0z"/><path id="d6r8y" d="M775.19 1321.12a2 2 0 1 1 4 0 2 2 0 0 1-4 0z"/><path id="d6r8z" d="M785.91 1356.16a2 2 0 1 1 4 0 2 2 0 0 1-4 0z"/><path id="d6r8A" d="M785.91 1329.88a2 2 0 1 1 4 0 2 2 0 0 1-4 0z"/><path id="d6r8B" d="M785.91 1321.12a2 2 0 1 1 4 0 2 2 0 0 1-4 0z"/><path id="d6r8C" d="M785.91 1338.64a2 2 0 1 1 4 0 2 2 0 0 1-4 0z"/><path id="d6r8D" d="M785.91 1347.4a2 2 0 1 1 4 0 2 2 0 0 1-4 0z"/><path id="d6r8E" d="M807.33 1347.4a2 2 0 1 1 4 0 2 2 0 0 1-4 0z"/><path id="d6r8F" d="M764.48 1321.12a2 2 0 1 1 4 0 2 2 0 0 1-4 0z"/><path id="d6r8G" d="M766.48 1319.12c-.172 0-.343.023-.51.068a1.995 1.995 0 0 1 0 3.857 1.995 1.995 0 1 0 .51-3.925z"/><path id="d6r8H" d="M777.19 1319.12c-.172 0-.343.023-.51.068a1.995 1.995 0 0 1 0 3.857 1.995 1.995 0 1 0 .51-3.925z"/><path id="d6r8I" d="M787.9 1319.12c-.172 0-.343.023-.51.068a1.995 1.995 0 0 1 0 3.857 1.995 1.995 0 1 0 .51-3.925z"/><path id="d6r8J" d="M809.33 1319.12c-.172 0-.343.023-.51.068a1.995 1.995 0 0 1 0 3.857 1.995 1.995 0 1 0 .51-3.925z"/><path id="d6r8K" d="M798.61 1319.12c-.172 0-.343.023-.51.068a1.995 1.995 0 0 1 0 3.857 1.995 1.995 0 1 0 .51-3.925z"/><path id="d6r8L" d="M798.61 1327.88c-.172 0-.343.023-.51.068a1.995 1.995 0 0 1 0 3.857 1.995 1.995 0 1 0 .51-3.925z"/><path id="d6r8M" d="M798.61 1336.64c-.172 0-.343.023-.51.068a1.995 1.995 0 0 1 0 3.857 1.995 1.995 0 1 0 .51-3.925z"/><path id="d6r8N" d="M798.61 1345.4c-.172 0-.343.023-.51.068a1.995 1.995 0 0 1 0 3.857 1.995 1.995 0 1 0 .51-3.925z"/><path id="d6r8O" d="M766.48 1327.88c-.172 0-.343.023-.51.068a1.995 1.995 0 0 1 0 3.857 1.995 1.995 0 1 0 .51-3.925z"/><path id="d6r8P" d="M777.19 1327.88c-.172 0-.343.023-.51.068a1.995 1.995 0 0 1 0 3.857 1.995 1.995 0 1 0 .51-3.925z"/><path id="d6r8Q" d="M787.9 1327.88c-.172 0-.343.023-.51.068a1.995 1.995 0 0 1 0 3.857 1.995 1.995 0 1 0 .51-3.925z"/><path id="d6r8R" d="M809.33 1327.88c-.172 0-.343.023-.51.068a1.995 1.995 0 0 1 0 3.857 1.995 1.995 0 1 0 .51-3.925z"/><path id="d6r8S" d="M766.48 1336.64c-.172 0-.343.023-.51.068a1.995 1.995 0 0 1 0 3.857 1.995 1.995 0 1 0 .51-3.925z"/><path id="d6r8T" d="M777.19 1336.64c-.172 0-.343.023-.51.068a1.995 1.995 0 0 1 0 3.857 1.995 1.995 0 1 0 .51-3.925z"/><path id="d6r8U" d="M787.9 1336.64c-.172 0-.343.023-.51.068a1.995 1.995 0 0 1 0 3.857 1.995 1.995 0 1 0 .51-3.925z"/><path id="d6r8V" d="M809.33 1336.64c-.172 0-.343.023-.51.068a1.995 1.995 0 0 1 0 3.857 1.995 1.995 0 1 0 .51-3.925z"/><path id="d6r8W" d="M766.48 1345.4c-.172 0-.343.023-.51.068a1.995 1.995 0 0 1 0 3.857 1.995 1.995 0 1 0 .51-3.925z"/><path id="d6r8X" d="M745.05 1345.4c-.172 0-.343.023-.51.068a1.995 1.995 0 0 1 0 3.857 1.995 1.995 0 1 0 .51-3.925z"/><path id="d6r8Y" d="M766.48 1354.16c-.172 0-.343.023-.51.068a1.995 1.995 0 0 1 0 3.857 1.995 1.995 0 1 0 .51-3.925z"/><path id="d6r8Z" d="M755.77 1354.16c-.172 0-.343.023-.51.068a1.995 1.995 0 0 1 0 3.857 1.995 1.995 0 1 0 .51-3.925z"/><path id="d6r8aa" d="M755.77 1336.64c-.172 0-.343.023-.51.068a1.995 1.995 0 0 1 0 3.857 1.995 1.995 0 1 0 .51-3.925z"/><path id="d6r8ab" d="M755.77 1327.88c-.172 0-.343.023-.51.068a1.995 1.995 0 0 1 0 3.857 1.995 1.995 0 1 0 .51-3.925z"/><path id="d6r8ac" d="M745.05 1354.16c-.172 0-.343.023-.51.068a1.995 1.995 0 0 1 0 3.857 1.995 1.995 0 1 0 .51-3.925z"/><path id="d6r8ad" d="M745.05 1336.64c-.172 0-.343.023-.51.068a1.995 1.995 0 0 1 0 3.857 1.995 1.995 0 1 0 .51-3.925z"/><path id="d6r8ae" d="M745.05 1327.88c-.172 0-.343.023-.51.068a1.995 1.995 0 0 1 0 3.857 1.995 1.995 0 1 0 .51-3.925z"/><path id="d6r8af" d="M777.19 1354.16c-.172 0-.343.023-.51.068a1.995 1.995 0 0 1 0 3.857 1.995 1.995 0 1 0 .51-3.925z"/><path id="d6r8ag" d="M787.9 1354.16c-.172 0-.343.023-.51.068a1.995 1.995 0 0 1 0 3.857 1.995 1.995 0 1 0 .51-3.925z"/><path id="d6r8ah" d="M777.19 1345.4c-.172 0-.343.023-.51.068a1.995 1.995 0 0 1 0 3.857 1.995 1.995 0 1 0 .51-3.925z"/><path id="d6r8ai" d="M787.9 1345.4c-.172 0-.343.023-.51.068a1.995 1.995 0 0 1 0 3.857 1.995 1.995 0 1 0 .51-3.925z"/><path id="d6r8aj" d="M809.33 1345.4c-.172 0-.343.023-.51.068a1.995 1.995 0 0 1 0 3.857 1.995 1.995 0 1 0 .51-3.925z"/><path id="d6r8ak" d="M816.51 1360.086a2.557 2.557 0 0 1-2.553 2.553h-73.532a2.557 2.557 0 0 1-2.553-2.553v-53.106a2.557 2.557 0 0 1 2.553-2.554h1.873v2.554a.851.851 0 0 0 1.702 0v-2.554h11.915v2.554a.851.851 0 0 0 1.702 0v-2.554h11.915v2.554a.851.851 0 0 0 1.702 0v-2.554h11.915v2.554a.851.851 0 1 0 1.702 0v-2.554h11.915v2.554a.851.851 0 1 0 1.702 0v-2.554h11.915v2.554a.851.851 0 1 0 1.702 0v-2.554h1.872a2.557 2.557 0 0 1 2.553 2.554zm-2.553-57.362h-1.872v-2.553a.851.851 0 1 0-1.702 0v2.553h-11.915v-2.553a.851.851 0 1 0-1.702 0v2.553H784.85v-2.553a.851.851 0 1 0-1.702 0v2.553h-11.915v-2.553a.851.851 0 1 0-1.702 0v2.553h-11.915v-2.553a.851.851 0 0 0-1.702 0v2.553H744v-2.553a.851.851 0 0 0-1.702 0v2.553h-1.873a4.259 4.259 0 0 0-4.255 4.256v53.106a4.259 4.259 0 0 0 4.255 4.255h73.532a4.259 4.259 0 0 0 4.256-4.255v-53.106a4.259 4.259 0 0 0-4.256-4.256z"/><path id="d6r8al" d="M743.831 1312.482h13.617a.851.851 0 0 0 0-1.702h-13.617a.851.851 0 1 0 0 1.702z"/><path id="d6r8am" d="M764.251 1312.482h46.298a.851.851 0 0 0 0-1.702H764.25a.851.851 0 1 0 0 1.702z"/><path id="d6r8an" d="M766.48 1322.935a1.826 1.826 0 0 1-1.828-1.823c0-1.007.819-1.823 1.828-1.823 1.01 0 1.828.816 1.828 1.823a1.826 1.826 0 0 1-1.828 1.823zm0-5.345a3.53 3.53 0 1 0 0 7.06 3.53 3.53 0 0 0 0-7.06z"/><path id="d6r8ao" d="M777.19 1322.935a1.826 1.826 0 0 1-1.828-1.823c0-1.007.819-1.823 1.828-1.823 1.01 0 1.828.816 1.828 1.823a1.826 1.826 0 0 1-1.828 1.823zm0-5.345a3.53 3.53 0 1 0 0 7.06 3.53 3.53 0 0 0 0-7.06z"/><path id="d6r8ap" d="M787.9 1322.935a1.826 1.826 0 0 1-1.828-1.823c0-1.007.819-1.823 1.828-1.823 1.01 0 1.828.816 1.828 1.823a1.826 1.826 0 0 1-1.828 1.823zm0-5.345a3.53 3.53 0 1 0 0 7.06 3.53 3.53 0 0 0 0-7.06z"/><path id="d6r8aq" d="M798.61 1322.935a1.826 1.826 0 0 1-1.828-1.823c0-1.007.819-1.823 1.828-1.823 1.01 0 1.828.816 1.828 1.823a1.826 1.826 0 0 1-1.828 1.823zm0-5.345a3.53 3.53 0 1 0 0 7.06 3.53 3.53 0 0 0 0-7.06z"/><path id="d6r8ar" d="M809.33 1322.935a1.826 1.826 0 0 1-1.828-1.823c0-1.007.819-1.823 1.828-1.823 1.01 0 1.828.816 1.828 1.823a1.826 1.826 0 0 1-1.828 1.823zm0-5.345a3.53 3.53 0 1 0 0 7.06 3.53 3.53 0 0 0 0-7.06z"/><path id="d6r8as" d="M745.06 1331.695a1.826 1.826 0 0 1-1.818-1.831 1.826 1.826 0 0 1 1.834-1.815 1.82 1.82 0 1 1 1.282 3.117 1.83 1.83 0 0 1-1.298.529zm0-5.345a3.53 3.53 0 1 0 .02 7.06 3.53 3.53 0 0 0-.02-7.06z"/><path id="d6r8at" d="M755.77 1331.695a1.826 1.826 0 0 1-1.828-1.823c0-1.007.819-1.823 1.828-1.823 1.01 0 1.828.816 1.828 1.823a1.826 1.826 0 0 1-1.828 1.823zm0-5.345a3.53 3.53 0 1 0 0 7.06 3.53 3.53 0 0 0 0-7.06z"/><path id="d6r8au" d="M766.48 1331.695a1.826 1.826 0 0 1-1.828-1.823c0-1.007.819-1.823 1.828-1.823 1.01 0 1.828.816 1.828 1.823a1.826 1.826 0 0 1-1.828 1.823zm0-5.345a3.53 3.53 0 1 0 0 7.06 3.53 3.53 0 0 0 0-7.06z"/><path id="d6r8av" d="M777.19 1331.695a1.826 1.826 0 0 1-1.828-1.823c0-1.007.819-1.823 1.828-1.823 1.01 0 1.828.816 1.828 1.823a1.826 1.826 0 0 1-1.828 1.823zm0-5.345a3.53 3.53 0 1 0 0 7.06 3.53 3.53 0 0 0 0-7.06z"/><path id="d6r8aw" d="M787.9 1331.695a1.826 1.826 0 0 1-1.828-1.823c0-1.007.819-1.823 1.828-1.823 1.01 0 1.828.816 1.828 1.823a1.826 1.826 0 0 1-1.828 1.823zm0-5.345a3.53 3.53 0 1 0 0 7.06 3.53 3.53 0 0 0 0-7.06z"/><path id="d6r8ax" d="M798.61 1331.695a1.826 1.826 0 0 1-1.828-1.823c0-1.007.819-1.823 1.828-1.823 1.01 0 1.828.816 1.828 1.823a1.826 1.826 0 0 1-1.828 1.823zm0-5.345a3.53 3.53 0 1 0 0 7.06 3.53 3.53 0 0 0 0-7.06z"/><path id="d6r8ay" d="M809.33 1331.695a1.826 1.826 0 0 1-1.828-1.823c0-1.007.819-1.823 1.828-1.823 1.01 0 1.828.816 1.828 1.823a1.826 1.826 0 0 1-1.828 1.823zm0-5.345a3.53 3.53 0 1 0 0 7.06 3.53 3.53 0 0 0 0-7.06z"/><path id="d6r8az" d="M745.06 1340.465a1.828 1.828 0 1 1 1.3-.529 1.828 1.828 0 0 1-1.3.532zm0-5.355a3.53 3.53 0 1 0 .02 7.06 3.53 3.53 0 0 0-.02-7.06z"/><path id="d6r8aA" d="M755.764 1340.465a1.83 1.83 0 0 1-1.294-3.12 1.824 1.824 0 0 1 3.116 1.295 1.827 1.827 0 0 1-1.822 1.828zm0-5.355a3.53 3.53 0 1 0-.007 7.06 3.53 3.53 0 0 0 .007-7.06z"/><path id="d6r8aB" d="M766.48 1340.465a1.828 1.828 0 1 1 1.828-1.825c0 1.01-.818 1.828-1.828 1.828zm0-5.355a3.53 3.53 0 1 0 0 7.06 3.53 3.53 0 0 0 0-7.06z"/><path id="d6r8aC" d="M777.19 1340.465a1.828 1.828 0 1 1 1.294-.533 1.828 1.828 0 0 1-1.294.536zm0-5.355a3.53 3.53 0 1 0 0 7.06 3.53 3.53 0 0 0 0-7.06z"/><path id="d6r8aD" d="M787.899 1340.465a1.826 1.826 0 0 1-1.823-1.828c0-1.01.816-1.828 1.823-1.828 1.007 0 1.823.818 1.823 1.828 0 .485-.191.951-.533 1.295a1.82 1.82 0 0 1-1.29.536zm.005-5.355a3.53 3.53 0 1 0-.007 7.06 3.53 3.53 0 0 0 .007-7.06z"/><path id="d6r8aE" d="M798.61 1340.465a1.828 1.828 0 1 1 1.828-1.825c0 1.01-.818 1.828-1.828 1.828zm0-5.355a3.53 3.53 0 1 0 0 7.06 3.53 3.53 0 0 0 0-7.06z"/><path id="d6r8aF" d="M809.33 1340.465a1.828 1.828 0 1 1 1.294-.533 1.828 1.828 0 0 1-1.294.536zm0-5.355a3.53 3.53 0 1 0 0 7.06 3.53 3.53 0 0 0 0-7.06z"/><path id="d6r8aG" d="M745.06 1349.215a1.826 1.826 0 0 1-1.818-1.83 1.826 1.826 0 0 1 1.832-1.816 1.82 1.82 0 1 1 1.286 3.116 1.83 1.83 0 0 1-1.3.53zm0-5.345a3.53 3.53 0 1 0 .02 7.06 3.53 3.53 0 0 0-.02-7.06z"/><path id="d6r8aH" d="M766.48 1349.215a1.826 1.826 0 0 1-1.828-1.823c0-1.007.819-1.823 1.828-1.823a1.82 1.82 0 1 1 1.293 3.112 1.83 1.83 0 0 1-1.293.534zm0-5.345a3.53 3.53 0 1 0 0 7.06 3.53 3.53 0 0 0 0-7.06z"/><path id="d6r8aI" d="M777.19 1349.215a1.826 1.826 0 0 1-1.828-1.823c0-1.007.819-1.823 1.828-1.823a1.82 1.82 0 1 1 1.293 3.112 1.83 1.83 0 0 1-1.293.534zm0-5.345a3.53 3.53 0 1 0 0 7.06 3.53 3.53 0 0 0 0-7.06z"/><path id="d6r8aJ" d="M787.9 1349.215a1.826 1.826 0 0 1-1.828-1.823c0-1.007.819-1.823 1.828-1.823a1.82 1.82 0 1 1 1.293 3.112 1.83 1.83 0 0 1-1.293.534zm0-5.345a3.53 3.53 0 1 0 0 7.06 3.53 3.53 0 0 0 0-7.06z"/><path id="d6r8aK" d="M798.61 1349.215a1.826 1.826 0 0 1-1.828-1.823c0-1.007.819-1.823 1.828-1.823a1.82 1.82 0 1 1 1.293 3.112 1.83 1.83 0 0 1-1.293.534zm0-5.345a3.53 3.53 0 1 0 0 7.06 3.53 3.53 0 0 0 0-7.06z"/><path id="d6r8aL" d="M809.33 1349.215a1.826 1.826 0 0 1-1.828-1.823c0-1.007.819-1.823 1.828-1.823a1.82 1.82 0 1 1 1.293 3.112 1.83 1.83 0 0 1-1.293.534zm0-5.345a3.53 3.53 0 1 0 0 7.06 3.53 3.53 0 0 0 0-7.06z"/><path id="d6r8aM" d="M753.27 1349.89a.851.851 0 0 0 1.205 0l1.294-1.29 1.293 1.29a.852.852 0 0 0 1.205-1.205l-1.293-1.29 1.293-1.29a.852.852 0 0 0-1.205-1.205l-1.293 1.29-1.294-1.29a.852.852 0 1 0-1.205 1.205l1.294 1.29-1.294 1.29a.851.851 0 0 0 0 1.205z"/><path id="d6r8aN" d="M745.06 1357.975a1.826 1.826 0 0 1-1.818-1.831 1.826 1.826 0 0 1 1.834-1.815 1.82 1.82 0 1 1 1.282 3.117 1.83 1.83 0 0 1-1.298.529zm0-5.345a3.53 3.53 0 1 0 .02 7.06 3.53 3.53 0 0 0-.02-7.06z"/><path id="d6r8aO" d="M755.77 1357.975a1.826 1.826 0 0 1-1.828-1.823c0-1.007.819-1.823 1.828-1.823a1.82 1.82 0 1 1 1.293 3.112 1.83 1.83 0 0 1-1.293.534zm0-5.345a3.53 3.53 0 1 0 0 7.06 3.53 3.53 0 0 0 0-7.06z"/><path id="d6r8aP" d="M766.48 1357.975a1.826 1.826 0 0 1-1.828-1.823c0-1.007.819-1.823 1.828-1.823a1.82 1.82 0 1 1 1.293 3.112 1.83 1.83 0 0 1-1.293.534zm0-5.345a3.53 3.53 0 1 0 0 7.06 3.53 3.53 0 0 0 0-7.06z"/><path id="d6r8aQ" d="M777.19 1357.975a1.826 1.826 0 0 1-1.828-1.823c0-1.007.819-1.823 1.828-1.823a1.82 1.82 0 1 1 1.293 3.112 1.83 1.83 0 0 1-1.293.534zm0-5.345a3.53 3.53 0 1 0 0 7.06 3.53 3.53 0 0 0 0-7.06z"/><path id="d6r8aR" d="M787.9 1357.975a1.826 1.826 0 0 1-1.828-1.823c0-1.007.819-1.823 1.828-1.823a1.82 1.82 0 1 1 1.293 3.112 1.83 1.83 0 0 1-1.293.534zm0-5.345a3.53 3.53 0 1 0 0 7.06 3.53 3.53 0 0 0 0-7.06z"/><path id="d6r8aS" d="M784.535 1293.972h-1.362v-1.362a.34.34 0 1 0-.68 0v1.362h-1.363a.34.34 0 1 0 0 .681h1.362v1.362a.34.34 0 1 0 .681 0v-1.362h1.362a.34.34 0 1 0 0-.68z"/><path id="d6r8aT" d="M812.095 1368.392h-1.362v-1.362a.34.34 0 1 0-.68 0v1.362h-1.363a.34.34 0 1 0 0 .681h1.362v1.362a.34.34 0 1 0 .681 0v-1.362h1.362a.34.34 0 1 0 0-.68z"/><path id="d6r8aU" d="M756.263 1293.31a1.363 1.363 0 1 0 .001 2.724 1.363 1.363 0 0 0-.001-2.725zm0 3.405a2.043 2.043 0 1 1 0-4.085 2.043 2.043 0 0 1 0 4.085z"/><path id="d6r8aV" d="M799.953 1294.99a1.362 1.362 0 1 0 0 2.724 1.362 1.362 0 0 0 0-2.723zm0 3.405a2.043 2.043 0 1 1 0-4.085 2.043 2.043 0 0 1 0 4.085z"/><path id="d6r8aW" d="M780.723 1368.25a1.363 1.363 0 1 0-.002 2.726 1.363 1.363 0 0 0 .002-2.725zm0 3.405a2.043 2.043 0 1 1 0-4.085 2.043 2.043 0 0 1 0 4.085z"/><path id="d6r8aX" d="M744.685 1368.746h-.882l.623-.623a.34.34 0 0 0-.48-.48l-.623.61v-.883a.34.34 0 1 0-.68 0v.882l-.624-.623a.34.34 0 0 0-.48.48l.623.623h-.882a.34.34 0 1 0 0 .681h.882l-.623.623a.34.34 0 0 0 .48.48l.623-.623v.882a.34.34 0 1 0 .681 0v-.882l.623.623a.34.34 0 0 0 .48-.48l-.623-.623h.882a.34.34 0 1 0 0-.68z"/></defs><g><g transform="translate(-736 -1292)"><g><use fill="#f7feef" xlink:href="#d6r8a"/></g><g><use fill="#f6c002" xlink:href="#d6r8b"/></g><g><use fill="#f6c002" xlink:href="#d6r8c"/></g><g><use fill="#f6c002" xlink:href="#d6r8d"/></g><g><use fill="#f6c002" xlink:href="#d6r8e"/></g><g><use fill="#fff" xlink:href="#d6r8f"/></g><g><use fill="#fff" xlink:href="#d6r8g"/></g><g><use fill="#fff" xlink:href="#d6r8h"/></g><g><use fill="#fff" xlink:href="#d6r8i"/></g><g><use fill="#fff" xlink:href="#d6r8j"/></g><g><use fill="#fff" xlink:href="#d6r8k"/></g><g><use fill="#fff" xlink:href="#d6r8l"/></g><g><use fill="#49cb70" xlink:href="#d6r8m"/></g><g><use fill="#49cb70" xlink:href="#d6r8n"/></g><g><use fill="#49cb70" xlink:href="#d6r8o"/></g><g><use fill="#49cb70" xlink:href="#d6r8p"/></g><g><use fill="#e4ebed" xlink:href="#d6r8q"/></g><g><use fill="#fff" xlink:href="#d6r8r"/></g><g><use fill="#fff" xlink:href="#d6r8s"/></g><g><use fill="#fff" xlink:href="#d6r8t"/></g><g><use fill="#fff" xlink:href="#d6r8u"/></g><g><use fill="#fff" xlink:href="#d6r8v"/></g><g><use fill="#fff" xlink:href="#d6r8w"/></g><g><use fill="#fff" xlink:href="#d6r8x"/></g><g><use fill="#fff" xlink:href="#d6r8y"/></g><g><use fill="#fff" xlink:href="#d6r8z"/></g><g><use fill="#fff" xlink:href="#d6r8A"/></g><g><use fill="#fff" xlink:href="#d6r8B"/></g><g><use fill="#fff" xlink:href="#d6r8C"/></g><g><use fill="#fff" xlink:href="#d6r8D"/></g><g><use fill="#fff" xlink:href="#d6r8E"/></g><g><use fill="#fff" xlink:href="#d6r8F"/></g><g><use fill="#e4ebed" xlink:href="#d6r8G"/></g><g><use fill="#e4ebed" xlink:href="#d6r8H"/></g><g><use fill="#e4ebed" xlink:href="#d6r8I"/></g><g><use fill="#e4ebed" xlink:href="#d6r8J"/></g><g><use fill="#1a923e" xlink:href="#d6r8K"/></g><g><use fill="#1a923e" xlink:href="#d6r8L"/></g><g><use fill="#1a923e" xlink:href="#d6r8M"/></g><g><use fill="#1a923e" xlink:href="#d6r8N"/></g><g><use fill="#e4ebed" xlink:href="#d6r8O"/></g><g><use fill="#e4ebed" xlink:href="#d6r8P"/></g><g><use fill="#e4ebed" xlink:href="#d6r8Q"/></g><g><use fill="#e4ebed" xlink:href="#d6r8R"/></g><g><use fill="#e4ebed" xlink:href="#d6r8S"/></g><g><use fill="#e4ebed" xlink:href="#d6r8T"/></g><g><use fill="#e4ebed" xlink:href="#d6r8U"/></g><g><use fill="#e4ebed" xlink:href="#d6r8V"/></g><g><use fill="#e4ebed" xlink:href="#d6r8W"/></g><g><use fill="#d0a202" xlink:href="#d6r8X"/></g><g><use fill="#e4ebed" xlink:href="#d6r8Y"/></g><g><use fill="#e4ebed" xlink:href="#d6r8Z"/></g><g><use fill="#e4ebed" xlink:href="#d6r8aa"/></g><g><use fill="#e4ebed" xlink:href="#d6r8ab"/></g><g><use fill="#d0a202" xlink:href="#d6r8ac"/></g><g><use fill="#d0a202" xlink:href="#d6r8ad"/></g><g><use fill="#d0a202" xlink:href="#d6r8ae"/></g><g><use fill="#e4ebed" xlink:href="#d6r8af"/></g><g><use fill="#e4ebed" xlink:href="#d6r8ag"/></g><g><use fill="#e4ebed" xlink:href="#d6r8ah"/></g><g><use fill="#e4ebed" xlink:href="#d6r8ai"/></g><g><use fill="#e4ebed" xlink:href="#d6r8aj"/></g><g><use fill="#263238" xlink:href="#d6r8ak"/></g><g><use fill="#263238" xlink:href="#d6r8al"/></g><g><use fill="#263238" xlink:href="#d6r8am"/></g><g><use fill="#263238" xlink:href="#d6r8an"/></g><g><use fill="#263238" xlink:href="#d6r8ao"/></g><g><use fill="#263238" xlink:href="#d6r8ap"/></g><g><use fill="#263238" xlink:href="#d6r8aq"/></g><g><use fill="#263238" xlink:href="#d6r8ar"/></g><g><use fill="#263238" xlink:href="#d6r8as"/></g><g><use fill="#263238" xlink:href="#d6r8at"/></g><g><use fill="#263238" xlink:href="#d6r8au"/></g><g><use fill="#263238" xlink:href="#d6r8av"/></g><g><use fill="#263238" xlink:href="#d6r8aw"/></g><g><use fill="#263238" xlink:href="#d6r8ax"/></g><g><use fill="#263238" xlink:href="#d6r8ay"/></g><g><use fill="#263238" xlink:href="#d6r8az"/></g><g><use fill="#263238" xlink:href="#d6r8aA"/></g><g><use fill="#263238" xlink:href="#d6r8aB"/></g><g><use fill="#263238" xlink:href="#d6r8aC"/></g><g><use fill="#263238" xlink:href="#d6r8aD"/></g><g><use fill="#263238" xlink:href="#d6r8aE"/></g><g><use fill="#263238" xlink:href="#d6r8aF"/></g><g><use fill="#263238" xlink:href="#d6r8aG"/></g><g><use fill="#263238" xlink:href="#d6r8aH"/></g><g><use fill="#263238" xlink:href="#d6r8aI"/></g><g><use fill="#263238" xlink:href="#d6r8aJ"/></g><g><use fill="#263238" xlink:href="#d6r8aK"/></g><g><use fill="#263238" xlink:href="#d6r8aL"/></g><g><use fill="#263238" xlink:href="#d6r8aM"/></g><g><use fill="#263238" xlink:href="#d6r8aN"/></g><g><use fill="#263238" xlink:href="#d6r8aO"/></g><g><use fill="#263238" xlink:href="#d6r8aP"/></g><g><use fill="#263238" xlink:href="#d6r8aQ"/></g><g><use fill="#263238" xlink:href="#d6r8aR"/></g><g><use fill="#fd0" xlink:href="#d6r8aS"/></g><g><use fill="#40bdff" xlink:href="#d6r8aT"/></g><g><use fill="#40bdff" xlink:href="#d6r8aU"/></g><g><use fill="#40bdff" xlink:href="#d6r8aV"/></g><g><use fill="#fd0" xlink:href="#d6r8aW"/></g><g><use fill="#40bdff" xlink:href="#d6r8aX"/></g></g></g></svg>