<?xml version="1.0" encoding="UTF-8"?>
<svg width="51px" height="31px" viewBox="0 0 51 31" version="1.1" xmlns="http://www.w3.org/2000/svg" xmlns:xlink="http://www.w3.org/1999/xlink">
    <!-- Generator: Sketch 54.1 (76490) - https://sketchapp.com -->
    <title>008-air-conditioner</title>
    <desc>Created with Sketch.</desc>
    <g id="Inside" stroke="none" stroke-width="1" fill="none" fill-rule="evenodd">
        <g id="allbc.info_business_center_1140px-_2" transform="translate(-152.000000, -1844.000000)" fill="#3EB060" fill-rule="nonzero">
            <g id="Group-9">
                <g id="008-air-conditioner" transform="translate(152.000000, 1844.000000)">
                    <path d="M47.407045,0.0484437299 L12.1240274,0.0484437299 C11.710638,0.0484437299 11.3754951,0.383064309 11.3754951,0.796032154 C11.3754951,1.209 11.710638,1.54362058 12.1240274,1.54362058 L47.407045,1.54362058 C48.5577886,1.54362058 49.493953,2.4786045 49.493953,3.62789711 L49.493953,19.5456495 C49.493953,20.6949421 48.5577886,21.629926 47.407045,21.629926 L45.6146595,21.629926 L45.6146595,16.7589389 C45.6146595,16.3459711 45.2795166,16.0113505 44.8661272,16.0113505 L6.12479061,16.0113505 C5.71140117,16.0113505 5.37625832,16.3459711 5.37625832,16.7589389 L5.37625832,21.629926 L3.5839726,21.629926 C2.43322896,21.629926 1.49706458,20.6949421 1.49706458,19.5456495 L1.49706458,3.62789711 C1.49706458,2.4786045 2.43322896,1.54362058 3.5839726,1.54362058 L9.12989824,1.54362058 C9.54328767,1.54362058 9.87843053,1.209 9.87843053,0.796032154 C9.87843053,0.383064309 9.54328767,0.0484437299 9.12989824,0.0484437299 L3.5839726,0.0484437299 C1.60774755,0.0484437299 2.4158453e-13,1.65416399 2.4158453e-13,3.62789711 L2.4158453e-13,19.5456495 C2.4158453e-13,21.5193826 1.60774755,23.1251029 3.5839726,23.1251029 L11.3757945,23.1251029 C11.789184,23.1251029 12.1243268,22.7904823 12.1243268,22.3775145 C12.1243268,21.9646463 11.789184,21.629926 11.3757945,21.629926 L6.8733229,21.629926 L6.8733229,20.3157653 L36.6210939,20.3157653 C37.0344834,20.3157653 37.3696262,19.9811447 37.3696262,19.5681768 C37.3696262,19.155209 37.0344834,18.8205884 36.6210939,18.8205884 L6.8733229,18.8205884 L6.8733229,17.5064277 L44.1175949,17.5064277 L44.1175949,18.8205884 L39.6152231,18.8205884 C39.2018337,18.8205884 38.8666908,19.155209 38.8666908,19.5681768 C38.8666908,19.9811447 39.2018337,20.3157653 39.6152231,20.3157653 L44.1175949,20.3157653 L44.1175949,21.629926 L14.3698239,21.629926 C13.9564344,21.629926 13.6212916,21.9646463 13.6212916,22.3775145 C13.6212916,22.7904823 13.9564344,23.1251029 14.3698239,23.1251029 L47.407045,23.1251029 C49.3832701,23.1251029 50.9910176,21.5193826 50.9910176,19.5456495 L50.9910176,3.62789711 C50.9909178,1.65426367 49.3831703,0.0484437299 47.407045,0.0484437299 Z" id="Path"></path>
                    <path d="M44.8661272,6.12693569 C45.2795166,6.12693569 45.6146595,5.79231511 45.6146595,5.37934727 C45.6146595,4.96637942 45.2795166,4.63175884 44.8661272,4.63175884 L42.6523679,4.63175884 C42.2389785,4.63175884 41.9038356,4.96637942 41.9038356,5.37934727 C41.9038356,5.79231511 42.2389785,6.12693569 42.6523679,6.12693569 L44.8661272,6.12693569 Z" id="Path"></path>
                    <path d="M39.2369648,6.12693569 C39.6503542,6.12693569 39.9854971,5.79231511 39.9854971,5.37934727 C39.9854971,4.96637942 39.6503542,4.63175884 39.2369648,4.63175884 L25.0691448,4.63175884 C24.6557554,4.63175884 24.3206125,4.96637942 24.3206125,5.37934727 C24.3206125,5.79231511 24.6557554,6.12693569 25.0691448,6.12693569 L39.2369648,6.12693569 Z" id="Path"></path>
                    <path d="M14.080591,25.1253505 C13.6672016,25.1253505 13.3320587,25.4599711 13.3320587,25.8729389 C13.3320587,25.8951672 13.3080059,28.111418 11.2314775,29.585463 C10.8945382,29.8245916 10.8154932,30.2913859 11.0550235,30.6279003 C11.2010372,30.8331383 11.4315851,30.9424855 11.6658258,30.9424855 C11.8158317,30.9424855 11.9673346,30.8975305 12.0988767,30.8041318 C14.798184,28.8879132 14.8292231,25.995045 14.8292231,25.8728392 C14.8291233,25.4599711 14.4939804,25.1253505 14.080591,25.1253505 Z" id="Path"></path>
                    <path d="M19.440182,25.1253505 C19.0267926,25.1253505 18.6916497,25.4599711 18.6916497,25.8729389 L18.6916497,30.1947974 C18.6916497,30.6077653 19.0267926,30.9423859 19.440182,30.9423859 C19.8535714,30.9423859 20.1887143,30.6077653 20.1887143,30.1947974 L20.1887143,25.8729389 C20.1887143,25.4599711 19.8535714,25.1253505 19.440182,25.1253505 Z" id="Path"></path>
                    <path d="M25.7059961,25.1253505 C25.2926067,25.1253505 24.9574638,25.4599711 24.9574638,25.8729389 L24.9574638,30.1947974 C24.9574638,30.6077653 25.2926067,30.9423859 25.7059961,30.9423859 C26.1193855,30.9423859 26.4545284,30.6077653 26.4545284,30.1947974 L26.4545284,25.8729389 C26.4545284,25.4599711 26.1193855,25.1253505 25.7059961,25.1253505 Z" id="Path"></path>
                    <path d="M39.7595401,29.585463 C37.7109569,28.131254 37.6600568,25.9690289 37.6589589,25.8695498 C37.6571624,25.4581768 37.3227182,25.1253505 36.9104266,25.1253505 C36.4970372,25.1253505 36.1618943,25.4599711 36.1618943,25.8729389 C36.1618943,25.9951447 36.1929335,28.8880129 38.8922407,30.8042315 C39.0237828,30.8976302 39.1752857,30.9425852 39.3252916,30.9425852 C39.5594325,30.9424855 39.7900802,30.8330386 39.9360939,30.628 C40.1755245,30.2913859 40.0964795,29.8245916 39.7595401,29.585463 Z" id="Path"></path>
                    <path d="M31.5507358,25.1253505 C31.1373464,25.1253505 30.8022035,25.4599711 30.8022035,25.8729389 L30.8022035,30.1947974 C30.8022035,30.6077653 31.1373464,30.9423859 31.5507358,30.9423859 C31.9641252,30.9423859 32.2992681,30.6077653 32.2992681,30.1947974 L32.2992681,25.8729389 C32.2992681,25.4599711 31.9641252,25.1253505 31.5507358,25.1253505 Z" id="Path"></path>
                </g>
            </g>
        </g>
    </g>
</svg>