<?xml version="1.0" encoding="UTF-8"?>
<svg width="40px" height="40px" viewBox="0 0 40 40" version="1.1" xmlns="http://www.w3.org/2000/svg" xmlns:xlink="http://www.w3.org/1999/xlink">
    <!-- Generator: Sketch 54.1 (76490) - https://sketchapp.com -->
    <title>010-apartment</title>
    <desc>Created with Sketch.</desc>
    <g id="Inside" stroke="none" stroke-width="1" fill="none" fill-rule="evenodd">
        <g id="allbc.info_business_center_1140px-_2" transform="translate(-158.000000, -2529.000000)" fill="#3EB060" fill-rule="nonzero">
            <g id="Group-9">
                <g id="010-apartment" transform="translate(158.000000, 2529.000000)">
                    <path d="M39.3333594,38.6666406 L36,38.6666406 L36,4 L37.3333594,4 C37.7333594,4 38,3.73335938 38,3.33335938 L38,0.666640625 C38,0.266640625 37.7333594,0 37.3333594,0 L2.66664062,0 C2.26664062,-6.9388939e-17 2,0.266640625 2,0.666640625 L2,3.33328125 C2,3.73328125 2.26664062,3.99992188 2.66664062,3.99992188 L4,3.99992188 L4,38.6665625 L0.666640625,38.6665625 C0.266640625,38.6665625 -4.26325641e-14,38.9332031 -4.26325641e-14,39.3332031 C-4.26325641e-14,39.7332031 0.266640625,40 0.666640625,40 L4.66664062,40 L23.3332812,40 L31.3332812,40 L35.3332812,40 L39.3332812,40 C39.7332812,40 39.9999219,39.7333594 39.9999219,39.3333594 C39.9999219,38.9333594 39.7333594,38.6666406 39.3333594,38.6666406 Z M3.33335937,1.33335938 L36.6667187,1.33335938 L36.6667187,2.66671875 L35.3333594,2.66671875 L4.66664062,2.66671875 L3.33335937,2.66671875 L3.33335937,1.33335938 Z M24,38.6666406 L24,28 L26.6666406,28 L26.6666406,38.6666406 L24,38.6666406 Z M28,38.6666406 L28,28 L30.6666406,28 L30.6666406,38.6666406 L28,38.6666406 Z M32,38.6666406 L32,27.3333594 C32,26.9333594 31.7333594,26.6667187 31.3333594,26.6667187 L23.3333594,26.6667187 C22.9333594,26.6667187 22.6667187,26.9333594 22.6667187,27.3333594 L22.6667187,38.6667188 L5.33335937,38.6667188 L5.33335937,4 L34.6667187,4 L34.6667187,38.6667188 L32,38.6666406 Z" id="Shape"></path>
                    <path d="M18,6.66664063 L12.6666406,6.66664063 L7.33335937,6.66664063 C6.93335937,6.66664063 6.66671875,6.93328125 6.66671875,7.33328125 L6.66671875,12.6666406 C6.66671875,13.0666406 6.93335937,13.3332813 7.33335937,13.3332813 L12.6667187,13.3332813 L18,13.3332813 C18.4,13.3332813 18.6666406,13.0666406 18.6666406,12.6666406 L18.6666406,7.33335938 C18.6666406,6.93335938 18.4,6.66664063 18,6.66664063 Z M8,8 L12,8 L12,12 L8,12 L8,8 L8,8 Z M17.3333594,12 L13.3333594,12 L13.3333594,8 L17.3333594,8 L17.3333594,12 L17.3333594,12 Z" id="Shape"></path>
                    <path d="M32.6666406,6.66664063 L27.3332813,6.66664063 L22,6.66664063 C21.6,6.66664063 21.3333594,6.93328125 21.3333594,7.33328125 L21.3333594,12.6666406 C21.3333594,13.0666406 21.6,13.3332813 22,13.3332813 L27.3333594,13.3332813 L32.6667188,13.3332813 C33.0667188,13.3332813 33.3333594,13.0666406 33.3333594,12.6666406 L33.3333594,7.33335938 C33.3333594,6.93335938 33.0666406,6.66664063 32.6666406,6.66664063 Z M22.6666406,8 L26.6666406,8 L26.6666406,12 L22.6666406,12 L22.6666406,8 Z M32,12 L28,12 L28,8 L32,8 L32,12 Z" id="Shape"></path>
                    <path d="M18,16 L12.6666406,16 L7.33335937,16 C6.93335937,16 6.66671875,16.2666406 6.66671875,16.6666406 L6.66671875,22 C6.66671875,22.4 6.93335937,22.6666406 7.33335937,22.6666406 L12.6667187,22.6666406 L18,22.6666406 C18.4,22.6666406 18.6666406,22.4 18.6666406,22 L18.6666406,16.6666406 C18.6666406,16.2666406 18.4,16 18,16 Z M8,17.3333594 L12,17.3333594 L12,21.3333594 L8,21.3333594 L8,17.3333594 L8,17.3333594 Z M17.3333594,21.3333594 L13.3333594,21.3333594 L13.3333594,17.3333594 L17.3333594,17.3333594 L17.3333594,21.3333594 L17.3333594,21.3333594 Z" id="Shape"></path>
                    <path d="M18,26.6666406 L12.6666406,26.6666406 L7.33335937,26.6666406 C6.93335937,26.6666406 6.66671875,26.9332813 6.66671875,27.3332813 L6.66671875,32.6666406 C6.66671875,33.0666406 6.93335937,33.3332813 7.33335937,33.3332813 L12.6667187,33.3332813 L18,33.3332813 C18.4,33.3332813 18.6666406,33.0666406 18.6666406,32.6666406 L18.6666406,27.3332813 C18.6666406,26.9333594 18.4,26.6666406 18,26.6666406 Z M8,28 L12,28 L12,32 L8,32 L8,28 L8,28 Z M17.3333594,32 L13.3333594,32 L13.3333594,28 L17.3333594,28 L17.3333594,32 L17.3333594,32 Z" id="Shape"></path>
                    <path d="M32.6666406,16 L27.3332813,16 L22,16 C21.6,16 21.3333594,16.2666406 21.3333594,16.6666406 L21.3333594,22 C21.3333594,22.4 21.6,22.6666406 22,22.6666406 L27.3333594,22.6666406 L32.6667188,22.6666406 C33.0667188,22.6666406 33.3333594,22.4 33.3333594,22 L33.3333594,16.6666406 C33.3333594,16.2666406 33.0666406,16 32.6666406,16 Z M22.6666406,17.3333594 L26.6666406,17.3333594 L26.6666406,21.3333594 L22.6666406,21.3333594 L22.6666406,17.3333594 Z M32,21.3333594 L28,21.3333594 L28,17.3333594 L32,17.3333594 L32,21.3333594 Z" id="Shape"></path>
                </g>
            </g>
        </g>
    </g>
</svg>