<?xml version="1.0" encoding="UTF-8"?>
<svg width="34px" height="40px" viewBox="0 0 34 40" version="1.1" xmlns="http://www.w3.org/2000/svg" xmlns:xlink="http://www.w3.org/1999/xlink">
    <!-- Generator: Sketch 54.1 (76490) - https://sketchapp.com -->
    <title>011-arrows</title>
    <desc>Created with Sketch.</desc>
    <g id="Inside" stroke="none" stroke-width="1" fill="none" fill-rule="evenodd">
        <g id="allbc.info_business_center_1140px-_2" transform="translate(-161.000000, -1981.000000)" fill="#3EB060" fill-rule="nonzero">
            <g id="Group-9">
                <g id="011-arrows" transform="translate(161.000000, 1981.000000)">
                    <path d="M32.9338446,19.0410156 L29.0081995,19.0410156 C28.4238246,19.0410156 27.9481365,19.5175781 27.9481365,20.1030274 L27.9481365,27.6254883 C27.9481365,28.2109375 28.4238246,28.6875 29.0081995,28.6875 L32.9338446,28.6875 C33.5182196,28.6875 33.9939077,28.2109375 33.9939077,27.6254883 L33.9939077,20.1030274 C33.9939077,19.5175781 33.5182196,19.0410156 32.9338446,19.0410156 L32.9338446,19.0410156 Z M32.8236955,27.5148926 L29.1185923,27.5148926 L29.1185923,20.2133789 L32.8236955,20.2133789 L32.8236955,27.5148926 Z" id="Shape"></path>
                    <path d="M29.7514622,23.2741699 C29.8550316,23.3486328 29.9744409,23.3847656 30.0931193,23.3847656 C30.274914,23.3847656 30.4540281,23.300293 30.56832,23.1411132 L30.9548165,22.6035156 L31.387371,23.1591797 C31.5859805,23.4143066 31.9537127,23.4597168 32.2086152,23.2607422 C32.4632741,23.0617676 32.5086009,22.6933594 32.3099914,22.4379882 L31.3973624,21.2658691 C31.2840453,21.1203613 31.1068807,21.0361328 30.9248423,21.0402832 C30.7406106,21.0437012 30.5688073,21.1340332 30.4613389,21.2839356 L29.6186496,22.4560547 C29.4297879,22.71875 29.4892488,23.0849609 29.7514622,23.2741699 L29.7514622,23.2741699 Z" id="Path"></path>
                    <path d="M30.4613389,26.4450684 C30.5688073,26.5944824 30.7406106,26.6848144 30.9248423,26.6884766 L30.9362959,26.6884766 C31.1161411,26.6884766 31.2864822,26.6054688 31.3973624,26.4626465 L32.3099914,25.2905274 C32.5086009,25.0354004 32.4632741,24.6669922 32.2083716,24.4677734 C31.9537127,24.2687988 31.5859805,24.314209 31.387371,24.5698243 L30.9548165,25.1254883 L30.56832,24.5876465 C30.3794582,24.3249512 30.0139192,24.2653809 29.7514622,24.4545899 C29.4892488,24.6435547 29.4297879,25.0100098 29.6186496,25.2729493 L30.4613389,26.4450684 Z" id="Path"></path>
                    <path d="M14.8350344,7.01928712 L15.2675889,6.46362306 L15.6543292,7.00146487 C15.7683773,7.16040037 15.9474914,7.24511719 16.1295298,7.24511719 C16.2479644,7.24511719 16.3673739,7.2092285 16.4709432,7.13427737 C16.7331565,6.94555662 16.7926175,6.57910156 16.6037558,6.31616212 L15.7610665,5.144043 C15.6533543,4.99414062 15.4817947,4.90429687 15.2975631,4.90039062 C15.1135751,4.89697262 14.9383601,4.98046875 14.825043,5.12597656 L13.912414,6.29833987 C13.7138045,6.55371094 13.7591313,6.921875 14.0137901,7.12109375 C14.268449,7.3203125 14.6364249,7.27490237 14.8350344,7.01928712 Z" id="Path"></path>
                    <path d="M11.3117259,7.24511719 L11.3226921,7.24511719 C11.5069238,7.24145506 11.6787271,7.15112306 11.7861955,7.001709 L12.6291284,5.82910156 C12.8179903,5.56640625 12.7582855,5.20019531 12.4960723,5.01098631 C12.2341027,4.82177738 11.8680762,4.88159181 11.6792145,5.144043 L11.2927179,5.68164063 L10.8601634,5.12597656 C10.6615539,4.87084963 10.2938217,4.82543944 10.0391628,5.02441406 C9.78426035,5.22338869 9.73893349,5.59179688 9.93754302,5.847168 L10.850172,7.01928713 C10.9612959,7.16186525 11.1313934,7.24511719 11.3117259,7.24511719 Z" id="Path"></path>
                    <path d="M25.9325545,33.1289062 C26.2554472,33.1289062 26.5174169,32.8664551 26.5174169,32.5427246 L26.5174169,0.586181625 C26.5174169,0.262451187 26.2554472,0 25.9325545,0 L0.595584862,0 C0.272448426,0 0.0104788,0.262451187 0.0104788,0.586181625 L0.0104788,39.4138184 C0.0104788,39.7375488 0.272448426,40 0.595584862,40 L25.9325545,40 C26.2554472,40 26.5174169,39.7375488 26.5174169,39.4138184 L26.5174169,35.1477051 C26.5174169,34.8242188 26.2554472,34.5617676 25.9325545,34.5617676 C25.609418,34.5617676 25.3474484,34.8242188 25.3474484,35.1477051 L25.3474484,38.8278809 L23.2224484,38.8278809 L23.2224484,11.4157715 C23.2224484,10.8339844 22.7499283,10.3608399 22.1694524,10.3608399 L4.35868696,10.3608399 C3.77821101,10.3608399 3.30569092,10.8339844 3.30569092,11.4157715 L3.30569092,38.8278809 L1.18044725,38.8278809 L1.18044725,1.17211913 L25.3474484,1.17211913 L25.3474484,32.5427246 C25.3474484,32.8664551 25.609418,33.1289062 25.9325545,33.1289062 L25.9325545,33.1289062 Z M13.8490539,11.5332031 L22.0519926,11.5332031 L22.0519926,38.8278809 L13.8490539,38.8278809 L13.8490539,11.5332031 Z M4.47565943,11.5332031 L12.6788417,11.5332031 L12.6788417,38.8278809 L4.47565943,38.8278809 L4.47565943,11.5332031 Z" id="Shape"></path>
                    <path d="M7.17284974,4.09570313 C7.49598624,4.09570313 7.75795586,3.83325194 7.75795586,3.50976563 C7.75795586,3.18603513 7.49598624,2.923584 7.17284974,2.923584 L4.35868696,2.923584 C3.77821101,2.923584 3.30569092,3.39697263 3.30569092,3.97851563 L3.30569092,8.16699219 C3.30569092,8.74877931 3.77821101,9.222168 4.35868696,9.222168 L22.1694524,9.222168 C22.7499283,9.222168 23.2224484,8.74877931 23.2224484,8.16699219 L23.2224484,3.97851563 C23.2224484,3.39697263 22.7499283,2.923584 22.1694524,2.923584 L9.92925744,2.923584 C9.606121,2.923584 9.34415138,3.18603513 9.34415138,3.50976563 C9.34415138,3.83325194 9.606121,4.09570313 9.92925744,4.09570313 L22.0519926,4.09570313 L22.0519926,8.04980469 L4.47565943,8.04980469 L4.47565943,4.09570313 L7.17284974,4.09570313 Z" id="Path"></path>
                </g>
            </g>
        </g>
    </g>
</svg>