<?xml version="1.0" encoding="UTF-8"?>
<svg width="51px" height="40px" viewBox="0 0 51 40" version="1.1" xmlns="http://www.w3.org/2000/svg" xmlns:xlink="http://www.w3.org/1999/xlink">
    <!-- Generator: Sketch 54.1 (76490) - https://sketchapp.com -->
    <title>001-automatic</title>
    <desc>Created with Sketch.</desc>
    <g id="Inside" stroke="none" stroke-width="1" fill="none" fill-rule="evenodd">
        <g id="allbc.info_business_center_1140px-_2" transform="translate(-152.000000, -1296.000000)" fill="#3EB060" fill-rule="nonzero">
            <g id="Group-9">
                <g id="001-automatic" transform="translate(152.000000, 1296.000000)">
                    <path d="M45.0287225,35.4813878 L45.0287225,3.0016851 L5.16735598,3.0016851 L5.16735598,35.4813878 L-8.8817842e-14,35.4813878 L-8.8817842e-14,39.910769 L50.1960784,39.910769 L50.1960784,35.4813878 L45.0287225,35.4813878 Z M43.5523897,9.64537373 L6.64368873,9.64537373 L6.64368873,7.43068324 L43.5523897,7.43068324 L43.5523897,9.64537373 Z M43.5523897,11.1217065 L43.5523897,13.3363971 L6.64368873,13.3363971 L6.64368873,11.1217065 L43.5523897,11.1217065 Z M43.5523897,14.8127298 L43.5523897,17.0270374 L6.64368873,17.0270374 L6.64368873,14.8127298 L43.5523897,14.8127298 Z M43.5523897,4.47801775 L43.5523897,5.95435049 L6.64368873,5.95435049 L6.64368873,4.47801775 L43.5523897,4.47801775 Z M6.64368873,22.1943933 L8.85799627,22.1943933 L8.85799627,20.7180607 L6.64368873,20.7180607 L6.64368873,18.5033701 L43.5523897,18.5033701 L43.5523897,20.7180607 L41.3380822,20.7180607 L41.3380822,22.1943933 L43.5523897,22.1943933 L43.5523897,35.4813878 L6.64368873,35.4813878 L6.64368873,22.1943933 Z M48.7197457,38.4344363 L1.47633275,38.4344363 L1.47633275,36.9577206 L48.7197457,36.9577206 L48.7197457,38.4344363 Z" id="Shape"></path>
                    <polygon id="Path" points="3.69102333 1.52535235 46.5050551 1.52535235 46.5050551 34.0050551 47.9813878 34.0050551 47.9813878 0.0490196078 2.21469059 0.0490196078 2.21469059 34.0050551 3.69102333 34.0050551"></polygon>
                    <polygon id="Path" points="10.334329 20.7180607 11.8106618 20.7180607 11.8106618 22.1943933 10.334329 22.1943933"></polygon>
                    <polygon id="Path" points="38.3854167 20.7180607 39.8617494 20.7180607 39.8617494 22.1943933 38.3854167 22.1943933"></polygon>
                    <polygon id="Path" points="17.7163756 29.8713235 17.7163756 25.747932 18.6707261 26.7022825 19.7146906 25.658701 16.9780177 22.9220282 14.2417279 25.658701 15.2853094 26.7022825 16.2400429 25.747932 16.2400429 29.8713235"></polygon>
                    <polygon id="Path" points="33.9560355 29.8713235 33.9560355 25.747932 34.9103861 26.7022825 35.9547334 25.658701 33.2180607 22.9220282 30.4813878 25.658701 31.5253524 26.7022825 32.4797028 25.747932 32.4797028 29.8713235"></polygon>
                    <polygon id="Path" points="39.8617494 31.7168352 25.8363971 31.7168352 25.8363971 22.1943933 36.908701 22.1943933 36.908701 20.7180607 13.2873775 20.7180607 13.2873775 22.1943933 24.3596814 22.1943933 24.3596814 31.7168352 10.334329 31.7168352 10.334329 23.9659926 8.85799627 23.9659926 8.85799627 33.1931678 41.3380822 33.1931678 41.3380822 23.9659926 39.8617494 23.9659926"></polygon>
                </g>
            </g>
        </g>
    </g>
</svg>