<?xml version="1.0" encoding="UTF-8"?>
<svg width="47px" height="40px" viewBox="0 0 47 40" version="1.1" xmlns="http://www.w3.org/2000/svg" xmlns:xlink="http://www.w3.org/1999/xlink">
    <!-- Generator: Sketch 54.1 (76490) - https://sketchapp.com -->
    <title>014-cctv</title>
    <desc>Created with Sketch.</desc>
    <g id="Inside" stroke="none" stroke-width="1" fill="none" fill-rule="evenodd">
        <g id="allbc.info_business_center_1140px-_2" transform="translate(-794.000000, -2118.000000)" fill="#3EB060" fill-rule="nonzero">
            <g id="Group-9">
                <g id="014-cctv" transform="translate(794.000000, 2118.000000)">
                    <path d="M46.4373856,12.8492437 L11.842514,0.0984589041 C11.4000244,-0.0642123288 10.9084091,0.16088758 10.7452546,0.601455525 C10.7448959,0.601812237 10.7448959,0.60216895 10.7445374,0.602525662 L6.91488647,10.9731735 C6.7520905,11.4137415 6.97907259,11.9024686 7.42192073,12.0644264 L7.42263794,12.0644264 L11.4326554,13.5291809 L10.5491104,15.9239441 C10.386673,16.364512 10.6136551,16.8525257 11.0565032,17.0144835 L19.0779724,19.9443493 L18.4884644,21.5407392 C17.9527435,22.9705337 18.4526062,24.5801227 19.7062073,25.4594749 L19.7062073,29.7973744 L8.20936589,29.7973744 C7.65284734,28.5316781 6.51399236,27.6127283 5.15389249,27.3323344 L5.15389249,25.5472318 C5.15389249,25.0777682 4.77164462,24.6971319 4.29939275,24.6971319 L0.85449984,24.6971319 C0.382606529,24.6971319 -3.65929509e-13,25.0777682 -3.65929509e-13,25.5472318 L-3.65929509e-13,39.1477597 C-3.65929509e-13,39.6175799 0.382606529,39.9978595 0.85449984,39.9978595 L4.29939275,39.9978595 C4.77164462,39.9978595 5.15389249,39.6175799 5.15389249,39.1477597 L5.15389249,37.3630137 C6.51399236,37.0822631 7.65284734,36.1636701 8.20936589,34.897617 L19.7062073,34.897617 L19.7062073,35.7477169 C19.7062073,37.1561073 20.8536682,38.2980165 22.2693481,38.2980165 C23.6850281,38.2980165 24.8328476,37.1561073 24.8328476,35.7477169 L24.8328476,26.3309789 C25.6095352,25.9478453 26.2094421,25.2832477 26.5084992,24.4734589 L27.0980072,22.877069 L34.3169709,25.5122717 C34.4112777,25.546875 34.5106048,25.5643551 34.6110076,25.5643551 C34.9692306,25.5643551 35.2898026,25.342109 35.4135132,25.0074914 L35.7337265,24.1395548 C38.5141678,24.6600314 41.1920548,22.8396119 41.7148666,20.0738442 C41.9081421,19.051798 41.7826385,17.9955051 41.3552093,17.0465896 L46.5349198,14.4006849 C46.9548187,14.1866438 47.120842,13.6743721 46.905693,13.2566353 C46.8081589,13.0668521 46.6424942,12.9205908 46.4416886,12.8467466 L46.4373856,12.8492437 Z M21.4148483,26.2339469 L22.1223298,26.4890126 C22.4443359,26.6038813 22.7821198,26.6698773 23.123848,26.6845034 L23.123848,29.7973744 L21.4148483,29.7973744 L21.4148483,26.2339469 Z M3.44525146,38.2980165 L1.70899968,38.2980165 L1.70899968,26.3973316 L3.44525146,26.3973316 L3.44525146,38.2980165 Z M6.86289217,33.197774 C6.86145785,34.277968 6.17728426,35.2407963 5.15389249,35.6025257 L5.15389249,29.0928225 C6.17728426,29.4541953 6.86145785,30.4170234 6.86289217,31.4975742 L6.86289217,33.197774 Z M8.59842684,31.4975742 L23.123848,31.4975742 L23.123848,33.197774 L8.59842684,33.197774 L8.59842684,31.4975742 Z M22.2693481,36.5978168 C21.7974548,36.5978168 21.4148483,36.2171804 21.4148483,35.7477169 L21.4148483,34.897617 L23.123848,34.897617 L23.123848,35.7477169 C23.123848,36.2171804 22.7412415,36.5978168 22.2693481,36.5978168 Z M25.4940719,22.2916667 L24.9045639,23.8880565 C24.5789718,24.7684789 23.5975342,25.2201056 22.7118377,24.8969036 L21.1046753,24.3111444 C20.2189788,23.9875856 19.7642975,23.0108447 20.0895309,22.1293521 C20.0895309,22.1293521 20.0895309,22.1293521 20.0895309,22.1289954 L20.6793976,20.5336758 L25.0103455,22.1154395 L25.4940719,22.2916667 Z M34.1043319,23.6262129 L12.4474411,15.7145405 L13.0373078,14.1181507 L25.870224,18.8063642 C26.1739425,18.9162385 26.5145951,18.8473887 26.7509002,18.6276398 L29.148735,16.381992 L35.8714218,18.8384703 L34.1043319,23.6262129 Z M39.8814392,20.3039384 C39.3399811,21.7562072 37.8837814,22.6637415 36.3343506,22.5142694 L37.6546478,18.9362157 L39.8111572,17.8314069 C40.1485824,18.6169378 40.1736832,19.5009275 39.8814392,20.3039384 Z M36.9973678,17.3647974 C36.9521866,17.3687215 36.9073639,17.3765697 36.8632584,17.3883419 L29.2451935,14.605451 C28.9414749,14.4945063 28.6008224,14.5633562 28.3648758,14.7838184 L25.9641724,17.029823 L8.81357577,10.7641268 L12.0530014,1.98915525 L44.0226974,13.7724743 L36.9973678,17.3647974 Z" id="Shape"></path>
                    <polygon id="Path" points="15.8191833 11.5118437 16.4079743 9.9158105 18.0122681 10.5019264 17.4231186 12.0979595"></polygon>
                    <polygon id="Path" points="19.0274124 12.6837186 19.6162033 11.0876855 21.2204972 11.6738014 20.6313477 13.2694777"></polygon>
                    <polygon id="Path" points="22.2356414 13.856307 22.8247909 12.260274 24.4287262 12.8463899 23.8395767 14.4424229"></polygon>
                </g>
            </g>
        </g>
    </g>
</svg>