<?xml version="1.0" encoding="UTF-8"?>
<svg width="28px" height="40px" viewBox="0 0 28 40" version="1.1" xmlns="http://www.w3.org/2000/svg" xmlns:xlink="http://www.w3.org/1999/xlink">
    <!-- Generator: Sketch 54.1 (76490) - https://sketchapp.com -->
    <title>016-cleaning</title>
    <desc>Created with Sketch.</desc>
    <g id="Inside" stroke="none" stroke-width="1" fill="none" fill-rule="evenodd">
        <g id="allbc.info_business_center_1140px-_2" transform="translate(-804.000000, -2255.000000)" fill="#3EB060" fill-rule="nonzero">
            <g id="Group-9">
                <g id="016-cleaning" transform="translate(804.000000, 2255.000000)">
                    <path d="M26.5757494,38.5025503 L22.3054139,38.5025503 L9.72581655,0.460671141 C9.60948546,0.108724832 9.22988814,-0.0823266219 8.87785235,0.0341834452 C8.52590604,0.150514541 8.33503356,0.530111857 8.45127517,0.882058166 L15.4134228,21.9362864 L0.715883669,21.9358389 C0.345145414,21.9358389 0.0447427293,22.2363311 0.0447427293,22.6069799 L0.0447427293,32.8844743 C0.0447427293,33.0850112 0.134496644,33.2750783 0.289306488,33.4025951 C0.410469799,33.5023714 0.561521253,33.5556152 0.715883669,33.5556152 C0.758747204,33.5556152 0.80196868,33.5514989 0.844742729,33.5430872 L1.28644295,33.4566443 L1.96894855,39.4038479 C2.00787472,39.7427293 2.29467562,39.9984787 2.6357047,39.9984787 L13.6757047,39.9984787 C14.0168233,39.9984787 14.3036242,39.7427293 14.3424609,39.4038479 L14.8434899,35.0394631 C14.8473378,35.0387472 14.8512752,35.0384787 14.855123,35.0376734 C16.4626398,34.713736 17.4341834,33.9794183 17.7429083,32.855302 C18.113736,31.5054139 17.4302461,29.6945861 15.7125727,27.4693512 L16.1070246,24.033557 L20.8915436,38.5024609 L16.7582998,38.5024609 C16.3875615,38.5024609 16.0871588,38.802953 16.0871588,39.1736018 C16.0871588,39.5442506 16.3875615,39.8447427 16.7582998,39.8447427 L26.57566,39.8447427 C26.9463982,39.8447427 27.2468009,39.5442506 27.2468009,39.1736018 C27.2468009,38.802953 26.9464877,38.5025503 26.5757494,38.5025503 Z M1.38702461,32.0693512 L1.38702461,23.2785682 L7.10102908,23.2785682 L7.10102908,30.9514094 L1.38702461,32.0693512 Z M13.0771365,38.6561969 L3.23418345,38.6561969 L2.60778523,33.1981208 L7.9009396,32.1625056 C8.21592841,32.1009396 8.44322148,31.824877 8.44322148,31.5038926 L8.44322148,23.2785682 L14.8426846,23.2785682 L14.5247427,26.0477852 C13.4898434,24.8936018 12.6035794,24.0893065 12.5563311,24.0465324 C12.2816107,23.7981208 11.8571812,23.8194183 11.6085011,24.0943177 C11.36,24.369217 11.3812975,24.793557 11.6561074,25.0422371 C12.4761521,25.7840716 13.4542282,26.7960626 14.3162416,27.8634452 L13.0771365,38.6561969 Z M16.4485906,32.5001342 C16.3075615,33.0132438 15.8225503,33.3890828 15.0063535,33.6212081 L15.482774,29.4711409 C16.2199553,30.6329306 16.6591499,31.7343177 16.4485906,32.5001342 Z" id="Shape"></path>
                    <path d="M3.66818792,21.4104698 C4.6449217,21.4104698 5.43964206,20.6158389 5.43964206,19.6391051 C5.43964206,18.6623714 4.6449217,17.8677405 3.66818792,17.8677405 C2.69145414,17.8677405 1.89682327,18.6623714 1.89682327,19.6391051 C1.89682327,20.6158389 2.69145414,21.4104698 3.66818792,21.4104698 Z M3.66818792,19.2099329 C3.90487696,19.2099329 4.09736018,19.4024161 4.09736018,19.6390157 C4.09736018,19.8756152 3.90487696,20.0680984 3.66818792,20.0680984 C3.43158837,20.0680984 3.23910515,19.8756152 3.23910515,19.6390157 C3.23910515,19.4024161 3.43158837,19.2099329 3.66818792,19.2099329 Z" id="Shape"></path>
                    <path d="M9.21628635,19.0838479 C10.5148993,19.0838479 11.5712752,18.0273826 11.5712752,16.7288591 C11.5712752,15.4303356 10.5148098,14.3738702 9.21628635,14.3738702 C7.91776286,14.3738702 6.86138702,15.4303356 6.86138702,16.7288591 C6.86138702,18.0273826 7.91776286,19.0838479 9.21628635,19.0838479 Z M9.21628635,15.7160626 C9.77467562,15.7160626 10.2289933,16.1703803 10.2289933,16.7287696 C10.2289933,17.2871588 9.77467562,17.7414765 9.21628635,17.7414765 C8.65789709,17.7414765 8.2036689,17.2871588 8.2036689,16.7287696 C8.2036689,16.1703803 8.65789709,15.7160626 9.21628635,15.7160626 Z" id="Shape"></path>
                    <path d="M5.29163311,14.9773602 C5.4006264,15.2350783 5.66308725,15.4051007 5.94425056,15.3908725 C6.22442953,15.3766443 6.47131991,15.1834452 6.55328859,14.9154362 C6.73190157,14.3311857 6.06389262,13.8263087 5.54970917,14.1551678 C5.2806264,14.3272483 5.16724832,14.6817002 5.29163311,14.9773602 C5.30872483,15.0176286 5.27472036,14.9370022 5.29163311,14.9773602 Z" id="Path"></path>
                </g>
            </g>
        </g>
    </g>
</svg>