<?xml version="1.0" encoding="UTF-8"?>
<svg width="40px" height="40px" viewBox="0 0 40 40" version="1.1" xmlns="http://www.w3.org/2000/svg" xmlns:xlink="http://www.w3.org/1999/xlink">
    <!-- Generator: Sketch 54.1 (76490) - https://sketchapp.com -->
    <title>006-clock</title>
    <desc>Created with Sketch.</desc>
    <g id="Inside" stroke="none" stroke-width="1" fill="none" fill-rule="evenodd">
        <g id="allbc.info_business_center_1140px-_2" transform="translate(-158.000000, -1707.000000)" fill="#3EB060" fill-rule="nonzero">
            <g id="Group-9">
                <g id="006-clock" transform="translate(158.000000, 1707.000000)">
                    <path d="M38.1369019,24.4940186 C39.1641235,24.4940186 40,23.6581421 40,22.6309204 L40,17.3690796 C40,16.3418579 39.1641235,15.5059814 38.1369019,15.5059814 L36.4450073,15.5059814 C36.0678101,14.1217041 35.5181884,12.7944946 34.8059082,11.5496827 L36.0025024,10.3530884 C36.7288208,9.62677 36.7288208,8.44482422 36.0025024,7.7182007 L32.2814941,3.99749758 C31.9296265,3.64562984 31.461792,3.45184328 30.9643555,3.45184328 C30.4666137,3.45184328 29.9987793,3.64562984 29.6469116,3.99749758 L28.4503173,5.1940918 C27.2055054,4.48181156 25.8782959,3.93218992 24.4940186,3.55499266 L24.4940186,1.86309812 C24.4940186,0.835876484 23.6581421,-3.55271368e-15 22.6309204,-3.55271368e-15 L17.3690796,-3.55271368e-15 C16.3418579,-3.55271368e-15 15.5059814,0.835876484 15.5059814,1.86309812 L15.5059814,3.55499266 C14.1217041,3.93218992 12.7944946,4.48181156 11.5496827,5.19378664 L10.3530884,3.99749758 C10.0012207,3.64562984 9.53338625,3.45184328 9.03564453,3.45184328 C8.53820797,3.45184328 8.07037352,3.64532469 7.71850586,3.99749758 L3.99749758,7.7182007 C3.27087406,8.44482422 3.27087406,9.62677 3.99749758,10.3530884 L5.19378664,11.5496827 C4.48181156,12.7944946 3.93218992,14.1217041 3.55499266,15.5059814 L1.86309812,15.5059814 C0.835876484,15.5059814 -3.55271368e-15,16.3415527 -3.55271368e-15,17.3690796 L-3.55271368e-15,22.6309204 C-3.55271368e-15,23.6581421 0.835876484,24.4940186 1.86309812,24.4940186 L3.55499266,24.4940186 C3.93218992,25.8782959 4.48181156,27.2055054 5.19378664,28.4503173 L3.99749758,29.6469116 C3.27087406,30.37323 3.27087406,31.5551758 3.99749758,32.2814941 L7.7182007,36.0025024 C8.07006836,36.3543702 8.53790281,36.5481567 9.03564453,36.5481567 C9.53338625,36.5481567 10.0012207,36.3543702 10.3530884,36.0025024 L11.5493774,34.8059082 C12.7944946,35.5181884 14.1217041,36.0678101 15.5059814,36.4450073 L15.5059814,38.1369019 C15.5059814,39.1641235 16.3415527,40 17.3687744,40 L22.6309204,40 C23.6581421,40 24.4940186,39.1641235 24.4940186,38.1369019 L24.4940186,36.4450073 C25.8782959,36.0678101 27.2052002,35.5181884 28.4503173,34.8059082 C28.4503173,34.8059082 29.6463013,36.0015869 29.6469116,36.0025024 C30.3652954,36.7208863 31.5640259,36.7199707 32.2814941,36.0025024 L36.0025024,32.2814941 C36.7288208,31.5551758 36.7288208,30.37323 36.0025024,29.6469116 L34.8059082,28.4503173 C35.5181884,27.2055054 36.0678101,25.8782959 36.4450073,24.4940186 L38.1369019,24.4940186 Z M35.421753,23.7695313 C35.0372314,25.3479004 34.4143677,26.8518066 33.5702515,28.2391358 C33.4295655,28.4701538 33.465271,28.7670898 33.656311,28.9581298 L35.1739502,30.4757691 C35.4434204,30.7449341 35.4434204,31.1837769 35.1739502,31.453247 C35.1739502,31.453247 31.4620972,35.1651001 31.4529419,35.1739502 C31.194458,35.4324341 30.7455445,35.4440308 30.4754639,35.1739502 L28.9581298,33.6566163 C28.7670898,33.465271 28.4698486,33.4298706 28.2391358,33.5702515 C26.8518066,34.4143677 25.3479004,35.0375366 23.7695313,35.421753 C23.5070801,35.4858398 23.3221436,35.7211304 23.3221436,35.9912109 L23.3221436,38.1369019 C23.3221436,38.5180664 23.012085,38.828125 22.6309204,38.828125 L17.3690796,38.828125 C16.987915,38.828125 16.6778564,38.5180664 16.6778564,38.1369019 L16.6778564,35.9912109 C16.6778564,35.7211304 16.4929199,35.4858398 16.2304688,35.421753 C14.6520996,35.0375366 13.1481934,34.4143677 11.7608642,33.5702515 C11.5316773,33.4307861 11.2316895,33.467102 11.0418702,33.6566163 C11.0418702,33.6566163 9.52941891,35.1690673 9.52453609,35.1739502 C9.25720219,35.4412842 8.81317141,35.4400634 8.54705813,35.1739502 L4.82604984,31.453247 C4.55657961,31.1837769 4.55657961,30.7452392 4.82604984,30.4757691 L6.34368898,28.9581298 C6.53472898,28.7670898 6.57043453,28.4701538 6.42974852,28.2391358 C5.58563234,26.8518066 4.96276859,25.3479004 4.57824703,23.7695313 C4.51416016,23.5070801 4.27917484,23.3221436 4.00878906,23.3221436 L1.86309813,23.3221436 C1.48193359,23.3221436 1.171875,23.012085 1.171875,22.6312256 L1.171875,17.3690796 C1.171875,16.987915 1.48193359,16.6778564 1.86309813,16.6778564 L4.00878906,16.6778564 C4.27886961,16.6778564 4.51416016,16.4932251 4.57824703,16.2307739 C4.96246336,14.6520996 5.58563234,13.1481934 6.42974852,11.7608642 C6.57012938,11.5301514 6.53472898,11.2332153 6.34338375,11.0421753 L4.82604984,9.52453609 C4.55657961,9.25506594 4.55657961,8.81652828 4.82604984,8.54705813 C4.82604984,8.54705813 8.54248047,4.83062742 8.54675297,4.826355 C8.81378172,4.55932617 9.25720219,4.55932617 9.52423094,4.826355 L11.0418702,6.34368898 C11.2329102,6.53472898 11.5301514,6.57043453 11.7608642,6.43005375 C13.1481934,5.58563234 14.6520996,4.96276859 16.2304688,4.57824703 C16.4929199,4.51446531 16.6778564,4.27917484 16.6778564,4.00909422 L16.6778564,1.86309813 C16.6778564,1.48193359 16.987915,1.171875 17.3687744,1.171875 L22.6309204,1.171875 C23.012085,1.171875 23.3221436,1.48193359 23.3221436,1.86309813 L23.3221436,4.00878906 C23.3221436,4.27917484 23.5067749,4.51416016 23.7692261,4.57824703 C25.3479004,4.96246336 26.8518066,5.58563234 28.2391358,6.42974852 C28.4701538,6.57043453 28.7670898,6.53472898 28.9578247,6.34338375 C28.9578247,6.34338375 30.4742431,4.82727047 30.4754639,4.82604984 C30.7424927,4.55902102 31.1856079,4.55871578 31.4529419,4.82604984 L35.1739502,8.54675297 C35.4434204,8.81622313 35.4434204,9.25476078 35.1739502,9.52423094 L33.656311,11.0418702 C33.465271,11.2329102 33.4295655,11.5298462 33.5699463,11.7605591 C34.4143677,13.1481934 35.0372314,14.6517945 35.421753,16.2304688 C35.4855347,16.4929199 35.7208252,16.6775513 35.9909058,16.6775513 L38.1369019,16.6775513 C38.5177613,16.6775513 38.828125,16.9876098 38.828125,17.3687744 L38.828125,22.6309204 C38.828125,23.012085 38.5180664,23.3221436 38.1369019,23.3221436 L35.9909058,23.3221436 C35.7208252,23.3221436 35.4858398,23.5070801 35.421753,23.7695313 L35.421753,23.7695313 Z" id="Shape"></path>
                    <path d="M29.4851684,10.3897095 C27.0440673,7.98004148 23.6929321,6.49017336 20,6.49017336 C16.3070679,6.49017336 12.9559327,7.98004148 10.5148316,10.3897095 C10.4910278,10.4071045 10.4071045,10.491333 10.3897095,10.5148316 C7.98004148,12.9559327 6.49017336,16.3070679 6.49017336,20 C6.49017336,23.6929321 7.98004148,27.0440673 10.3897095,29.4851684 C10.4071045,29.508667 10.4257202,29.5315552 10.4470825,29.5529175 C10.4684448,29.5742798 10.491333,29.5928955 10.5148316,29.6102905 C12.9559327,32.0199585 16.3070679,33.5098266 20,33.5098266 C23.6929321,33.5098266 27.0440673,32.0199585 29.4851684,29.6102905 C29.508667,29.5928955 29.5928955,29.508667 29.6102905,29.4851684 C32.0199585,27.0437622 33.5101319,23.6929321 33.5101319,20 C33.5101319,16.3070679 32.0199585,12.9559327 29.6102905,10.5148316 C29.5928955,10.491333 29.508667,10.4071045 29.4851684,10.3897095 Z M30.078125,20.5859375 L32.3236084,20.5859375 C32.1847534,23.5470581 30.9973145,26.2384033 29.1247559,28.2962036 L27.5405884,26.7120361 C27.3117066,26.4831543 26.9406128,26.4831543 26.7120361,26.7120361 C26.4831543,26.940918 26.4831543,27.3120117 26.7120361,27.5405884 L28.2962036,29.1247559 C26.2384033,30.9973145 23.5470581,32.1847534 20.5859375,32.3236084 L20.5859375,30.078125 C20.5859375,29.7546387 20.3234863,29.4921875 20,29.4921875 C19.6765137,29.4921875 19.4140625,29.7546387 19.4140625,30.078125 L19.4140625,32.3239136 C16.4529419,32.1847534 13.7615967,30.9973145 11.7037964,29.1247559 L13.2879639,27.5405884 C13.5168457,27.3117066 13.5168457,26.940918 13.2879639,26.7120361 C13.0593872,26.4831543 12.6882934,26.4831543 12.4594116,26.7120361 L10.8752441,28.2962036 C9.00268555,26.2384033 7.81524656,23.5470581 7.67639156,20.5859375 L9.921875,20.5859375 C10.2453613,20.5859375 10.5078125,20.3234863 10.5078125,20 C10.5078125,19.6765137 10.2453613,19.4140625 9.921875,19.4140625 L7.67608641,19.4140625 C7.81524656,16.4529419 9.00268555,13.7615967 10.8752441,11.7037964 C10.8752441,11.7037964 12.4588012,13.2873535 12.4594116,13.2879639 C12.6852417,13.5137939 13.0621337,13.5137939 13.2879639,13.2879639 C13.5168457,13.059082 13.5168457,12.6879883 13.2879639,12.4594116 L11.7037964,10.8752441 C13.7615967,9.00268555 16.4529419,7.81524656 19.4140625,7.67608641 L19.4140625,9.921875 C19.4140625,10.2453613 19.6762085,10.5078125 20,10.5078125 C20.3234863,10.5078125 20.5859375,10.2453613 20.5859375,9.921875 L20.5859375,7.67608641 C23.546753,7.81524656 26.2384033,9.00268555 28.2958984,10.8752441 L26.7117309,12.4594116 C26.4831543,12.6879883 26.4831543,13.059082 26.7117309,13.2879639 C26.9348145,13.5107422 27.3129273,13.5153198 27.5405884,13.2879639 L29.1247559,11.7037964 C30.9973145,13.7615967 32.1844483,16.4529419 32.3236084,19.4140625 L30.078125,19.4140625 C29.7546387,19.4140625 29.4921875,19.6762085 29.4921875,20 C29.4921875,20.3234863 29.7546387,20.5859375 30.078125,20.5859375 Z" id="Shape"></path>
                    <path d="M27.5701905,19.1772461 L26.2771606,18.2498169 C26.1032105,18.125 25.8996582,18.059082 25.6884766,18.059082 C25.1293945,18.059082 24.6743774,18.5137939 24.6743774,19.0725708 L24.6743774,19.4140625 L21.7807007,19.4140625 C21.5948486,18.850708 21.149292,18.4051514 20.5859375,18.2192993 L20.5859375,15.3256226 L20.9274292,15.3256226 C21.3088989,15.3256226 21.6540527,15.1147461 21.8283081,14.7753906 C22.0025634,14.4360352 21.9726562,14.032898 21.7501831,13.7228394 L20.8224487,12.4298095 C20.6329345,12.1655273 20.3253173,12.0074462 20,12.0074462 C19.6743774,12.0074462 19.3670655,12.1655273 19.1772461,12.4298095 L18.2495117,13.7228394 C18.0273437,14.032898 17.9974366,14.4360352 18.1716919,14.7753906 C18.3456421,15.1147461 18.6907959,15.3256226 19.0722656,15.3256226 L19.4137573,15.3256226 L19.4137573,18.2192993 C18.6663819,18.4658813 18.125,19.1708374 18.125,20 C18.125,21.0339355 18.9660645,21.875 20,21.875 C20.8291626,21.875 21.5341187,21.3336181 21.7807007,20.5859375 L24.6743774,20.5859375 L24.6743774,20.9274292 C24.6743774,21.4862061 25.1293945,21.940918 25.6884766,21.940918 C25.8996582,21.940918 26.1032105,21.8746948 26.2771606,21.7501831 L27.5698852,20.8227539 C27.8344727,20.6329345 27.9922485,20.3253173 27.9922485,20 C27.9922485,19.6746827 27.8344727,19.3670655 27.5701905,19.1772461 Z M20,13.293457 L20.6170655,14.1537476 L19.3829345,14.1537476 L20,13.293457 Z M20,20.703125 C19.6124267,20.703125 19.296875,20.3875733 19.296875,20 C19.296875,19.6124267 19.6121216,19.2971802 19.9996948,19.296875 L20,19.296875 L20.0003052,19.296875 C20.3875733,19.2971802 20.7025147,19.6118164 20.703125,19.9990845 L20.703125,20 L20.703125,20.0009155 C20.7025147,20.3881836 20.3875733,20.703125 20,20.703125 Z M25.8462524,20.6170655 L25.8462524,19.3829345 L26.706543,20 L25.8462524,20.6170655 Z" id="Shape"></path>
                </g>
            </g>
        </g>
    </g>
</svg>