<?xml version="1.0" encoding="UTF-8"?>
<svg width="34px" height="40px" viewBox="0 0 34 40" version="1.1" xmlns="http://www.w3.org/2000/svg" xmlns:xlink="http://www.w3.org/1999/xlink">
    <!-- Generator: Sketch 54.1 (76490) - https://sketchapp.com -->
    <title>017-coffee</title>
    <desc>Created with Sketch.</desc>
    <g id="Inside" stroke="none" stroke-width="1" fill="none" fill-rule="evenodd">
        <g id="allbc.info_business_center_1140px-_2" transform="translate(-161.000000, -2392.000000)" fill="#3EB060" fill-rule="nonzero">
            <g id="Group-9">
                <g id="017-coffee" transform="translate(161.000000, 2392.000000)">
                    <path d="M31.9400024,4.68261719 L30.6146241,4.68261719 L29.1091919,1.13128664 C28.8177491,0.444030781 28.1472778,0 27.4008179,0 L6.11480711,0 C5.36834719,0 4.69787594,0.444030781 4.40643312,1.13128664 L2.90100094,4.68261719 L1.57562258,4.68261719 C0.728149375,4.68261719 0.0390625,5.3720093 0.0390625,6.21917727 L0.0390625,9.71343992 C0.0390625,10.5609131 0.728149375,11.25 1.57562258,11.25 L2.56896969,11.25 L6.30737305,38.397522 C6.43310547,39.3109131 7.22351078,40 8.14575195,40 L25.369873,40 C26.2921142,40 27.0825195,39.3112183 27.208252,38.397522 L30.9466553,11.25 L31.9400024,11.25 C32.7874756,11.25 33.4765625,10.5609131 33.4765625,9.71343992 L33.4765625,6.21917727 C33.4765625,5.3720093 32.7874756,4.68261719 31.9400024,4.68261719 Z M25.6604004,38.1842041 C25.640564,38.3285523 25.515747,38.4375 25.369873,38.4375 L8.14575195,38.4375 C7.99987797,38.4375 7.87506102,38.3285523 7.85522461,38.1842041 L4.14611812,11.25 L29.3695069,11.25 L25.6604004,38.1842041 Z M31.9140625,9.6875 L1.6015625,9.6875 L1.6015625,6.24511719 L3.41369625,6.24511719 L3.42163086,6.24511719 L19.1595459,6.24511719 C19.5910645,6.24511719 19.9407959,5.89538578 19.9407959,5.46386719 C19.9407959,5.03234859 19.5910645,4.68261719 19.1595459,4.68261719 L4.59808352,4.68261719 L5.84503172,1.74133297 C5.89080812,1.63269047 5.9970093,1.5625 6.11480711,1.5625 L27.4008179,1.5625 C27.5186157,1.5625 27.6245117,1.63269047 27.6705933,1.74133297 L28.9175415,4.68261719 L25.4095459,4.68261719 C24.9780273,4.68261719 24.6282959,5.03234859 24.6282959,5.46386719 C24.6282959,5.89538578 24.9780273,6.24511719 25.4095459,6.24511719 L30.0949097,6.24511719 C30.0958252,6.24511719 30.0964355,6.24542234 30.0973511,6.24542234 C30.0985718,6.24542234 30.1000977,6.24511719 30.1013184,6.24511719 L31.9140625,6.24511719 L31.9140625,9.6875 Z" id="Shape"></path>
                    <path d="M8.3203125,24.3606567 C8.3203125,29.0130616 12.1054077,32.7981567 16.7578125,32.7981567 C21.4102173,32.7981567 25.1953125,29.0130616 25.1953125,24.3606567 C25.1953125,19.708252 21.4102173,15.9231567 16.7578125,15.9231567 C12.1054077,15.9231567 8.3203125,19.708252 8.3203125,24.3606567 Z M16.7578125,17.4856567 C20.5487061,17.4856567 23.6328125,20.5697632 23.6328125,24.3606567 C23.6328125,28.1515503 20.5487061,31.2356567 16.7578125,31.2356567 C12.9669189,31.2356567 9.8828125,28.1515503 9.8828125,24.3606567 C9.8828125,20.5697632 12.9669189,17.4856567 16.7578125,17.4856567 Z" id="Shape"></path>
                    <path d="M13.0014038,28.1170655 C14.0048218,29.1204834 15.3387452,29.6731567 16.7578125,29.6731567 C18.1768798,29.6731567 19.5108032,29.1204834 20.5142212,28.1170655 C21.5176391,27.1136475 22.0703125,25.7797241 22.0703125,24.3606567 C22.0703125,22.9415894 21.5176391,21.6073609 20.5142212,20.604248 C19.5108032,19.6008301 18.1768798,19.0481567 16.7578125,19.0481567 C15.3387452,19.0481567 14.0048218,19.6008301 13.0014038,20.604248 C11.9979859,21.6073609 11.4453125,22.9415894 11.4453125,24.3606567 C11.4453125,25.7797241 11.9979859,27.1136475 13.0014038,28.1170655 L13.0014038,28.1170655 Z M19.4094848,27.0123291 C18.7011719,27.7206421 17.7593994,28.1106567 16.7578125,28.1106567 C15.9048462,28.1106567 15.0961304,27.8268433 14.4372559,27.305603 C14.5211792,26.0983277 15.52948,25.1419067 16.7578125,25.1419067 C18.2839966,25.1419067 19.6072387,24.2578125 20.2435303,22.9751587 C20.4165649,23.4103394 20.5078125,23.878479 20.5078125,24.3606567 C20.5078125,25.3622437 20.1177978,26.3040161 19.4094848,27.0123291 L19.4094848,27.0123291 Z M14.1061402,21.7089844 C14.8144531,21.0006714 15.7562256,20.6106567 16.7578125,20.6106567 C17.6107788,20.6106567 18.4194946,20.894165 19.0783691,21.4157105 C18.9944458,22.6226806 17.986145,23.5794067 16.7578125,23.5794067 C15.2316284,23.5794067 13.9083862,24.4635009 13.2720947,25.7461548 C13.0990601,25.3109741 13.0078125,24.8428345 13.0078125,24.3606567 C13.0078125,23.3590698 13.3978272,22.4172973 14.1061402,21.7089844 Z" id="Shape"></path>
                    <path d="M22.2842407,4.68292234 C22.0788574,4.68292234 21.8774414,4.76654055 21.7321777,4.91180422 C21.5866089,5.05706789 21.5029907,5.25787352 21.5029907,5.46417234 C21.5029907,5.66955563 21.5866089,5.87097172 21.7321777,6.01654055 C21.8774414,6.16180422 22.0788574,6.24542234 22.2842407,6.24542234 C22.4899292,6.24542234 22.6913452,6.16180422 22.8366089,6.01654055 C22.9827881,5.87097172 23.0654907,5.66955563 23.0654907,5.46417234 C23.0654907,5.25848391 22.9827881,5.05706789 22.8366089,4.91180422 C22.6913452,4.76654055 22.4905395,4.68292234 22.2842407,4.68292234 Z" id="Path"></path>
                </g>
            </g>
        </g>
    </g>
</svg>