<?xml version="1.0" encoding="UTF-8"?>
<svg width="34px" height="40px" viewBox="0 0 34 40" version="1.1" xmlns="http://www.w3.org/2000/svg" xmlns:xlink="http://www.w3.org/1999/xlink">
    <!-- Generator: Sketch 54.1 (76490) - https://sketchapp.com -->
    <title>009-energy</title>
    <desc>Created with Sketch.</desc>
    <g id="Inside" stroke="none" stroke-width="1" fill="none" fill-rule="evenodd">
        <g id="allbc.info_business_center_1140px-_2" transform="translate(-800.000000, -1844.000000)" fill="#3EB060" fill-rule="nonzero">
            <g id="Group-9">
                <g id="009-energy" transform="translate(800.000000, 1844.000000)">
                    <path d="M3.25969393,12.000122 L12.7889908,12.000122 C14.5667288,11.998291 16.0078663,10.5545044 16.0096939,8.77349852 L16.0096939,3.22662352 C16.0078663,1.4453125 14.5670334,0.00183105469 12.7889908,-1.48325796e-13 L3.25969393,-1.48325796e-13 C1.48165138,0.00183105469 0.0408185596,1.4453125 0.0389908257,3.22662352 L0.0389908257,8.77319336 C0.0408185596,10.5545044 1.48165138,11.998291 3.25969393,12.000122 Z M1.36985735,3.22662352 C1.37107581,2.18139648 2.21638475,1.33453367 3.25969393,1.33331297 L12.7889908,1.33331297 C13.8319954,1.33453367 14.6776089,2.18139648 14.6788274,3.22662352 L14.6788274,8.77319336 C14.6776089,9.81842039 13.8319954,10.6655884 12.7889908,10.6665039 L3.25969393,10.6665039 C2.21638475,10.6655884 1.37077122,9.81842039 1.36985735,8.77319336 L1.36985735,3.22662352 Z" id="Shape"></path>
                    <path d="M9.35505664,9.33349609 L12.0170943,9.33349609 C12.384461,9.33349609 12.6823752,9.03503422 12.6823752,8.66668703 L12.6823752,3.33343508 C12.6823752,2.96508789 12.384461,2.66662594 12.0170943,2.66662594 L9.35505664,2.66662594 C8.98768992,2.66662594 8.68977568,2.96508789 8.68977568,3.33343508 L8.68977568,8.66668703 C8.68977568,9.03472898 8.98768992,9.33349609 9.35505664,9.33349609 Z M10.0206422,3.99993898 L11.3515087,3.99993898 L11.3515087,7.99987797 L10.0206422,7.99987797 L10.0206422,3.99993898 Z" id="Shape"></path>
                    <path d="M4.03159047,9.33349609 L6.69332352,9.33349609 C7.06099484,9.33349609 7.35890916,9.03503422 7.35890916,8.66668703 L7.35890916,3.33343508 C7.35890916,2.96508789 7.06099484,2.66662594 6.69332352,2.66662594 L4.03159047,2.66662594 C3.66422375,2.66662594 3.36630951,2.96508789 3.36630951,3.33343508 L3.36630951,8.66668703 C3.36630951,9.03472898 3.66422375,9.33349609 4.03159047,9.33349609 Z M4.69717603,3.99993898 L6.02804256,3.99993898 L6.02804256,7.99987797 L4.69717603,7.99987797 L4.69717603,3.99993898 Z" id="Shape"></path>
                    <path d="M33.3112636,11.333313 L31.3148115,11.333313 L31.3148115,5.33325195 C31.3148115,4.96521 31.0168972,4.66674805 30.6495305,4.66674805 L27.9874929,4.66674805 C27.6201261,4.66674805 27.3222119,4.96521 27.3222119,5.33325195 L27.3222119,11.333313 L24.6604788,11.333313 L24.6604788,5.33325195 C24.6604788,4.96521 24.3625645,4.66674805 23.9948932,4.66674805 L21.3331601,4.66674805 C20.9657935,4.66674805 20.6678791,4.96521 20.6678791,5.33325195 L20.6678791,11.333313 L18.6714271,11.333313 C18.3040603,11.333313 18.0061461,11.6317749 18.0061461,12.000122 L18.0061461,16.000061 C18.0061461,16.368103 18.3040603,16.6665649 18.6714271,16.6665649 L19.3370126,16.6665649 L19.3370126,19.2858887 C19.3315296,22.3809814 20.5241005,25.3573609 22.6640266,27.5894165 L22.6640266,31.333313 C22.6640266,31.7016602 22.9619409,32.000122 23.3296123,32.000122 L23.9948932,32.000122 L23.9948932,39.3331909 C23.9948932,39.7015381 24.2928075,40 24.6604788,40 L27.3222119,40 C27.6898832,40 27.9874929,39.7015381 27.9874929,39.3331909 L27.9874929,32.000122 L28.6530784,32.000122 C29.0207498,32.000122 29.318664,31.7016602 29.318664,31.333313 L29.318664,27.5894165 C31.4582856,25.3570556 32.6511611,22.3809814 32.645678,19.2858887 L32.645678,16.6665649 L33.3112636,16.6665649 C33.6786303,16.6665649 33.9765446,16.368103 33.9765446,16.000061 L33.9765446,12.000122 C33.9765446,11.6317749 33.6786303,11.333313 33.3112636,11.333313 L33.3112636,11.333313 Z M28.6530784,6.00006102 L29.983945,6.00006102 L29.983945,11.333313 L28.6530784,11.333313 L28.6530784,6.00006102 Z M21.9987457,6.00006102 L23.3296123,6.00006102 L23.3296123,11.333313 L21.9987457,11.333313 L21.9987457,6.00006102 Z M26.6566263,38.666687 L25.3257597,38.666687 L25.3257597,32.000122 L26.6566263,32.000122 L26.6566263,38.666687 Z M27.9874929,30.6665039 L23.9948932,30.6665039 L23.9948932,27.999878 L27.9874929,27.999878 L27.9874929,30.6665039 Z M31.3148115,19.2858887 C31.3224269,22.034607 30.2681515,24.6795655 28.3728319,26.6665649 L23.6095541,26.6665649 C21.7142345,24.6795655 20.6599592,22.034607 20.6678791,19.2858887 L20.6678348,16.6665649 L31.3148524,16.6665649 L31.3148115,19.2858887 Z M32.645678,15.333252 L19.336708,15.333252 L19.336708,12.6666259 L32.645678,12.6666259 L32.645678,15.333252 Z" id="Shape"></path>
                    <path d="M16.6749749,24.666748 L8.99317304,24.666748 L11.972925,16.906128 C12.1051283,16.5625 11.9342388,16.1764527 11.5912414,16.0443116 C11.3314041,15.9439087 11.036536,16.0162353 10.852548,16.2258911 L0.870896665,27.5592041 C0.627813197,27.8356934 0.654314794,28.2568359 0.930296771,28.5003663 C1.05153383,28.6074829 1.20780173,28.666687 1.36985735,28.666687 L9.07633314,28.666687 L6.06642419,37.109375 C5.94244553,37.4560547 6.1224735,37.8375244 6.46851708,37.9617309 C6.73170515,38.0563355 7.0256594,37.9757691 7.20446891,37.7606202 L17.1861203,25.7608032 C17.4215883,25.4782105 17.3838159,25.0576782 17.1020463,24.8217773 C16.9820276,24.7213745 16.8309382,24.666748 16.6749749,24.666748 Z M8.57920011,34.0240478 L10.6475415,28.223877 C10.770911,27.8771973 10.5902738,27.4957275 10.2442303,27.3721313 C10.1726455,27.3464966 10.0967961,27.3333741 10.0206422,27.3333741 L2.84450254,27.3333741 L9.40166284,19.8880005 L7.40551536,25.0939941 C7.27361672,25.437622 7.44450618,25.8233642 7.78750356,25.9555054 C7.86304829,25.9848023 7.94346687,25.9997559 8.02419012,26.000061 L15.2542467,26.000061 L8.57920011,34.0240478 Z" id="Shape"></path>
                </g>
            </g>
        </g>
    </g>
</svg>