<?xml version="1.0" encoding="UTF-8"?>
<svg width="46px" height="46px" viewBox="0 0 46 46" version="1.1" xmlns="http://www.w3.org/2000/svg" xmlns:xlink="http://www.w3.org/1999/xlink">
    <!-- Generator: Sketch 54.1 (76490) - https://sketchapp.com -->
    <title>Group 7</title>
    <desc>Created with Sketch.</desc>
    <g id="Inside" stroke="none" stroke-width="1" fill="none" fill-rule="evenodd">
        <g id="allbc.info_business_center_1140px-_2" transform="translate(-1086.000000, -679.000000)" fill-rule="nonzero">
            <g id="Group-7" transform="translate(1086.000000, 679.000000)">
                <g id="001-facebook-copy-2" fill="#848484">
                    <circle id="Oval" cx="22.836354" cy="22.836354" r="22.836354"></circle>
                </g>
                <path d="M32.4872541,19.0846878 L32.4872541,16.7709153 L23.2872541,22.5278015 L14.0872541,16.7709153 L14.0872541,19.0846878 L23.2872541,24.7864842 L32.4872541,19.0846878 Z M32.4872541,14.4571429 C33.1116085,14.4571429 33.6441381,14.6866815 34.0848589,15.1457656 C34.5255796,15.6048497 34.7459367,16.1465609 34.7459367,16.7709153 L34.7459367,30.5433704 C34.7459367,31.1677248 34.5255796,31.709436 34.0848589,32.1685201 C33.6441381,32.6276042 33.1116085,32.8571429 32.4872541,32.8571429 L14.0872541,32.8571429 C13.4628996,32.8571429 12.93037,32.6276042 12.4896493,32.1685201 C12.0489285,31.709436 11.8285714,31.1677248 11.8285714,30.5433704 L11.8285714,16.7709153 C11.8285714,16.1465609 12.0489285,15.6048497 12.4896493,15.1457656 C12.93037,14.6866815 13.4628996,14.4571429 14.0872541,14.4571429 L32.4872541,14.4571429 Z" id="î¤" fill="#FFFFFF"></path>
            </g>
        </g>
    </g>
</svg>