<?xml version="1.0" encoding="UTF-8"?>
<svg width="52px" height="40px" viewBox="0 0 52 40" version="1.1" xmlns="http://www.w3.org/2000/svg" xmlns:xlink="http://www.w3.org/1999/xlink">
    <!-- Generator: Sketch 54.1 (76490) - https://sketchapp.com -->
    <title>015-firewall</title>
    <desc>Created with Sketch.</desc>
    <g id="Inside" stroke="none" stroke-width="1" fill="none" fill-rule="evenodd">
        <g id="allbc.info_business_center_1140px-_2" transform="translate(-152.000000, -2255.000000)" fill="#3EB060" fill-rule="nonzero">
            <g id="Group-9">
                <g id="015-firewall" transform="translate(152.000000, 2255.000000)">
                    <path d="M48.5278,15.3174 C48.9299,14.0321 49.6506,12.8591 50.6117,11.9252 C51.1064,11.4443 51.3065,10.7547 51.147,10.0805 C50.9889,9.4122 50.5073,8.8894 49.8576,8.6803 C49.8472,8.6765 49.8369,8.673 49.8264,8.6698 C47.662,7.991 45.3974,8.0882 43.3344,8.9295 C43.3849,6.8489 43.9811,4.8253 45.0692,3.0601 C45.4305,2.4739 45.4584,1.7576 45.1436,1.1439 C44.8262,0.5248 44.2221,0.1257 43.5277,0.0765 C43.2138,0.0543 42.8948,0.043 42.5795,0.043 C39.8181,0.043 37.1715,0.884 34.9258,2.475 C34.6867,2.6444 34.4545,2.8212 34.2286,3.0044 L2.75,3.0044 C1.2337,3.0044 3.80140364e-13,4.238 3.80140364e-13,5.7544 L3.80140364e-13,17.2927 C3.80140364e-13,17.7069 0.3357,18.0427 0.75,18.0427 C1.1643,18.0427 1.5,17.7069 1.5,17.2927 L1.5,15.7163 L19.6687,15.7163 L19.6687,25.4282 L1.5,25.4282 L1.5,20.7449 C1.5,20.3307 1.1643,19.9949 0.75,19.9949 C0.3357,19.9949 3.80140364e-13,20.3307 3.80140364e-13,20.7449 L3.80140364e-13,35.39 C3.80140364e-13,36.9064 1.2337,38.14 2.75,38.14 L16.8806,38.14 C17.2949,38.14 17.6306,37.8042 17.6306,37.39 C17.6306,36.9758 17.2949,36.64 16.8806,36.64 L11.2862,36.64 L11.2862,26.9281 L23.885,26.9281 C23.9415,30.3749 25.3012,33.6072 27.7297,36.0512 C27.9324,36.2552 28.1411,36.4509 28.3545,36.6399 L20.333,36.6399 C19.9187,36.6399 19.583,36.9757 19.583,37.3899 C19.583,37.8041 19.9187,38.1399 20.333,38.1399 L30.3013,38.1399 C30.3363,38.1399 30.3704,38.1367 30.4041,38.1321 C32.3964,39.3077 34.6744,39.9428 37.0524,39.9575 C37.0806,39.9576 37.1087,39.9577 37.137,39.9577 C40.6622,39.9577 43.9769,38.5914 46.4789,36.1049 C49.0011,33.5983 50.39,30.2596 50.39,26.7039 C50.39,24.2174 49.6907,21.7954 48.3935,19.708 C48.0329,18.263 48.0791,16.7455 48.5278,15.3174 Z M49.3563,10.0944 C49.3709,10.0997 49.3854,10.1044 49.4005,10.109 C49.6076,10.177 49.67,10.3529 49.6873,10.4258 C49.705,10.5007 49.7286,10.6917 49.5663,10.8495 C48.4268,11.9567 47.5727,13.3468 47.0965,14.8685 C46.8354,15.6995 46.6902,16.5565 46.6599,17.4166 C46.6461,17.4019 46.6328,17.3867 46.6188,17.3722 C44.8068,15.492 43.6909,13.1042 43.404,10.5415 C45.267,9.6357 47.3617,9.4744 49.3563,10.0944 Z M23.7348,11.203 C24.5996,12.0432 25.2695,13.0788 25.689,14.2163 L11.2861,14.2163 L11.2861,4.5044 L29.5511,4.5044 L29.5511,7.7523 C27.8963,7.3734 26.1582,7.4343 24.5226,7.9473 L24.4977,7.9552 C23.8436,8.1621 23.3581,8.6865 23.1993,9.3579 C23.0397,10.0323 23.2398,10.7221 23.7348,11.203 Z M31.0512,6.7509 L31.0512,4.5043 L32.6601,4.5043 C32.0468,5.1949 31.5075,5.9467 31.0512,6.7509 Z M1.5,5.7544 C1.5,5.0651 2.0607,4.5044 2.75,4.5044 L9.7861,4.5044 L9.7861,14.2163 L1.5,14.2163 L1.5,5.7544 Z M9.7861,36.64 L2.75,36.64 C2.0607,36.64 1.5,36.0793 1.5,35.39 L1.5,26.9281 L9.7861,26.9281 L9.7861,36.64 Z M37.1365,38.4579 C37.1117,38.4579 37.0864,38.4578 37.0616,38.4577 C35.0888,38.4455 33.1938,37.9525 31.5114,37.036 C31.171,36.2566 30.9829,35.4313 30.9555,34.5781 C30.9189,33.4326 31.1709,32.2939 31.6881,31.2779 C31.6967,31.2607 31.704,31.2447 31.7109,31.2293 C32.4113,29.813 32.5367,28.2053 32.0637,26.7003 C31.7665,25.7521 31.2374,24.8835 30.5309,24.1909 C31.5583,23.8778 32.6666,23.9347 33.656,24.3522 C33.8446,24.4316 34.0576,24.4308 34.2454,24.3495 C34.4333,24.2682 34.5798,24.1137 34.6509,23.9218 C35.6322,21.274 38.189,19.495 41.0132,19.495 C41.1663,19.495 41.3199,19.5002 41.472,19.5106 C40.681,20.8056 40.2632,22.2947 40.2632,23.8202 C40.2632,25.9741 41.0866,28.0147 42.5793,29.5637 C42.6694,29.6581 42.7471,29.7534 42.8166,29.855 C42.8324,29.8781 42.8495,29.9003 42.8679,29.9215 C43.9313,31.1528 44.5169,32.7272 44.5169,34.3545 C44.5169,34.9192 44.4479,35.4768 44.3117,36.0155 C42.2639,37.6004 39.7665,38.458 37.1365,38.4579 Z M46.0159,34.4056 C46.016,34.3885 46.0168,34.3715 46.0168,34.3545 C46.0168,32.3809 45.3112,30.4709 44.0294,28.9718 C43.9212,28.8177 43.7982,28.6684 43.6617,28.5254 C42.4374,27.2548 41.7631,25.5838 41.7631,23.8202 C41.7631,22.5588 42.1115,21.3284 42.7713,20.2611 C43.044,19.8187 43.0651,19.2777 42.8279,18.8139 C42.5923,18.3532 42.1446,18.0556 41.6324,18.0182 C41.4288,18.0028 41.2204,17.995 41.0131,17.995 C37.8118,17.995 34.8919,19.867 33.5312,22.7218 C32.4043,22.403 31.2014,22.4141 30.073,22.7624 C30.0583,22.7661 30.0436,22.7703 30.0292,22.7749 C29.5378,22.9312 29.1734,23.3248 29.0544,23.8277 C28.9326,24.3426 29.0869,24.8713 29.4653,25.2402 C30.0028,25.7677 30.4063,26.4277 30.6326,27.1495 C30.9908,28.2894 30.8936,29.5074 30.3591,30.5791 C30.3534,30.5904 30.3469,30.6046 30.3414,30.6172 C29.7179,31.8475 29.4118,33.2334 29.4563,34.6261 C29.4679,34.9897 29.5058,35.3487 29.5643,35.7033 C29.2988,35.4793 29.0414,35.2433 28.7938,34.9941 C26.5939,32.78 25.3824,29.8359 25.3824,26.704 C25.3824,25.3513 25.6115,24.0232 26.0633,22.7566 C26.2025,22.3665 25.9989,21.9374 25.6088,21.7983 C25.2187,21.6589 24.7896,21.8626 24.6504,22.2527 C24.2838,23.2807 24.0479,24.3445 23.944,25.4282 L21.1687,25.4282 L21.1687,15.7163 L26.0858,15.7163 C26.2705,16.84 26.2175,17.9906 25.9248,19.0975 C25.8189,19.4979 26.0577,19.9084 26.4582,20.0143 C26.8588,20.1204 27.2691,19.8813 27.375,19.4809 C27.8385,17.728 27.7954,15.8833 27.2505,14.1463 C26.7726,12.6228 25.9184,11.233 24.7802,10.1272 C24.6178,9.9693 24.6414,9.7781 24.6592,9.7032 C24.6766,9.6298 24.7397,9.4519 24.9572,9.383 L24.9691,9.3792 C26.5821,8.8734 28.3116,8.886 29.9092,9.4043 C29.6121,10.3816 29.235,11.9961 29.211,13.9526 C29.2059,14.3668 29.5376,14.7067 29.9517,14.7118 C29.9548,14.7118 29.958,14.7118 29.9611,14.7118 C30.371,14.7118 30.7058,14.382 30.7108,13.971 C30.7401,11.5848 31.3631,9.7281 31.5534,9.2158 L31.5534,9.2158 C31.5535,9.2156 31.5536,9.2153 31.5537,9.2151 C33.2532,4.6261 37.6841,1.5428 42.5795,1.5428 C42.8596,1.5428 43.143,1.5528 43.4217,1.5725 C43.6616,1.5895 43.7725,1.7569 43.8089,1.8281 C43.8441,1.8967 43.9129,2.0773 43.7923,2.2728 C42.5082,4.3561 41.8295,6.7573 41.8295,9.2167 C41.8295,12.6652 43.1468,15.9311 45.5386,18.4128 C45.7007,18.5811 45.8496,18.7637 45.9812,18.9556 C45.997,18.9787 46.0141,19.0009 46.0325,19.0221 C47.8751,21.154 48.8899,23.8821 48.8899,26.7038 C48.8898,29.5657 47.8752,32.2687 46.0159,34.4056 Z" id="XMLID_1000_"></path>
                </g>
            </g>
        </g>
    </g>
</svg>