<svg xmlns="http://www.w3.org/2000/svg" width="20" height="20" viewBox="0 0 20 20"><g><g><g><path fill="#37ab14" d="M9.955 18.534c-4.716 0-8.59-3.845-8.59-8.559 0-4.738 3.874-8.66 8.59-8.66 4.693 0 8.54 3.946 8.54 8.66 0 4.665-3.847 8.559-8.54 8.559zM9.955 0C4.468 0 0 4.469 0 9.98c0 5.461 4.468 9.881 9.955 9.881s9.906-4.395 9.906-9.881c0-5.511-4.618-9.98-9.906-9.98z"/></g><g><path fill="#37ab14" d="M13.779 4.72c-.62 0-.87.273-1.142.82l-2.682 5.585h-.024L7.225 5.54c-.274-.547-.522-.82-1.143-.82-.819 0-1.092.521-1.092 1.017v8.664c0 .473.373.745.82.745.396 0 .843-.272.843-.745V7.947h.025l2.458 5.015c.174.348.398.547.795.547.396 0 .62-.2.794-.547l2.458-5.015h.025v6.454c0 .473.446.745.844.745.447 0 .819-.272.819-.745V5.738c0-.497-.273-1.018-1.092-1.018z"/></g></g></g></svg>