<?xml version="1.0" encoding="UTF-8"?>
<svg width="47px" height="40px" viewBox="0 0 47 40" version="1.1" xmlns="http://www.w3.org/2000/svg" xmlns:xlink="http://www.w3.org/1999/xlink">
    <!-- Generator: Sketch 54.1 (76490) - https://sketchapp.com -->
    <title>002-greek-column</title>
    <desc>Created with Sketch.</desc>
    <g id="Inside" stroke="none" stroke-width="1" fill="none" fill-rule="evenodd">
        <g id="allbc.info_business_center_1140px-_2" transform="translate(-794.000000, -1296.000000)" fill="#3EB060" fill-rule="nonzero">
            <g id="Group-9">
                <g id="002-greek-column" transform="translate(794.000000, 1296.000000)">
                    <path d="M5.86874459,8.67324675 C2.48571429,8.94251082 -0.291948052,11.905974 0.0245887446,15.3868398 C0.296277056,18.3747186 2.93766234,20.8264935 6.02909091,20.498355 C8.6212987,20.2233766 10.7478788,17.9019913 10.4038095,15.198961 C10.1241558,13.0031169 8.1182684,11.1982684 5.80155844,11.5669264 C4.00294372,11.8531602 2.515671,13.5535931 2.92606061,15.4877922 C3.07480519,16.1885714 3.47722944,16.79671 4.05021645,17.2091775 C4.62320346,17.621645 5.42199134,17.8238961 6.20017316,17.5761039 C6.70995671,17.4138528 7.11688312,17.0881385 7.39272727,16.6200866 C7.66857143,16.1518615 7.75809524,15.4223377 7.38926407,14.8431169 C7.09194805,14.3759307 6.81904762,14.2834632 6.39082251,14.2114286 C6.17679654,14.1754113 5.8774026,14.1620779 5.55878788,14.3693506 C5.24017316,14.5766234 5.07134199,15.0051948 5.07134199,15.3082251 C5.06839827,15.5395671 5.15792208,15.7624242 5.32034632,15.9270996 C5.23532468,15.902684 5.15099567,15.8683983 5.06164502,15.8039827 C4.85298701,15.6536797 4.67324675,15.3809524 4.6195671,15.1283117 C4.43619048,14.2638961 5.17887446,13.4197403 6.07324675,13.2772294 C7.34562771,13.074632 8.52242424,14.1345455 8.68588745,15.417316 C8.89904762,17.0919481 7.5182684,18.5986147 5.84606061,18.7759307 C3.77246753,18.9960173 1.93662338,17.2919481 1.74909091,15.2296104 C1.524329,12.7591342 3.55272727,10.594632 6.00606061,10.3994805 C6.02787879,10.3977489 6.04987013,10.39671 6.07168831,10.3954978 L40.7037229,10.3954978 C40.7255411,10.3972294 40.7473593,10.3979221 40.7690043,10.3994805 C43.2223377,10.594632 45.2507359,12.7591342 45.025974,15.2299567 C44.8384416,17.2924675 43.0025974,18.9963636 40.9290043,18.7762771 C39.2566234,18.5987879 37.8758442,17.0921212 38.0891775,15.4176623 C38.2524675,14.1347186 39.4292641,13.0749784 40.7018182,13.2775758 C41.5961905,13.4199134 42.3388745,14.2640693 42.1553247,15.128658 C42.101645,15.3812987 41.9219048,15.6541991 41.7132468,15.804329 C41.6238961,15.8685714 41.5400866,15.9030303 41.4552381,15.9274459 C41.617316,15.7625974 41.7066667,15.5397403 41.7035498,15.3085714 C41.7035498,15.0055411 41.5350649,14.5769697 41.2166234,14.369697 C40.8980087,14.1624242 40.5987879,14.1757576 40.3845887,14.2117749 C39.9563636,14.2838095 39.68329,14.3764502 39.3858009,14.8434632 C39.0171429,15.4225108 39.1068398,16.1522078 39.382684,16.6204329 C39.6585281,17.088658 40.0654545,17.4143723 40.5752381,17.5764502 C41.3534199,17.8240693 42.1518615,17.6219913 42.7248485,17.2095238 C43.2978355,16.7970563 43.7002597,16.1889177 43.8490043,15.4881385 C44.2593939,13.5541126 42.7721212,11.8536797 40.9736797,11.5672727 C38.6569697,11.1986147 36.6509091,13.0034632 36.3714286,15.1993074 C36.0271861,17.9023377 38.1542857,20.2235498 40.7464935,20.4987013 C43.8377489,20.8266667 46.478961,18.3750649 46.7506494,15.387013 C47.0671861,11.9061472 44.2895238,8.94251082 40.9064935,8.67341991 C40.8361905,8.66268398 40.7712554,8.66701299 40.7038961,8.66562771 L6.07186147,8.66562771 C6.00450216,8.66147186 5.93333333,8.66926407 5.86891775,8.67376623 L5.86874459,8.67324675 Z M2.60831169,0.0109090909 C2.13021645,0.0109090909 1.74251082,0.398614719 1.74251082,0.876709957 L1.74251082,2.60831169 C1.74251082,2.83792208 1.83376623,3.05818182 1.99619048,3.2204329 L5.45939394,6.68363636 C5.62181818,6.84606061 5.84190476,6.93731602 6.07151515,6.93731602 L40.7035498,6.93731602 C40.9331602,6.93731602 41.1534199,6.84606061 41.315671,6.68363636 L44.7788745,3.2204329 C44.9412987,3.05800866 45.0325541,2.83792208 45.0325541,2.60831169 L45.0325541,0.876709957 C45.0325541,0.398614719 44.6448485,0.0109090909 44.1667532,0.0109090909 C44.1667532,0.0109090909 2.60831169,0.0109090909 2.60831169,0.0109090909 Z M3.47411255,1.74251082 L43.3009524,1.74251082 L43.3009524,2.24952381 L40.3447619,5.20571429 L6.42995671,5.20571429 L3.47411255,2.24952381 L3.47411255,1.74251082 Z M12.9979221,13.8637229 C12.5198268,13.8637229 12.1321212,14.2514286 12.1321212,14.7295238 L12.1321212,38.9719481 C12.1322944,39.4502165 12.52,39.8377489 12.9982684,39.8375758 C13.1691775,39.8375758 13.3361039,39.787013 13.4782684,39.6922944 L18.4031169,36.408658 C18.6396537,36.2510823 18.7837229,35.9873593 18.7887446,35.7032035 L19.058355,19.9388745 C19.058355,19.934026 19.058355,19.9291775 19.058355,19.924329 C19.058355,19.3563636 20.8,19.3402597 20.7899567,19.9087446 C20.7899567,19.9139394 20.7899567,19.9191342 20.7899567,19.924329 L20.7899567,33.7771429 C20.7901299,34.2554113 21.1778355,34.6429437 21.6561039,34.6427706 C21.827013,34.6427706 21.9939394,34.5922078 22.1361039,34.4974892 L27.3309091,31.0342857 C27.5717749,30.8737662 27.7163636,30.6034632 27.7165368,30.3139394 L27.7165368,19.924329 C27.7165368,19.3461472 29.4481385,19.3461472 29.4481385,19.924329 L29.4481385,28.5823377 C29.4483117,29.0606061 29.8361905,29.4481385 30.3144589,29.4477922 C30.448658,29.4477922 30.5811255,29.4164502 30.7012987,29.3563636 L34.1645022,27.6247619 C34.4576623,27.4780952 34.6429437,27.1785281 34.6431169,26.8505628 L34.6431169,14.7293506 C34.6431169,14.2512554 34.2554113,13.8635498 33.777316,13.8635498 L12.9980952,13.8635498 L12.9979221,13.8635498 L12.9979221,13.8637229 Z M13.8637229,15.5953247 L32.911342,15.5953247 L32.911342,26.3153247 L31.1797403,27.1811255 L31.1797403,19.924329 C31.1797403,17.0380952 25.9849351,17.0380952 25.9849351,19.924329 L25.9849351,29.8505628 L22.5217316,32.1594805 L22.5217316,19.924329 L22.5217316,19.9395671 C22.5731602,17.0436364 17.3272727,17.0278788 17.3272727,19.924329 L17.3272727,19.9094372 L17.0654545,35.2199134 L13.8640693,37.3542857 L13.8640693,15.5953247 L13.8637229,15.5953247 Z" id="Shape"></path>
                </g>
            </g>
        </g>
    </g>
</svg>