<?xml version="1.0" encoding="UTF-8"?>
<svg width="40px" height="40px" viewBox="0 0 40 40" version="1.1" xmlns="http://www.w3.org/2000/svg" xmlns:xlink="http://www.w3.org/1999/xlink">
    <!-- Generator: Sketch 54.1 (76490) - https://sketchapp.com -->
    <title>019-heater</title>
    <desc>Created with Sketch.</desc>
    <g id="Inside" stroke="none" stroke-width="1" fill="none" fill-rule="evenodd">
        <g id="allbc.info_business_center_1140px-_2" transform="translate(-797.000000, -2529.000000)" fill="#3EB060" fill-rule="nonzero">
            <g id="Group-9">
                <g id="019-heater" transform="translate(797.000000, 2529.000000)">
                    <path d="M38.6007554,19.9610136 L38.6007554,16.6340765 C38.6007554,16.266752 38.3028752,15.9688718 37.9352461,15.9688718 C37.5679216,15.9688718 37.2700414,16.266752 37.2700414,16.6340765 L37.2700414,19.9610136 L35.9393275,19.9610136 L35.9393275,16.6340765 C35.9393275,16.266752 35.6411428,15.9688718 35.2738182,15.9688718 C34.9064936,15.9688718 34.6083089,16.266752 34.6083089,16.6340765 L34.6083089,19.9610136 C33.8739644,19.9616228 33.2785088,20.5570784 33.277595,21.2917276 L33.277595,22.6224415 C33.2800317,24.2026073 34.3914473,25.5640838 35.9393275,25.8820663 L35.9393275,29.2760112 C35.9381092,30.3779849 35.045078,31.2710161 33.9431042,31.2722344 L31.2816764,31.2722344 L31.2816764,2.32882558 C31.2816764,1.04258043 30.239096,1.00186526e-12 28.9528508,1.00186526e-12 C27.6666058,1.00186526e-12 26.6240253,1.04258043 26.6240253,2.32882558 L26.6240253,3.32693715 L25.2933114,3.32693715 L25.2933114,2.32882558 C25.2933114,1.04258043 24.250731,1.00186526e-12 22.9644858,1.00186526e-12 C21.6782408,1.00186526e-12 20.6356604,1.04258043 20.6356604,2.32882558 L20.6356604,3.32693715 L19.3049464,3.32693715 L19.3049464,2.32882558 C19.3049464,1.04258043 18.262366,1.00186526e-12 16.9761209,1.00186526e-12 C15.6901803,1.00186526e-12 14.6472953,1.04258043 14.6472953,2.32882558 L14.6472953,3.32693715 L13.3165814,3.32693715 L13.3165814,2.32882558 C13.3165814,1.04258043 12.2740009,1.00186526e-12 10.9880604,1.00186526e-12 C9.70181528,1.00186526e-12 8.65923493,1.04258043 8.65923493,2.32882558 L8.65923493,3.32693715 L7.32852094,3.32693715 L7.32852094,2.32882558 C7.32852094,1.04258043 6.28563595,1.00186526e-12 4.99969544,1.00186526e-12 C3.71345029,1.00186526e-12 2.67086986,1.04258043 2.67086986,2.32882558 L2.67086986,4.65765107 C1.20157162,4.65917396 0.0109649123,5.84978074 0.00944202729,7.31907899 L0.00944202729,8.6497929 C0.0109649123,10.1190912 1.20157162,11.3096979 2.67086986,11.3112207 L2.67086986,20.6265229 C1.20157162,20.6280458 0.0109649123,21.8186526 0.00944202729,23.2879508 L0.00944202729,27.2800926 C0.0109649123,28.7493909 1.20157162,29.9399976 2.67086986,29.9415205 L2.67086986,32.270346 C2.67239283,33.5556773 3.71405942,34.5976487 4.99969544,34.5991715 C5.34569934,34.5973441 5.68682994,34.5172393 5.99780702,34.365558 L5.99780702,35.5190058 C5.0539108,36.5889985 5.12183236,38.2127193 6.15162035,39.2001706 C7.18110378,40.1876218 8.80634745,40.1876218 9.83613552,39.2001706 C10.8656189,38.2127193 10.9335404,36.5889985 9.98994885,35.5190058 L9.98994885,34.365558 C10.3006214,34.5172393 10.6420565,34.5973441 10.9880604,34.5991715 C12.2733918,34.5976487 13.3150585,33.5556773 13.3165814,32.270346 L13.3165814,31.2722344 L14.6472953,31.2722344 L14.6472953,32.270346 C14.6472953,33.5565911 15.6901803,34.5991715 16.9761209,34.5991715 C18.262366,34.5991715 19.3049464,33.5565911 19.3049464,32.270346 L19.3049464,31.2722344 L20.6356604,31.2722344 L20.6356604,32.270346 C20.6371832,33.5556773 21.6791545,34.5976487 22.9644858,34.5991715 C23.3104897,34.5973441 23.6516204,34.5172393 23.9625974,34.365558 L23.9625974,35.5190058 C23.0190058,36.5889985 23.0869274,38.2127193 24.1164108,39.2001706 C25.1461988,40.1876218 26.7711379,40.1876218 27.8009259,39.2001706 C28.8304094,38.2127193 28.8983309,36.5889985 27.9547393,35.5190058 L27.9547393,34.365558 C28.2657163,34.5172393 28.6068469,34.5973441 28.9528508,34.5991715 C30.107517,34.5958211 31.0849171,33.7460405 31.2484771,32.6029483 L33.9431042,32.6029483 C35.7794225,32.6008163 37.2679094,31.112634 37.2700414,29.2760112 L37.2700414,25.8820663 C38.817617,25.5640838 39.9293372,24.2026073 39.9314693,22.6224415 L39.9314693,21.2917276 C39.9305556,20.5570784 39.3354044,19.9616228 38.6007554,19.9610136 L38.6007554,19.9610136 Z M26.6240253,34.6935916 C26.1893884,34.5674951 25.7279484,34.5674951 25.2933114,34.6935916 L25.2933114,31.2722344 L26.6240253,31.2722344 L26.6240253,34.6935916 Z M26.6240253,4.65765107 L26.6240253,29.9415205 L25.2933114,29.9415205 L25.2933114,4.65765107 L26.6240253,4.65765107 Z M8.65923493,34.6935916 C8.22459797,34.5674951 7.76315789,34.5674951 7.32852094,34.6935916 L7.32852094,31.2722344 L8.65923493,31.2722344 L8.65923493,34.6935916 Z M8.65923493,4.65765107 L8.65923493,29.9415205 L7.32852094,29.9415205 L7.32852094,4.65765107 L8.65923493,4.65765107 Z M1.34015595,8.6497929 L1.34015595,7.31907899 C1.34076507,6.58442979 1.93622074,5.98897419 2.67086986,5.98836499 L2.67086986,9.98050682 C1.93622074,9.9798977 1.34076507,9.38444203 1.34015595,8.6497929 Z M1.34015595,27.2800926 L1.34015595,23.2879508 C1.34076507,22.5533017 1.93622074,21.957846 2.67086986,21.9572368 L2.67086986,28.6108065 C1.93622074,28.6101973 1.34076507,28.0147417 1.34015595,27.2800926 L1.34015595,27.2800926 Z M4.99969544,33.2684576 C4.44870862,33.2678484 4.00219298,32.8213329 4.00158378,32.270346 L4.00158378,2.32882558 C4.00158378,1.77753411 4.44840398,1.33071392 4.99969544,1.33071392 C5.55068226,1.33071392 5.99780702,1.77753411 5.99780702,2.32882558 L5.99780702,32.270346 C5.99719782,32.8213329 5.55068226,33.2678484 4.99969544,33.2684576 Z M7.99372561,38.5913134 C7.25877193,38.5913134 6.6630117,37.9955531 6.6630117,37.2605995 C6.6630117,36.5256457 7.25877193,35.9298855 7.99372561,35.9298855 C8.7286793,35.9298855 9.32443961,36.5256457 9.32443961,37.2605995 C9.32383041,37.9952485 8.72837474,38.5907042 7.99372561,38.5913134 Z M11.9858674,32.270346 C11.9858674,32.8216374 11.5390473,33.2684576 10.9880604,33.2684576 C10.436769,33.2684576 9.98994885,32.8216374 9.98994885,32.270346 L9.98994885,2.32882558 C9.98994885,1.77753411 10.436769,1.33071392 10.9880604,1.33071392 C11.5390473,1.33071392 11.9858674,1.77753411 11.9858674,2.32882558 L11.9858674,32.270346 Z M13.3165814,29.9415205 L13.3165814,4.65765107 L14.6472953,4.65765107 L14.6472953,29.9415205 L13.3165814,29.9415205 Z M17.9742324,32.270346 C17.9742324,32.8216374 17.5274122,33.2684576 16.9761209,33.2684576 C16.425134,33.2684576 15.9783138,32.8216374 15.9783138,32.270346 L15.9783138,2.32882558 C15.9783138,1.77753411 16.425134,1.33071392 16.9761209,1.33071392 C17.5274122,1.33071392 17.9742324,1.77753411 17.9742324,2.32882558 L17.9742324,32.270346 Z M19.3049464,29.9415205 L19.3049464,4.65765107 L20.6356604,4.65765107 L20.6356604,29.9415205 L19.3049464,29.9415205 Z M22.9644858,33.2684576 C22.413499,33.2678484 21.9669834,32.8213329 21.9663743,32.270346 L21.9663743,2.32882558 C21.9663743,1.77753411 22.4131945,1.33071392 22.9644858,1.33071392 C23.5157773,1.33071392 23.9625974,1.77753411 23.9625974,2.32882558 L23.9625974,32.270346 C23.9619883,32.8213329 23.5154727,33.2678484 22.9644858,33.2684576 Z M25.9588207,38.5913134 C25.223867,38.5913134 24.6278021,37.9955531 24.6278021,37.2605995 C24.6278021,36.5256457 25.223867,35.9298855 25.9588207,35.9298855 C26.6937743,35.9298855 27.2895346,36.5256457 27.2895346,37.2605995 C27.2886208,37.9952485 26.6934698,38.5907042 25.9588207,38.5913134 Z M29.9509625,32.270346 C29.9509625,32.8216374 29.5041423,33.2684576 28.9528508,33.2684576 C28.4015595,33.2684576 27.9547393,32.8216374 27.9547393,32.270346 L27.9547393,2.32882558 C27.9547393,1.77753411 28.4015595,1.33071392 28.9528508,1.33071392 C29.5041423,1.33071392 29.9509625,1.77753411 29.9509625,2.32882558 L29.9509625,32.270346 Z M38.6007554,22.6224415 C38.6007554,23.7250244 37.707115,24.6186647 36.6045322,24.6186647 C35.5022539,24.6186647 34.6083089,23.7250244 34.6083089,22.6224415 L34.6083089,21.2917276 L38.6007554,21.2917276 L38.6007554,22.6224415 Z" id="Shape"></path>
                </g>
            </g>
        </g>
    </g>
</svg>