<?xml version="1.0" encoding="UTF-8"?>
<svg width="41px" height="40px" viewBox="0 0 41 40" version="1.1" xmlns="http://www.w3.org/2000/svg" xmlns:xlink="http://www.w3.org/1999/xlink">
    <!-- Generator: Sketch 54.1 (76490) - https://sketchapp.com -->
    <title>020-house-plan-scale</title>
    <desc>Created with Sketch.</desc>
    <g id="Inside" stroke="none" stroke-width="1" fill="none" fill-rule="evenodd">
        <g id="allbc.info_business_center_1140px-_2" transform="translate(-797.000000, -1570.000000)" fill="#3EB060" fill-rule="nonzero">
            <g id="Group-9">
                <g id="020-house-plan-scale" transform="translate(797.000000, 1570.000000)">
                    <path d="M38.3925333,39.8048 C38.2218667,39.8048 38.0512,39.7397333 37.9210667,39.6096 C37.6605333,39.3490667 37.6605333,38.9272 37.9210667,38.6669333 L38.2162667,38.3717333 L7.7688,38.3717333 L8.064,38.6666667 C8.32453333,38.9272 8.32453333,39.3490667 8.064,39.6093333 C7.80373333,39.8698667 7.38133333,39.8698667 7.12133333,39.6093333 L5.70453333,38.1925333 C5.57226667,38.0602667 5.5072,37.8864 5.50933333,37.7128 C5.50933333,37.7101333 5.50933333,37.7072 5.50933333,37.7045333 C5.50933333,37.4752 5.62506667,37.2730667 5.80133333,37.1530667 L7.15466667,35.8 C7.41493333,35.5394667 7.83733333,35.5394667 8.09733333,35.8 C8.35786667,36.0605333 8.35786667,36.4824 8.09733333,36.7426667 L7.80213333,37.0378667 L38.2498667,37.0378667 L37.9546667,36.7426667 C37.6941333,36.4821333 37.6941333,36.0602667 37.9546667,35.8 C38.2149333,35.5394667 38.6373333,35.5394667 38.8973333,35.8 L40.3141333,37.2168 C40.4466667,37.3490667 40.5114667,37.5229333 40.5093333,37.6965333 C40.5093333,37.6994667 40.5093333,37.7021333 40.5093333,37.7048 C40.5093333,37.9341333 40.3936,38.1362667 40.2173333,38.2562667 L38.864,39.6093333 C38.7338667,39.7397333 38.5632,39.8048 38.3925333,39.8048 Z M2.1,35.1714667 C1.87066667,35.1714667 1.66826667,35.0554667 1.54853333,34.8792 L0.195466667,33.5261333 C-0.0650666667,33.2656 -0.0650666667,32.8437333 0.195466667,32.5834667 C0.455733333,32.3229333 0.878133333,32.3229333 1.13813333,32.5834667 L1.43333333,32.8786667 L1.43333333,2.43066667 L1.13813333,2.72586667 C0.877866667,2.9864 0.455466667,2.9864 0.195466667,2.72586667 C-0.0650666667,2.46533333 -0.0650666667,2.04346667 0.195466667,1.7832 L1.61226667,0.3664 C1.74453333,0.234133333 1.91733333,0.166666667 2.09173333,0.1712 C2.328,0.1768 2.5304,0.2848 2.65173333,0.463466667 L4.0048,1.81653333 C4.26533333,2.07706667 4.26533333,2.49893333 4.0048,2.7592 C3.74453333,3.01973333 3.32213333,3.01973333 3.06213333,2.7592 L2.76693333,2.464 L2.76693333,32.912 L3.06213333,32.6168 C3.3224,32.3562667 3.7448,32.3562667 4.0048,32.6168 C4.26533333,32.8773333 4.26533333,33.2992 4.0048,33.5594667 L2.588,34.9762667 C2.45573333,35.1085333 2.28026667,35.1752 2.10853333,35.1714667 C2.1056,35.1714667 2.10293333,35.1714667 2.1,35.1714667 Z M39.8426667,33.2853333 L7.62586667,33.2853333 C7.2576,33.2853333 6.9592,32.9869333 6.9592,32.6186667 L6.9592,0.838133333 C6.9592,0.469866667 7.2576,0.171466667 7.62586667,0.171466667 L26.8776,0.171466667 C27.2458667,0.171466667 27.5442667,0.469866667 27.5442667,0.838133333 L27.5442667,13.7776 L39.8424,13.7776 C40.2106667,13.7776 40.5090667,14.076 40.5090667,14.4442667 L40.5090667,32.6184 C40.5093333,32.9866667 40.2109333,33.2853333 39.8426667,33.2853333 Z M27.5157333,31.952 L39.176,31.952 L39.176,15.1109333 L27.5157333,15.1109333 L27.5157333,31.952 Z M14.7445333,31.952 L26.1826667,31.952 L26.1826667,23.0218667 L14.7445333,23.0218667 L14.7445333,31.952 Z M8.29253333,31.952 L13.4109333,31.952 L13.4109333,23.0218667 L8.29253333,23.0218667 L8.29253333,31.952 Z M14.0778667,21.6885333 L26.1826667,21.6885333 L26.1826667,14.4442667 C26.1826667,14.3768 26.1928,14.3117333 26.2112,14.2501333 L26.2112,7.28853333 L8.29253333,7.28853333 L8.29253333,21.6885333 L14.0778667,21.6885333 Z M17.9042667,5.9552 L26.2112,5.9552 L26.2112,1.5048 L17.9042667,1.5048 L17.9042667,5.9552 Z M8.29253333,5.9552 L16.5706667,5.9552 L16.5706667,1.5048 L8.29253333,1.5048 L8.29253333,5.9552 Z" id="Shape"></path>
                </g>
            </g>
        </g>
    </g>
</svg>