<?xml version="1.0" encoding="utf-8"?>
<!-- Generator: Adobe Illustrator 23.0.6, SVG Export Plug-In . SVG Version: 6.00 Build 0)  -->
<svg version="1.1" id="Ebene_1" xmlns="http://www.w3.org/2000/svg" xmlns:xlink="http://www.w3.org/1999/xlink" x="0px" y="0px"
	 viewBox="0 0 100 100" style="enable-background:new 0 0 100 100;" xml:space="preserve">
<style type="text/css">
	.st0{fill:#59358B;}
</style>
<path class="st0" d="M83.7,16.3C75.1,7.7,63.2,2.4,50,2.4S25,7.7,16.3,16.3C7.7,25,2.4,36.8,2.4,50c0,13.2,5.3,25,13.9,33.7
	C25,92.3,36.8,97.6,50,97.6s25.1-5.3,33.7-13.9C92.3,75,97.6,63.2,97.6,50C97.6,36.8,92.3,25,83.7,16.3z M38.5,68.4h-8.2v-26h8.2
	V68.4z M34.4,40.4c-2.4,0-4.4-2-4.4-4.4c0-2.4,2-4.4,4.4-4.4c2.4,0,4.4,2,4.4,4.4C38.8,38.4,36.9,40.4,34.4,40.4z M70,68.4h-8.2
	V53.7c0-2.6-1.6-5.1-4.3-5.1c-2.5,0-4.9,2.5-4.9,5.1v14.7h-8.2V41.7h8.8l-0.5,3.5h0.1c1.9-2,3.7-3.5,6.8-3.5
	c4.4,0,10.5,2.4,10.5,9.6V68.4z"/>
</svg>
