<?xml version="1.0" encoding="UTF-8"?>
<svg width="33px" height="40px" viewBox="0 0 33 40" version="1.1" xmlns="http://www.w3.org/2000/svg" xmlns:xlink="http://www.w3.org/1999/xlink">
    <!-- Generator: Sketch 54.1 (76490) - https://sketchapp.com -->
    <title>012-locked</title>
    <desc>Created with Sketch.</desc>
    <g id="Inside" stroke="none" stroke-width="1" fill="none" fill-rule="evenodd">
        <g id="allbc.info_business_center_1140px-_2" transform="translate(-801.000000, -1981.000000)" fill="#3EB060" fill-rule="nonzero">
            <g id="Group-9">
                <g id="012-locked" transform="translate(801.000000, 1981.000000)">
                    <path d="M28.5,14.8985185 L28.5,10.7407407 C28.5,4.81851852 23.1165,0 16.5,0 C9.8835,0 4.5,4.81851852 4.5,10.7407407 L4.5,14.8985185 C1.94925,15.3325926 3.55271368e-15,17.5281481 3.55271368e-15,20.1703704 L3.55271368e-15,34.6459259 C3.55271368e-15,37.5977778 2.43225,40 5.42175,40 L27.57825,40 C30.56775,40 33,37.5977778 33,34.6451852 L33,20.1696296 C33,17.5281481 31.05075,15.3325926 28.5,14.8985185 Z M6,10.7407407 C6,5.63481481 10.71,1.48148148 16.5,1.48148148 C22.29,1.48148148 27,5.63481481 27,10.7407407 L27,14.8148148 L6,14.8148148 L6,10.7407407 Z M31.5,34.6451852 C31.5,36.7807407 29.7405,38.5185185 27.57825,38.5185185 L5.42175,38.5185185 C3.2595,38.5185185 1.5,36.7807407 1.5,34.6451852 L1.5,20.1696296 C1.5,18.0340741 3.2595,16.2962963 5.42175,16.2962963 L27.57825,16.2962963 C29.7405,16.2962963 31.5,18.0340741 31.5,20.1696296 L31.5,34.6451852 Z" id="Shape"></path>
                    <path d="M16.5,20.7407407 C14.8455,20.7407407 13.5,22.0696296 13.5,23.7037037 L13.5,28.1481481 C13.5,29.7822222 14.8455,31.1111111 16.5,31.1111111 C18.1545,31.1111111 19.5,29.7822222 19.5,28.1481481 L19.5,23.7037037 C19.5,22.0696296 18.1545,20.7407407 16.5,20.7407407 Z M18,28.1481481 C18,28.9651852 17.32725,29.6296296 16.5,29.6296296 C15.67275,29.6296296 15,28.9651852 15,28.1481481 L15,23.7037037 C15,22.8866667 15.67275,22.2222222 16.5,22.2222222 C17.32725,22.2222222 18,22.8866667 18,23.7037037 L18,28.1481481 Z" id="Shape"></path>
                </g>
            </g>
        </g>
    </g>
</svg>