<?xml version="1.0" encoding="utf-8"?>
<!-- Generator: Adobe Illustrator 22.1.0, SVG Export Plug-In . SVG Version: 6.00 Build 0)  -->
<svg version="1.1" id="Layer_1" xmlns="http://www.w3.org/2000/svg" xmlns:xlink="http://www.w3.org/1999/xlink" x="0px" y="0px"
	 viewBox="0 0 255.1 141.7" style="enable-background:new 0 0 255.1 141.7;" xml:space="preserve" width="78px" height="32px">
<style type="text/css">
	.st0{fill:#85C448;}
	.st1{fill:#10ABE3;}
	.st2{fill:#FFFFFF;}
</style>
<g>
	<path class="st0" d="M100.5,100h-9.6V38.5h9.6V100z"/>
	<path class="st1" d="M118.2,100h-9.6V38.5h9.6V100z"/>
	<path class="st2" d="M83.5,90.2V71.2c0-4.7-1.5-8.4-4.6-10.9c-3-2.5-7.1-3.8-12-3.8c-5.1,0-9.3,1.3-12.5,3.9
		c-3.2,2.6-4.7,5.6-4.5,8.9l0,0.2h9.2c0-1.7,0.6-3,1.9-4.1s3-1.6,5.2-1.6c2.4,0,4.3,0.6,5.6,1.9c1.3,1.3,2,3,2,5.2v3.7h-7.4
		c-5.9,0-10.5,1.1-13.7,3.4c-3.3,2.3-4.9,5.5-4.9,9.6c0,4,1.2,7.1,3.6,9.4c2.4,2.3,5.8,3.4,10.2,3.4c2.7,0,5-0.7,7.2-2s3.9-3,5.2-5
		c0.1,1,0.2,2,0.5,3.1c0.2,1,0.5,2.1,0.8,3.2H85c-0.5-1.5-0.9-3.1-1.1-4.7C83.6,93.6,83.5,91.9,83.5,90.2z M73.9,87.2
		c-0.6,1.5-1.9,2.9-3.8,4.1c-1.9,1.2-4.1,1.8-6.5,1.8c-2,0-3.5-0.5-4.5-1.4c-1.1-1-1.6-2.3-1.6-3.9c0-1.9,0.8-3.5,2.4-4.9
		c1.6-1.4,3.8-2.1,6.5-2.1h7.6V87.2z M146.4,56.6c-2.4,0-4.6,0.5-6.4,1.5c-1.8,1-3.4,2.4-4.7,4.2V38.5h-9.6V100h8l0.9-5.5
		c1.3,2.1,2.9,3.7,4.9,4.7c2,1.1,4.3,1.6,6.9,1.6c5.3,0,9.4-1.9,12.3-5.7c2.9-3.8,4.4-8.8,4.4-15v-0.8c0-6.8-1.5-12.3-4.4-16.5
		C155.8,58.6,151.7,56.6,146.4,56.6z M153.5,80.1c0,4-0.7,7.1-2.2,9.4c-1.5,2.3-3.9,3.5-7.2,3.5c-2.2,0-4-0.5-5.4-1.4
		c-1.4-0.9-2.6-2.3-3.4-4V69.8c0.8-1.7,2-3,3.4-3.9c1.4-0.9,3.2-1.4,5.3-1.4c3.3,0,5.7,1.4,7.2,4.1s2.3,6.3,2.3,10.8V80.1z
		 M178.1,68.2c1.5-2.6,4-3.9,7.6-3.9c2.5,0,4.5,0.8,6,2.4c1.5,1.6,2.3,3.6,2.3,5.9h8.7l0.1-0.2c0.1-4.6-1.4-8.4-4.6-11.4
		c-3.2-3-7.3-4.5-12.5-4.5c-6.3,0-11.1,2-14.4,6.1c-3.3,4.1-5,9.2-5,15.3v1.4c0,6.2,1.7,11.3,5,15.4c3.3,4,8.2,6.1,14.4,6.1
		c4.8,0,8.8-1.4,12.2-4.3c3.4-2.9,5-6.3,4.9-10.3l-0.1-0.2h-8.7c0,2.1-0.8,3.8-2.4,5.2c-1.6,1.4-3.6,2.1-5.9,2.1
		c-3.6,0-6.1-1.3-7.6-3.9c-1.5-2.6-2.2-5.9-2.2-9.9V78C175.9,74,176.6,70.8,178.1,68.2z"/>
</g>
</svg>
