<?xml version="1.0" encoding="utf-8"?>
<!-- Generator: Adobe Illustrator 23.0.3, SVG Export Plug-In . SVG Version: 6.00 Build 0)  -->
<svg version="1.1" id="Layer_1" xmlns="http://www.w3.org/2000/svg" xmlns:xlink="http://www.w3.org/1999/xlink" x="0px" y="0px"
	 viewBox="0 0 35.3 14.6" style="enable-background:new 0 0 35.3 14.6;" xml:space="preserve" width="78px" height="32px">
<style type="text/css">
	.st0{fill:#85C448;}
	.st1{fill:#10ABE3;}
	.st2{fill:#FFFFFF;}
</style>
<g>
	<path class="st0" d="M12,14.1H9.8V0.2H12V14.1z"/>
	<path class="st1" d="M16,14.1h-2.2V0.2H16V14.1z"/>
	<path class="st2" d="M8.1,11.9V7.6c0-1.1-0.3-1.9-1-2.5C6.4,4.6,5.5,4.3,4.4,4.3c-1.2,0-2.1,0.3-2.8,0.9s-1.1,1.3-1,2v0h2.1
		c0-0.4,0.1-0.7,0.4-0.9c0.3-0.2,0.7-0.4,1.2-0.4c0.5,0,1,0.1,1.3,0.4c0.3,0.3,0.5,0.7,0.5,1.2v0.8H4.3c-1.3,0-2.4,0.2-3.1,0.8
		c-0.7,0.5-1.1,1.2-1.1,2.2c0,0.9,0.3,1.6,0.8,2.1c0.5,0.5,1.3,0.8,2.3,0.8c0.6,0,1.1-0.2,1.6-0.5c0.5-0.3,0.9-0.7,1.2-1.1
		c0,0.2,0,0.5,0.1,0.7c0,0.2,0.1,0.5,0.2,0.7h2.2c-0.1-0.3-0.2-0.7-0.2-1.1C8.2,12.7,8.1,12.3,8.1,11.9z M6,11.2
		c-0.1,0.3-0.4,0.7-0.9,0.9c-0.4,0.3-0.9,0.4-1.5,0.4c-0.5,0-0.8-0.1-1-0.3c-0.2-0.2-0.4-0.5-0.4-0.9c0-0.4,0.2-0.8,0.5-1.1
		c0.4-0.3,0.9-0.5,1.5-0.5H6L6,11.2L6,11.2z M22.3,4.3c-0.5,0-1,0.1-1.4,0.3c-0.4,0.2-0.8,0.5-1.1,0.9V0.2h-2.2v13.9h1.8l0.2-1.2
		c0.3,0.5,0.7,0.8,1.1,1.1c0.5,0.2,1,0.4,1.6,0.4c1.2,0,2.1-0.4,2.8-1.3c0.7-0.9,1-2,1-3.4V9.4c0-1.5-0.3-2.8-1-3.7
		S23.5,4.3,22.3,4.3z M23.9,9.6c0,0.9-0.2,1.6-0.5,2.1c-0.3,0.5-0.9,0.8-1.6,0.8c-0.5,0-0.9-0.1-1.2-0.3c-0.3-0.2-0.6-0.5-0.8-0.9
		v-4c0.2-0.4,0.5-0.7,0.8-0.9c0.3-0.2,0.7-0.3,1.2-0.3c0.7,0,1.3,0.3,1.6,0.9s0.5,1.4,0.5,2.4C23.9,9.5,23.9,9.6,23.9,9.6z
		 M29.5,6.9c0.3-0.6,0.9-0.9,1.7-0.9c0.6,0,1,0.2,1.4,0.5c0.3,0.4,0.5,0.8,0.5,1.3h2l0,0c0-1-0.3-1.9-1-2.6s-1.6-1-2.8-1
		c-1.4,0-2.5,0.5-3.3,1.4c-0.7,0.9-1.1,2.1-1.1,3.5v0.3c0,1.4,0.4,2.6,1.1,3.5c0.7,0.9,1.9,1.4,3.3,1.4c1.1,0,2-0.3,2.8-1
		c0.8-0.7,1.1-1.4,1.1-2.3l0,0h-2c0,0.5-0.2,0.9-0.5,1.2c-0.4,0.3-0.8,0.5-1.3,0.5c-0.8,0-1.4-0.3-1.7-0.9c-0.3-0.6-0.5-1.3-0.5-2.2
		V9.2C29,8.2,29.2,7.5,29.5,6.9z"/>
</g>
</svg>
