<?xml version="1.0" encoding="utf-8"?>
<!-- Generator: Adobe Illustrator 23.0.3, SVG Export Plug-In . SVG Version: 6.00 Build 0)  -->
<svg version="1.1" id="Layer_1" xmlns="http://www.w3.org/2000/svg" xmlns:xlink="http://www.w3.org/1999/xlink" x="0px" y="0px"
	 viewBox="0 0 104.75 44.5" style="enable-background:new 0 0 104.75 44.5;" xml:space="preserve">
<style type="text/css">
	.st0{fill:#9AC352;}
	.st1{fill:#62ACE2;}
	.st2{fill:#030706;}
	.st3{fill:#595A5C;}
</style>
<path class="st0" d="M35.76,42.86h-6.38V1.89h6.38V42.86z"/>
<path class="st1" d="M47.55,42.86h-6.38V1.89h6.38V42.86z"/>
<path class="st2" d="M24.41,36.32V23.69c0-3.15-1.02-5.57-3.05-7.25c-2.03-1.68-4.7-2.52-8.01-2.52c-3.41,0-6.18,0.87-8.31,2.6
	c-2.13,1.73-3.13,3.72-3.01,5.96l0.03,0.16h6.14c0-1.1,0.43-2,1.29-2.7s2.01-1.05,3.47-1.05c1.63,0,2.88,0.42,3.76,1.26
	c0.88,0.84,1.31,2,1.31,3.49v2.49h-4.96c-3.94,0-6.99,0.77-9.16,2.3c-2.17,1.53-3.26,3.67-3.26,6.42c0,2.66,0.79,4.75,2.38,6.28
	c1.58,1.52,3.86,2.28,6.81,2.28c1.77,0,3.37-0.45,4.79-1.35s2.58-2.02,3.45-3.35c0.05,0.68,0.15,1.37,0.3,2.05
	c0.15,0.68,0.34,1.38,0.56,2.1h6.46c-0.35-1.03-0.6-2.09-0.76-3.16C24.49,38.62,24.41,37.49,24.41,36.32z M18.03,34.32
	c-0.42,1.03-1.27,1.95-2.56,2.76c-1.29,0.8-2.74,1.21-4.35,1.21c-1.31,0-2.32-0.32-3.03-0.96c-0.71-0.64-1.06-1.5-1.06-2.59
	c0-1.24,0.53-2.32,1.58-3.24c1.05-0.92,2.5-1.38,4.36-1.38h5.07V34.32z M66.36,13.92c-1.63,0-3.06,0.32-4.28,0.97
	c-1.23,0.65-2.28,1.58-3.15,2.78V1.89h-6.38v40.96h5.36l0.63-3.68c0.88,1.38,1.97,2.43,3.27,3.15c1.3,0.72,2.84,1.08,4.61,1.08
	c3.52,0,6.25-1.26,8.18-3.79c1.93-2.53,2.9-5.87,2.9-10.02v-0.55c0-4.55-0.97-8.21-2.9-10.98C72.65,15.3,69.91,13.92,66.36,13.92z
	 M71.11,29.6c0,2.64-0.5,4.74-1.5,6.29c-1,1.55-2.6,2.32-4.81,2.32c-1.45,0-2.66-0.31-3.62-0.93c-0.96-0.62-1.72-1.5-2.26-2.64
	V22.72c0.56-1.12,1.32-2,2.27-2.63c0.95-0.63,2.14-0.95,3.56-0.95c2.21,0,3.82,0.91,4.83,2.73s1.52,4.21,1.52,7.17V29.6z
	 M87.5,21.65c1-1.74,2.7-2.61,5.09-2.61c1.65,0,2.98,0.54,4,1.63c1.02,1.09,1.54,2.41,1.54,3.96h5.8l0.05-0.16
	c0.07-3.06-0.96-5.59-3.09-7.58c-2.13-1.99-4.9-2.98-8.31-2.98c-4.18,0-7.39,1.35-9.62,4.06c-2.23,2.71-3.35,6.11-3.35,10.23v0.92
	c0,4.13,1.12,7.55,3.35,10.24c2.23,2.7,5.44,4.04,9.62,4.04c3.17,0,5.88-0.96,8.13-2.89c2.25-1.93,3.33-4.22,3.24-6.88l-0.05-0.16
	h-5.78c0,1.38-0.53,2.52-1.6,3.44c-1.07,0.91-2.38,1.37-3.94,1.37c-2.4,0-4.1-0.86-5.09-2.58c-1-1.72-1.5-3.92-1.5-6.6v-0.92
	C86,25.57,86.5,23.39,87.5,21.65z M107.59,42.86h6.35v-6.12h-6.35V42.86z M120.22,7.49h6.38V1.89h-6.38V7.49z M120.22,42.86h6.38
	V14.44h-6.38V42.86z M146.01,13.92c-1.77,0-3.36,0.41-4.77,1.22s-2.58,1.95-3.51,3.4l-0.37-4.1h-5.83v28.41h6.38V22.24
	c0.63-0.96,1.44-1.72,2.42-2.27c0.98-0.55,2.09-0.83,3.33-0.83c1.8,0,3.15,0.45,4.03,1.35c0.88,0.9,1.33,2.42,1.33,4.56v17.8h6.38
	V25c0-3.8-0.83-6.6-2.48-8.39S148.97,13.92,146.01,13.92z M169.39,7.75c0.69-0.79,1.73-1.18,3.11-1.18c0.49,0,0.95,0.03,1.38,0.08
	c0.43,0.05,0.82,0.11,1.17,0.18l0.66-4.94c-0.79-0.17-1.5-0.31-2.13-0.41c-0.63-0.1-1.25-0.14-1.86-0.14
	c-3.08,0-5.47,0.85-7.18,2.55c-1.71,1.7-2.56,4.11-2.56,7.25v3.31h-4.33v4.73h4.33v23.69h6.38V19.17h5.78v-4.73h-5.78v-3.31
	C168.36,9.67,168.7,8.54,169.39,7.75z M198.03,17.99c-2.31-2.71-5.51-4.07-9.58-4.07c-4.01,0-7.19,1.36-9.53,4.07
	c-2.31,2.71-3.47,6.18-3.47,10.4v0.55c0,4.25,1.16,7.73,3.47,10.43c2.33,2.7,5.52,4.04,9.58,4.04c4.04,0,7.22-1.34,9.53-4.02
	c2.33-2.7,3.49-6.18,3.49-10.45v-0.55C201.52,24.15,200.36,20.69,198.03,17.99z M195.17,28.93c0,2.76-0.56,5.02-1.68,6.77
	c-1.1,1.73-2.77,2.6-4.99,2.6c-2.29,0-3.97-0.87-5.04-2.6c-1.09-1.75-1.63-4-1.63-6.77v-0.55c0-2.69,0.54-4.92,1.63-6.69
	c1.1-1.77,2.77-2.65,4.99-2.65c2.26,0,3.94,0.88,5.04,2.65c1.12,1.75,1.68,3.98,1.68,6.69V28.93z"/>
<path class="st3" d="M6.14,57.77c0.56-0.21,1.02-0.52,1.36-0.95s0.52-0.91,0.52-1.45c0-1.1-0.36-1.92-1.08-2.47
	c-0.72-0.55-1.71-0.82-2.98-0.82H0v12.16h4.49c1.24,0,2.21-0.29,2.93-0.88s1.08-1.44,1.08-2.55c0-0.75-0.21-1.4-0.63-1.96
	C7.46,58.29,6.88,57.93,6.14,57.77z M1.64,53.38h2.32c0.78,0,1.38,0.16,1.79,0.49c0.41,0.33,0.62,0.82,0.62,1.47
	c0,0.6-0.19,1.07-0.58,1.41c-0.38,0.34-0.88,0.51-1.49,0.51H1.64V53.38z M6.24,62.4c-0.42,0.37-1,0.55-1.74,0.55H1.64v-4.4h3.09
	c0.72,0,1.26,0.2,1.61,0.61c0.35,0.4,0.52,0.96,0.52,1.67C6.86,61.51,6.65,62.03,6.24,62.4z M12.44,57.27
	c0.37-0.62,0.99-0.93,1.85-0.93c0.6,0,1.09,0.19,1.48,0.58c0.39,0.39,0.58,0.86,0.58,1.41h1.49l0.02-0.05
	c0.02-0.91-0.3-1.67-0.97-2.3c-0.67-0.62-1.54-0.94-2.59-0.94c-1.31,0-2.31,0.43-3.01,1.29c-0.7,0.86-1.05,1.93-1.05,3.22v0.35
	c0,1.3,0.35,2.37,1.04,3.23c0.7,0.86,1.7,1.29,3.01,1.29c0.96,0,1.8-0.3,2.52-0.91c0.72-0.61,1.07-1.3,1.04-2.08l-0.02-0.05h-1.48
	c0,0.49-0.21,0.9-0.62,1.24c-0.41,0.34-0.89,0.5-1.44,0.5c-0.87,0-1.49-0.31-1.85-0.92s-0.55-1.38-0.55-2.31v-0.35
	C11.89,58.65,12.07,57.89,12.44,57.27z M23.19,55.04c-1.05,0-1.95,0.43-2.72,1.28c-0.77,0.85-1.15,1.92-1.15,3.21v0.37
	c0,1.33,0.37,2.42,1.11,3.26s1.74,1.26,3,1.26c0.75,0,1.39-0.11,1.92-0.32s0.95-0.48,1.28-0.8L26,62.23
	c-0.31,0.28-0.67,0.5-1.09,0.66c-0.42,0.16-0.91,0.24-1.46,0.24c-0.76,0-1.36-0.28-1.78-0.84s-0.64-1.27-0.66-2.14l0.03-0.04h5.86
	v-1.03c0-1.22-0.31-2.2-0.94-2.94C25.33,55.41,24.41,55.04,23.19,55.04z M25.25,58.82h-4.17l-0.02-0.04
	c0.09-0.7,0.33-1.28,0.72-1.74s0.86-0.7,1.41-0.7c0.68,0,1.19,0.22,1.54,0.65c0.34,0.43,0.52,0.97,0.52,1.61V58.82z M36.96,55.73
	c-0.56,0-1.09,0.11-1.59,0.33c-0.5,0.22-0.91,0.5-1.24,0.86l-0.03-0.04c0.12-0.88,0.45-1.55,0.99-2.01
	c0.54-0.46,1.19-0.75,1.94-0.88c1.04-0.18,1.8-0.42,2.28-0.73c0.48-0.31,0.71-0.95,0.69-1.93L40,51.28h-1.27
	c0,0.4-0.16,0.69-0.47,0.87s-0.82,0.33-1.52,0.45c-1.26,0.25-2.26,0.91-3.01,1.96c-0.75,1.06-1.12,2.48-1.12,4.26V60
	c0,1.3,0.36,2.36,1.09,3.19c0.73,0.82,1.71,1.24,2.96,1.24c1.25,0,2.23-0.41,2.96-1.24c0.72-0.82,1.09-1.88,1.09-3.18v-0.18
	c0-1.2-0.33-2.18-1-2.94C39.02,56.11,38.11,55.73,36.96,55.73z M39.05,60c0,0.91-0.2,1.65-0.61,2.24c-0.41,0.59-1,0.88-1.79,0.88
	c-0.8,0-1.39-0.29-1.79-0.88c-0.4-0.59-0.6-1.33-0.6-2.24v-0.18c0-0.8,0.2-1.47,0.6-2c0.4-0.53,0.99-0.8,1.78-0.8
	c0.79,0,1.39,0.27,1.8,0.8c0.41,0.53,0.61,1.2,0.61,2V60z M43.99,61.64l-0.05-0.02v-6.41H42.3v9.03h1.64l3.99-6.43l0.05,0.02v6.41
	h1.64v-9.03h-1.64L43.99,61.64z M57.13,59.59c0.44-0.19,0.78-0.46,1.03-0.8c0.24-0.34,0.37-0.71,0.37-1.11
	c0-0.84-0.3-1.49-0.89-1.94c-0.6-0.45-1.42-0.68-2.48-0.68c-0.97,0-1.79,0.24-2.46,0.73c-0.67,0.49-0.98,1.12-0.95,1.89l0.02,0.05
	h1.56c0-0.39,0.18-0.72,0.53-0.99c0.35-0.27,0.78-0.41,1.3-0.41c0.58,0,1.01,0.13,1.3,0.39s0.43,0.58,0.43,0.96
	c0,0.42-0.13,0.74-0.38,0.96c-0.25,0.22-0.67,0.33-1.24,0.33h-1.57v1.34h1.57c0.61,0,1.06,0.11,1.35,0.33s0.43,0.58,0.43,1.06
	c0,0.41-0.17,0.75-0.5,1.03c-0.33,0.28-0.79,0.41-1.39,0.41c-0.58,0-1.05-0.16-1.42-0.47s-0.55-0.68-0.55-1.1h-1.56l-0.02,0.05
	c-0.03,0.9,0.31,1.59,1.02,2.07c0.71,0.48,1.55,0.71,2.53,0.71c1.06,0,1.92-0.24,2.57-0.72s0.97-1.14,0.97-1.99
	c0-0.51-0.13-0.94-0.4-1.29C58.02,60.05,57.63,59.78,57.13,59.59z M66.37,59.12h-4.02v-3.91H60.7v9.03h1.64v-3.83h4.02v3.83h1.64
	v-9.03h-1.64V59.12z M73.92,55.04c-1.05,0-1.95,0.43-2.72,1.28c-0.77,0.85-1.15,1.92-1.15,3.21v0.37c0,1.33,0.37,2.42,1.11,3.26
	s1.74,1.26,3,1.26c0.75,0,1.39-0.11,1.92-0.32s0.95-0.48,1.28-0.8l-0.64-1.07c-0.31,0.28-0.67,0.5-1.09,0.66
	c-0.42,0.16-0.91,0.24-1.46,0.24c-0.76,0-1.36-0.28-1.78-0.84s-0.64-1.27-0.66-2.14l0.03-0.04h5.86v-1.03c0-1.22-0.31-2.2-0.94-2.94
	C76.06,55.41,75.14,55.04,73.92,55.04z M75.97,58.82H71.8l-0.02-0.04c0.09-0.7,0.33-1.28,0.72-1.74s0.86-0.7,1.41-0.7
	c0.68,0,1.19,0.22,1.54,0.65c0.34,0.43,0.52,0.97,0.52,1.61V58.82z M81.28,57.27c0.37-0.62,0.99-0.93,1.85-0.93
	c0.6,0,1.09,0.19,1.48,0.58c0.39,0.39,0.58,0.86,0.58,1.41h1.49l0.02-0.05c0.02-0.91-0.3-1.67-0.97-2.3
	c-0.67-0.62-1.54-0.94-2.59-0.94c-1.31,0-2.31,0.43-3.01,1.29c-0.7,0.86-1.05,1.93-1.05,3.22v0.35c0,1.3,0.35,2.37,1.04,3.23
	c0.7,0.86,1.7,1.29,3.01,1.29c0.96,0,1.8-0.3,2.52-0.91c0.72-0.61,1.07-1.3,1.04-2.08l-0.02-0.05H85.2c0,0.49-0.21,0.9-0.62,1.24
	c-0.41,0.34-0.89,0.5-1.44,0.5c-0.87,0-1.49-0.31-1.85-0.92s-0.55-1.38-0.55-2.31v-0.35C80.73,58.65,80.91,57.89,81.28,57.27z
	 M87.63,59.75h4.09v-1.29h-4.09V59.75z M100.54,55.21h-1.64v7.74h-4.03v-7.74h-1.64v9.03H100v2.96h1.64v-4.25h-1.1V55.21z
	 M106.88,55.04c-1.05,0-1.95,0.43-2.72,1.28c-0.77,0.85-1.15,1.92-1.15,3.21v0.37c0,1.33,0.37,2.42,1.11,3.26s1.74,1.26,3,1.26
	c0.75,0,1.39-0.11,1.92-0.32c0.53-0.21,0.95-0.48,1.28-0.8l-0.64-1.07c-0.31,0.28-0.67,0.5-1.09,0.66
	c-0.42,0.16-0.91,0.24-1.46,0.24c-0.76,0-1.36-0.28-1.78-0.84s-0.64-1.27-0.66-2.14l0.03-0.04h5.86v-1.03c0-1.22-0.31-2.2-0.93-2.94
	C109.02,55.41,108.1,55.04,106.88,55.04z M108.94,58.82h-4.17l-0.02-0.04c0.09-0.7,0.33-1.28,0.72-1.74s0.86-0.7,1.41-0.7
	c0.68,0,1.19,0.22,1.54,0.65c0.35,0.43,0.52,0.97,0.52,1.61V58.82z M118.1,59.12h-4.02v-3.91h-1.65v9.03h1.65v-3.83h4.02v3.83h1.64
	v-9.03h-1.64V59.12z M121.54,56.5h2.94v7.74h1.64V56.5h2.98v-1.29h-7.56V56.5z M135.05,55.04c-0.58,0-1.1,0.11-1.54,0.34
	s-0.81,0.56-1.1,0.99l-0.26-1.17h-1.26v12.51h1.65V63.3c0.29,0.37,0.65,0.65,1.07,0.84s0.91,0.28,1.46,0.28c1.1,0,1.96-0.4,2.58-1.2
	s0.93-1.85,0.93-3.15v-0.18c0-1.46-0.31-2.63-0.93-3.52C137.04,55.49,136.17,55.04,135.05,55.04z M136.95,60.07
	c0,0.9-0.2,1.64-0.6,2.21c-0.4,0.57-0.99,0.85-1.77,0.85c-0.48,0-0.89-0.1-1.23-0.31c-0.33-0.21-0.6-0.5-0.81-0.87v-4.36
	c0.21-0.37,0.48-0.67,0.81-0.88s0.74-0.32,1.21-0.32c0.79,0,1.38,0.33,1.78,0.99c0.4,0.66,0.6,1.5,0.6,2.52V60.07z M149.73,64.24
	h1.64v-9.03h-1.64V64.24z M144.75,58.65h-2.25v-3.44h-1.64v9.03h3.89c1.06,0,1.88-0.27,2.48-0.8c0.6-0.53,0.9-1.21,0.9-2.03
	c0-0.82-0.3-1.48-0.89-2S145.82,58.65,144.75,58.65z M146.06,62.53c-0.28,0.28-0.72,0.42-1.31,0.42h-2.25v-3.01h2.25
	c0.58,0,1.02,0.15,1.3,0.46c0.28,0.3,0.43,0.66,0.43,1.07C146.48,61.89,146.34,62.24,146.06,62.53z M163.47,59.59
	c0.44-0.19,0.78-0.46,1.03-0.8s0.37-0.71,0.37-1.11c0-0.84-0.3-1.49-0.89-1.94c-0.6-0.45-1.42-0.68-2.48-0.68
	c-0.97,0-1.79,0.24-2.46,0.73c-0.67,0.49-0.98,1.12-0.95,1.89l0.02,0.05h1.56c0-0.39,0.18-0.72,0.53-0.99
	c0.35-0.27,0.78-0.41,1.3-0.41c0.58,0,1.01,0.13,1.3,0.39c0.29,0.26,0.43,0.58,0.43,0.96c0,0.42-0.13,0.74-0.38,0.96
	c-0.25,0.22-0.67,0.33-1.24,0.33h-1.57v1.34h1.57c0.61,0,1.06,0.11,1.35,0.33c0.29,0.22,0.43,0.58,0.43,1.06
	c0,0.41-0.17,0.75-0.5,1.03c-0.33,0.28-0.79,0.41-1.39,0.41c-0.58,0-1.05-0.16-1.42-0.47s-0.55-0.68-0.55-1.1h-1.56l-0.02,0.05
	c-0.03,0.9,0.31,1.59,1.02,2.07c0.71,0.48,1.55,0.71,2.53,0.71c1.06,0,1.92-0.24,2.57-0.72s0.97-1.14,0.97-1.99
	c0-0.51-0.13-0.94-0.4-1.29C164.36,60.05,163.98,59.78,163.47,59.59z M174.53,55.21h-5.9l-0.13,3.39c-0.08,1.2-0.25,2.09-0.49,2.67
	c-0.25,0.58-0.6,1.14-1.06,1.67h-0.71l0.16,3.95h1.49v-2.66h6.21v2.66h1.49l0.16-3.95h-1.2V55.21z M172.89,62.95h-4.05
	c0.36-0.48,0.65-1.08,0.87-1.78s0.37-1.56,0.43-2.56l0.08-1.93h2.67V62.95z M180.95,55.04c-1.05,0-1.95,0.43-2.72,1.28
	c-0.77,0.85-1.15,1.92-1.15,3.21v0.37c0,1.33,0.37,2.42,1.12,3.26c0.74,0.84,1.74,1.26,3,1.26c0.75,0,1.39-0.11,1.92-0.32
	s0.95-0.48,1.28-0.8l-0.64-1.07c-0.31,0.28-0.67,0.5-1.09,0.66c-0.42,0.16-0.91,0.24-1.46,0.24c-0.76,0-1.36-0.28-1.78-0.84
	s-0.64-1.27-0.66-2.14l0.02-0.04h5.86v-1.03c0-1.22-0.31-2.2-0.93-2.94C183.09,55.41,182.17,55.04,180.95,55.04z M183,58.82h-4.17
	l-0.02-0.04c0.09-0.7,0.33-1.28,0.72-1.74s0.86-0.7,1.41-0.7c0.68,0,1.19,0.22,1.54,0.65c0.35,0.43,0.52,0.97,0.52,1.61V58.82z
	 M188.32,57.27c0.37-0.62,0.99-0.93,1.85-0.93c0.6,0,1.09,0.19,1.48,0.58c0.39,0.39,0.58,0.86,0.58,1.41h1.49l0.02-0.05
	c0.02-0.91-0.3-1.67-0.97-2.3s-1.53-0.94-2.59-0.94c-1.31,0-2.31,0.43-3.01,1.29c-0.7,0.86-1.05,1.93-1.05,3.22v0.35
	c0,1.3,0.35,2.37,1.04,3.23c0.7,0.86,1.7,1.29,3.01,1.29c0.96,0,1.8-0.3,2.52-0.91s1.07-1.3,1.04-2.08l-0.02-0.05h-1.48
	c0,0.49-0.21,0.9-0.62,1.24c-0.42,0.34-0.9,0.5-1.44,0.5c-0.87,0-1.49-0.31-1.85-0.92s-0.55-1.38-0.55-2.31v-0.35
	C187.76,58.65,187.95,57.89,188.32,57.27z M202.03,59.42c-0.59-0.51-1.42-0.77-2.49-0.77h-2.25v-3.44h-1.64v9.03h3.89
	c1.06,0,1.88-0.27,2.48-0.8c0.6-0.53,0.9-1.21,0.9-2.03C202.92,60.6,202.63,59.93,202.03,59.42z M200.85,62.53
	c-0.28,0.28-0.72,0.42-1.31,0.42h-2.25v-3.01h2.25c0.58,0,1.02,0.15,1.3,0.46c0.28,0.3,0.43,0.66,0.43,1.07
	C201.27,61.89,201.13,62.24,200.85,62.53z"/>
</svg>
