<?xml version="1.0" encoding="utf-8"?>
<!-- Generator: Adobe Illustrator 23.0.3, SVG Export Plug-In . SVG Version: 6.00 Build 0)  -->
<svg version="1.1" id="Layer_1" xmlns="http://www.w3.org/2000/svg" xmlns:xlink="http://www.w3.org/1999/xlink" x="0px" y="0px"
	 viewBox="0 0 104.8 42.1" style="enable-background:new 0 0 104.8 42.1;" xml:space="preserve" width="78px" heigth="32px">
<style type="text/css">
	.st0{fill:#9AC352;}
	.st1{fill:#62ACE2;}
	.st2{fill:#030706;}
	.st3{fill:#595A5C;}
</style>
<path class="st0" d="M35.8,41.5h-6.4v-41h6.4V41.5z"/>
<path class="st1" d="M47.6,41.5h-6.4v-41h6.4V41.5z"/>
<path class="st2" d="M24.4,35V22.3c0-3.2-1-5.6-3-7.2c-2-1.7-4.7-2.5-8-2.5c-3.4,0-6.2,0.9-8.3,2.6c-2.1,1.7-3.1,3.7-3,6l0,0.2h6.1
	c0-1.1,0.4-2,1.3-2.7s2-1.1,3.5-1.1c1.6,0,2.9,0.4,3.8,1.3c0.9,0.8,1.3,2,1.3,3.5v2.5h-5c-3.9,0-7,0.8-9.2,2.3
	c-2.2,1.5-3.3,3.7-3.3,6.4c0,2.7,0.8,4.8,2.4,6.3c1.6,1.5,3.9,2.3,6.8,2.3c1.8,0,3.4-0.5,4.8-1.4s2.6-2,3.5-3.3
	c0.1,0.7,0.2,1.4,0.3,2c0.1,0.7,0.3,1.4,0.6,2.1h6.5c-0.4-1-0.6-2.1-0.8-3.2C24.5,37.3,24.4,36.2,24.4,35z M18,33
	c-0.4,1-1.3,2-2.6,2.8c-1.3,0.8-2.7,1.2-4.3,1.2c-1.3,0-2.3-0.3-3-1C7.4,35.4,7,34.5,7,33.4c0-1.2,0.5-2.3,1.6-3.2
	c1.1-0.9,2.5-1.4,4.4-1.4H18V33z M66.4,12.6c-1.6,0-3.1,0.3-4.3,1c-1.2,0.6-2.3,1.6-3.2,2.8V0.6h-6.4v41h5.4l0.6-3.7
	c0.9,1.4,2,2.4,3.3,3.2c1.3,0.7,2.8,1.1,4.6,1.1c3.5,0,6.2-1.3,8.2-3.8c1.9-2.5,2.9-5.9,2.9-10v-0.6c0-4.6-1-8.2-2.9-11
	C72.7,14,69.9,12.6,66.4,12.6z M71.1,28.3c0,2.6-0.5,4.7-1.5,6.3c-1,1.5-2.6,2.3-4.8,2.3c-1.5,0-2.7-0.3-3.6-0.9
	c-1-0.6-1.7-1.5-2.3-2.6V21.4c0.6-1.1,1.3-2,2.3-2.6c1-0.6,2.1-0.9,3.6-0.9c2.2,0,3.8,0.9,4.8,2.7s1.5,4.2,1.5,7.2V28.3z M87.5,20.3
	c1-1.7,2.7-2.6,5.1-2.6c1.6,0,3,0.5,4,1.6c1,1.1,1.5,2.4,1.5,4h5.8l0.1-0.2c0.1-3.1-1-5.6-3.1-7.6c-2.1-2-4.9-3-8.3-3
	c-4.2,0-7.4,1.4-9.6,4.1c-2.2,2.7-3.3,6.1-3.3,10.2v0.9c0,4.1,1.1,7.5,3.3,10.2c2.2,2.7,5.4,4,9.6,4c3.2,0,5.9-1,8.1-2.9
	c2.2-1.9,3.3-4.2,3.2-6.9l-0.1-0.2h-5.8c0,1.4-0.5,2.5-1.6,3.4c-1.1,0.9-2.4,1.4-3.9,1.4c-2.4,0-4.1-0.9-5.1-2.6
	c-1-1.7-1.5-3.9-1.5-6.6v-0.9C86,24.2,86.5,22,87.5,20.3z M107.6,41.5h6.4v-6.1h-6.4V41.5z M120.2,6.1h6.4V0.6h-6.4V6.1z
	 M120.2,41.5h6.4V13.1h-6.4V41.5z M146,12.6c-1.8,0-3.4,0.4-4.8,1.2s-2.6,1.9-3.5,3.4l-0.4-4.1h-5.8v28.4h6.4V20.9
	c0.6-1,1.4-1.7,2.4-2.3c1-0.6,2.1-0.8,3.3-0.8c1.8,0,3.1,0.5,4,1.4c0.9,0.9,1.3,2.4,1.3,4.6v17.8h6.4V23.7c0-3.8-0.8-6.6-2.5-8.4
	S149,12.6,146,12.6z M169.4,6.4c0.7-0.8,1.7-1.2,3.1-1.2c0.5,0,0.9,0,1.4,0.1c0.4,0.1,0.8,0.1,1.2,0.2l0.7-4.9
	c-0.8-0.2-1.5-0.3-2.1-0.4C173,0,172.3,0,171.7,0c-3.1,0-5.5,0.8-7.2,2.5c-1.7,1.7-2.6,4.1-2.6,7.2v3.3h-4.3v4.7h4.3v23.7h6.4V17.8
	h5.8v-4.7h-5.8V9.8C168.4,8.3,168.7,7.2,169.4,6.4z M198,16.6c-2.3-2.7-5.5-4.1-9.6-4.1c-4,0-7.2,1.4-9.5,4.1
	c-2.3,2.7-3.5,6.2-3.5,10.4v0.6c0,4.3,1.2,7.7,3.5,10.4c2.3,2.7,5.5,4,9.6,4c4,0,7.2-1.3,9.5-4c2.3-2.7,3.5-6.2,3.5-10.5V27
	C201.5,22.8,200.4,19.3,198,16.6z M195.2,27.6c0,2.8-0.6,5-1.7,6.8c-1.1,1.7-2.8,2.6-5,2.6c-2.3,0-4-0.9-5-2.6
	c-1.1-1.7-1.6-4-1.6-6.8V27c0-2.7,0.5-4.9,1.6-6.7c1.1-1.8,2.8-2.6,5-2.6c2.3,0,3.9,0.9,5,2.6c1.1,1.7,1.7,4,1.7,6.7V27.6z"/>
<path class="st3" d="M6.1,56.4c0.6-0.2,1-0.5,1.4-0.9S8,54.6,8,54c0-1.1-0.4-1.9-1.1-2.5c-0.7-0.5-1.7-0.8-3-0.8H0v12.2h4.5
	c1.2,0,2.2-0.3,2.9-0.9s1.1-1.4,1.1-2.6c0-0.7-0.2-1.4-0.6-2C7.5,56.9,6.9,56.6,6.1,56.4z M1.6,52H4c0.8,0,1.4,0.2,1.8,0.5
	c0.4,0.3,0.6,0.8,0.6,1.5c0,0.6-0.2,1.1-0.6,1.4c-0.4,0.3-0.9,0.5-1.5,0.5H1.6V52z M6.2,61.1c-0.4,0.4-1,0.6-1.7,0.6H1.6v-4.4h3.1
	c0.7,0,1.3,0.2,1.6,0.6c0.3,0.4,0.5,1,0.5,1.7C6.9,60.2,6.7,60.7,6.2,61.1z M12.4,55.9c0.4-0.6,1-0.9,1.8-0.9c0.6,0,1.1,0.2,1.5,0.6
	c0.4,0.4,0.6,0.9,0.6,1.4h1.5l0,0c0-0.9-0.3-1.7-1-2.3c-0.7-0.6-1.5-0.9-2.6-0.9c-1.3,0-2.3,0.4-3,1.3c-0.7,0.9-1,1.9-1,3.2v0.4
	c0,1.3,0.3,2.4,1,3.2c0.7,0.9,1.7,1.3,3,1.3c1,0,1.8-0.3,2.5-0.9c0.7-0.6,1.1-1.3,1-2.1l0,0h-1.5c0,0.5-0.2,0.9-0.6,1.2
	c-0.4,0.3-0.9,0.5-1.4,0.5c-0.9,0-1.5-0.3-1.9-0.9s-0.6-1.4-0.6-2.3v-0.3C11.9,57.3,12.1,56.5,12.4,55.9z M23.2,53.7
	c-1,0-2,0.4-2.7,1.3c-0.8,0.9-1.1,1.9-1.1,3.2v0.4c0,1.3,0.4,2.4,1.1,3.3s1.7,1.3,3,1.3c0.8,0,1.4-0.1,1.9-0.3s1-0.5,1.3-0.8
	L26,60.9c-0.3,0.3-0.7,0.5-1.1,0.7c-0.4,0.2-0.9,0.2-1.5,0.2c-0.8,0-1.4-0.3-1.8-0.8S21,59.7,21,58.8l0,0h5.9v-1
	c0-1.2-0.3-2.2-0.9-2.9C25.3,54.1,24.4,53.7,23.2,53.7z M25.2,57.5h-4.2l0,0c0.1-0.7,0.3-1.3,0.7-1.7s0.9-0.7,1.4-0.7
	c0.7,0,1.2,0.2,1.5,0.6c0.3,0.4,0.5,1,0.5,1.6V57.5z M37,54.4c-0.6,0-1.1,0.1-1.6,0.3c-0.5,0.2-0.9,0.5-1.2,0.9l0,0
	c0.1-0.9,0.5-1.6,1-2c0.5-0.5,1.2-0.7,1.9-0.9c1-0.2,1.8-0.4,2.3-0.7C39.8,51.6,40,51,40,50l0,0h-1.3c0,0.4-0.2,0.7-0.5,0.9
	s-0.8,0.3-1.5,0.5c-1.3,0.3-2.3,0.9-3,2c-0.7,1.1-1.1,2.5-1.1,4.3v1.2c0,1.3,0.4,2.4,1.1,3.2c0.7,0.8,1.7,1.2,3,1.2
	c1.2,0,2.2-0.4,3-1.2c0.7-0.8,1.1-1.9,1.1-3.2v-0.2c0-1.2-0.3-2.2-1-2.9C39,54.8,38.1,54.4,37,54.4z M39,58.7c0,0.9-0.2,1.7-0.6,2.2
	c-0.4,0.6-1,0.9-1.8,0.9c-0.8,0-1.4-0.3-1.8-0.9c-0.4-0.6-0.6-1.3-0.6-2.2v-0.2c0-0.8,0.2-1.5,0.6-2c0.4-0.5,1-0.8,1.8-0.8
	c0.8,0,1.4,0.3,1.8,0.8c0.4,0.5,0.6,1.2,0.6,2V58.7z M44,60.3L44,60.3l-0.1-6.4h-1.6v9h1.6l4-6.4l0,0v6.4h1.6v-9H48L44,60.3z
	 M57.1,58.3c0.4-0.2,0.8-0.5,1-0.8c0.2-0.3,0.4-0.7,0.4-1.1c0-0.8-0.3-1.5-0.9-1.9c-0.6-0.5-1.4-0.7-2.5-0.7c-1,0-1.8,0.2-2.5,0.7
	c-0.7,0.5-1,1.1-0.9,1.9l0,0h1.6c0-0.4,0.2-0.7,0.5-1c0.4-0.3,0.8-0.4,1.3-0.4c0.6,0,1,0.1,1.3,0.4s0.4,0.6,0.4,1
	c0,0.4-0.1,0.7-0.4,1c-0.3,0.2-0.7,0.3-1.2,0.3h-1.6V59h1.6c0.6,0,1.1,0.1,1.3,0.3s0.4,0.6,0.4,1.1c0,0.4-0.2,0.8-0.5,1
	c-0.3,0.3-0.8,0.4-1.4,0.4c-0.6,0-1.1-0.2-1.4-0.5s-0.6-0.7-0.6-1.1h-1.6l0,0.1c0,0.9,0.3,1.6,1,2.1c0.7,0.5,1.5,0.7,2.5,0.7
	c1.1,0,1.9-0.2,2.6-0.7s1-1.1,1-2c0-0.5-0.1-0.9-0.4-1.3C58,58.7,57.6,58.4,57.1,58.3z M66.4,57.8h-4v-3.9h-1.6v9h1.6v-3.8h4v3.8H68
	v-9h-1.6V57.8z M73.9,53.7c-1,0-2,0.4-2.7,1.3c-0.8,0.9-1.1,1.9-1.1,3.2v0.4c0,1.3,0.4,2.4,1.1,3.3s1.7,1.3,3,1.3
	c0.8,0,1.4-0.1,1.9-0.3s1-0.5,1.3-0.8l-0.6-1.1c-0.3,0.3-0.7,0.5-1.1,0.7c-0.4,0.2-0.9,0.2-1.5,0.2c-0.8,0-1.4-0.3-1.8-0.8
	s-0.6-1.3-0.7-2.1l0,0h5.9v-1c0-1.2-0.3-2.2-0.9-2.9C76.1,54.1,75.1,53.7,73.9,53.7z M76,57.5h-4.2l0,0c0.1-0.7,0.3-1.3,0.7-1.7
	s0.9-0.7,1.4-0.7c0.7,0,1.2,0.2,1.5,0.6c0.3,0.4,0.5,1,0.5,1.6V57.5z M81.3,55.9c0.4-0.6,1-0.9,1.8-0.9c0.6,0,1.1,0.2,1.5,0.6
	c0.4,0.4,0.6,0.9,0.6,1.4h1.5l0,0c0-0.9-0.3-1.7-1-2.3c-0.7-0.6-1.5-0.9-2.6-0.9c-1.3,0-2.3,0.4-3,1.3c-0.7,0.9-1,1.9-1,3.2v0.4
	c0,1.3,0.3,2.4,1,3.2c0.7,0.9,1.7,1.3,3,1.3c1,0,1.8-0.3,2.5-0.9c0.7-0.6,1.1-1.3,1-2.1l0,0h-1.5c0,0.5-0.2,0.9-0.6,1.2
	c-0.4,0.3-0.9,0.5-1.4,0.5c-0.9,0-1.5-0.3-1.9-0.9s-0.6-1.4-0.6-2.3v-0.3C80.7,57.3,80.9,56.5,81.3,55.9z M87.6,58.4h4.1v-1.3h-4.1
	V58.4z M100.5,53.9h-1.6v7.7h-4v-7.7h-1.6v9h6.8v3h1.6v-4.2h-1.1V53.9z M106.9,53.7c-1,0-2,0.4-2.7,1.3c-0.8,0.9-1.1,1.9-1.1,3.2
	v0.4c0,1.3,0.4,2.4,1.1,3.3s1.7,1.3,3,1.3c0.8,0,1.4-0.1,1.9-0.3c0.5-0.2,1-0.5,1.3-0.8l-0.6-1.1c-0.3,0.3-0.7,0.5-1.1,0.7
	c-0.4,0.2-0.9,0.2-1.5,0.2c-0.8,0-1.4-0.3-1.8-0.8s-0.6-1.3-0.7-2.1l0,0h5.9v-1c0-1.2-0.3-2.2-0.9-2.9
	C109,54.1,108.1,53.7,106.9,53.7z M108.9,57.5h-4.2l0,0c0.1-0.7,0.3-1.3,0.7-1.7s0.9-0.7,1.4-0.7c0.7,0,1.2,0.2,1.5,0.6
	c0.3,0.4,0.5,1,0.5,1.6V57.5z M118.1,57.8h-4v-3.9h-1.6v9h1.6v-3.8h4v3.8h1.6v-9h-1.6V57.8z M121.5,55.2h2.9v7.7h1.6v-7.7h3v-1.3
	h-7.6V55.2z M135.1,53.7c-0.6,0-1.1,0.1-1.5,0.3s-0.8,0.6-1.1,1l-0.3-1.2h-1.3v12.5h1.6V62c0.3,0.4,0.7,0.7,1.1,0.8s0.9,0.3,1.5,0.3
	c1.1,0,2-0.4,2.6-1.2s0.9-1.8,0.9-3.2v-0.2c0-1.5-0.3-2.6-0.9-3.5C137,54.1,136.2,53.7,135.1,53.7z M136.9,58.7
	c0,0.9-0.2,1.6-0.6,2.2c-0.4,0.6-1,0.9-1.8,0.9c-0.5,0-0.9-0.1-1.2-0.3c-0.3-0.2-0.6-0.5-0.8-0.9v-4.4c0.2-0.4,0.5-0.7,0.8-0.9
	s0.7-0.3,1.2-0.3c0.8,0,1.4,0.3,1.8,1c0.4,0.7,0.6,1.5,0.6,2.5V58.7z M149.7,62.9h1.6v-9h-1.6V62.9z M144.8,57.3h-2.2v-3.4h-1.6v9
	h3.9c1.1,0,1.9-0.3,2.5-0.8c0.6-0.5,0.9-1.2,0.9-2c0-0.8-0.3-1.5-0.9-2S145.8,57.3,144.8,57.3z M146.1,61.2
	c-0.3,0.3-0.7,0.4-1.3,0.4h-2.2v-3h2.2c0.6,0,1,0.2,1.3,0.5c0.3,0.3,0.4,0.7,0.4,1.1C146.5,60.6,146.3,60.9,146.1,61.2z M163.5,58.3
	c0.4-0.2,0.8-0.5,1-0.8s0.4-0.7,0.4-1.1c0-0.8-0.3-1.5-0.9-1.9c-0.6-0.5-1.4-0.7-2.5-0.7c-1,0-1.8,0.2-2.5,0.7
	c-0.7,0.5-1,1.1-0.9,1.9l0,0h1.6c0-0.4,0.2-0.7,0.5-1c0.4-0.3,0.8-0.4,1.3-0.4c0.6,0,1,0.1,1.3,0.4c0.3,0.3,0.4,0.6,0.4,1
	c0,0.4-0.1,0.7-0.4,1c-0.3,0.2-0.7,0.3-1.2,0.3H160V59h1.6c0.6,0,1.1,0.1,1.3,0.3c0.3,0.2,0.4,0.6,0.4,1.1c0,0.4-0.2,0.8-0.5,1
	c-0.3,0.3-0.8,0.4-1.4,0.4c-0.6,0-1.1-0.2-1.4-0.5s-0.6-0.7-0.6-1.1H158l0,0.1c0,0.9,0.3,1.6,1,2.1c0.7,0.5,1.5,0.7,2.5,0.7
	c1.1,0,1.9-0.2,2.6-0.7s1-1.1,1-2c0-0.5-0.1-0.9-0.4-1.3C164.4,58.7,164,58.4,163.5,58.3z M174.5,53.9h-5.9l-0.1,3.4
	c-0.1,1.2-0.2,2.1-0.5,2.7c-0.2,0.6-0.6,1.1-1.1,1.7h-0.7l0.2,3.9h1.5v-2.7h6.2v2.7h1.5l0.2-3.9h-1.2V53.9z M172.9,61.6h-4
	c0.4-0.5,0.6-1.1,0.9-1.8s0.4-1.6,0.4-2.6l0.1-1.9h2.7V61.6z M181,53.7c-1,0-2,0.4-2.7,1.3c-0.8,0.9-1.1,1.9-1.1,3.2v0.4
	c0,1.3,0.4,2.4,1.1,3.3c0.7,0.8,1.7,1.3,3,1.3c0.8,0,1.4-0.1,1.9-0.3s1-0.5,1.3-0.8l-0.6-1.1c-0.3,0.3-0.7,0.5-1.1,0.7
	c-0.4,0.2-0.9,0.2-1.5,0.2c-0.8,0-1.4-0.3-1.8-0.8s-0.6-1.3-0.7-2.1l0,0h5.9v-1c0-1.2-0.3-2.2-0.9-2.9
	C183.1,54.1,182.2,53.7,181,53.7z M183,57.5h-4.2l0,0c0.1-0.7,0.3-1.3,0.7-1.7s0.9-0.7,1.4-0.7c0.7,0,1.2,0.2,1.5,0.6
	c0.3,0.4,0.5,1,0.5,1.6V57.5z M188.3,55.9c0.4-0.6,1-0.9,1.8-0.9c0.6,0,1.1,0.2,1.5,0.6c0.4,0.4,0.6,0.9,0.6,1.4h1.5l0,0
	c0-0.9-0.3-1.7-1-2.3s-1.5-0.9-2.6-0.9c-1.3,0-2.3,0.4-3,1.3c-0.7,0.9-1,1.9-1,3.2v0.4c0,1.3,0.3,2.4,1,3.2c0.7,0.9,1.7,1.3,3,1.3
	c1,0,1.8-0.3,2.5-0.9s1.1-1.3,1-2.1l0,0h-1.5c0,0.5-0.2,0.9-0.6,1.2c-0.4,0.3-0.9,0.5-1.4,0.5c-0.9,0-1.5-0.3-1.9-0.9
	s-0.6-1.4-0.6-2.3v-0.3C187.8,57.3,187.9,56.5,188.3,55.9z M202,58.1c-0.6-0.5-1.4-0.8-2.5-0.8h-2.2v-3.4h-1.6v9h3.9
	c1.1,0,1.9-0.3,2.5-0.8c0.6-0.5,0.9-1.2,0.9-2C202.9,59.3,202.6,58.6,202,58.1z M200.8,61.2c-0.3,0.3-0.7,0.4-1.3,0.4h-2.2v-3h2.2
	c0.6,0,1,0.2,1.3,0.5c0.3,0.3,0.4,0.7,0.4,1.1C201.3,60.6,201.1,60.9,200.8,61.2z"/>
</svg>
