<svg xmlns="http://www.w3.org/2000/svg" width="16" height="16" viewBox="0 0 16 16"><g><g><g><path fill="#e42626" d="M7.969 14.845c-3.776 0-6.877-3.08-6.877-6.856 0-3.795 3.101-6.937 6.877-6.937 3.757 0 6.838 3.16 6.838 6.937 0 3.737-3.08 6.856-6.838 6.856zM7.964 0C3.574 0 0 3.575 0 7.984c0 4.37 3.575 7.905 7.964 7.905a7.892 7.892 0 0 0 7.925-7.905C15.889 3.574 12.195 0 7.964 0z"/></g><g><path fill="#e42626" d="M11.02 3.77c-.495 0-.694.219-.912.656L7.962 8.894h-.02L5.779 4.426c-.22-.438-.417-.656-.914-.656-.655 0-.874.417-.874.814v6.931c0 .379.298.596.655.596.318 0 .675-.218.675-.596V6.352h.02l1.967 4.012c.139.278.318.437.636.437.317 0 .496-.16.635-.437l1.966-4.012h.02v5.163c0 .379.357.596.675.596.358 0 .656-.218.656-.596v-6.93c0-.398-.218-.815-.874-.815z"/></g></g></g></svg>