<?xml version="1.0" encoding="UTF-8"?>
<svg width="35px" height="40px" viewBox="0 0 35 40" version="1.1" xmlns="http://www.w3.org/2000/svg" xmlns:xlink="http://www.w3.org/1999/xlink">
    <!-- Generator: Sketch 54.1 (76490) - https://sketchapp.com -->
    <title>005-parquet-1</title>
    <desc>Created with Sketch.</desc>
    <g id="Inside" stroke="none" stroke-width="1" fill="none" fill-rule="evenodd">
        <g id="allbc.info_business_center_1140px-_2" transform="translate(-160.000000, -1570.000000)" fill="#3EB060" fill-rule="nonzero">
            <g id="Group-9">
                <g id="005-parquet-1" transform="translate(160.000000, 1570.000000)">
                    <path d="M34.2068481,32.6177978 L29.1360473,32.6177978 L29.1360473,26.993103 C29.1360473,26.6696167 28.8735962,26.4071655 28.5501098,26.4071655 L19.8117066,26.4071655 L19.8117066,17.3962402 C19.8117066,17.0727539 19.5495605,16.8103027 19.2257691,16.8103027 C18.9022827,16.8103027 18.6398316,17.0727539 18.6398316,17.3962402 L18.6398316,26.4071655 L13.6013794,26.4071655 L13.6013794,12.0443726 L18.6398316,12.0443726 L18.6398316,15.0524902 C18.6398316,15.3759766 18.9022827,15.6384277 19.2257691,15.6384277 C19.5495605,15.6384277 19.8117066,15.3759766 19.8117066,15.0524902 L19.8117066,11.4584351 C19.8117066,11.1346436 19.5495605,10.8724976 19.2257691,10.8724976 L0.5859375,10.8724976 C0.262146016,10.8724976 3.80140364e-13,11.1346436 3.80140364e-13,11.4584351 C0.000305175782,12.0120239 0.00762939063,28.6508179 0.00854492188,31.1193848 C0.00854492188,31.4431762 0.270996094,31.7053223 0.594482422,31.7053223 C0.918273906,31.7053223 1.18041992,31.4431762 1.18041992,31.1193848 L1.18041992,24.465332 L6.21887203,24.465332 L6.21887203,38.828125 L1.18041992,38.828125 L1.18041992,33.4631348 C1.18041992,33.1393433 0.918273906,32.8771973 0.594482422,32.8771973 C0.270996094,32.8771973 0.00854492188,33.1393433 0.00854492188,33.4631348 L0.00854492188,39.4140625 C0.00854492188,39.737854 0.270996094,40 0.594482422,40 L34.2068481,40 C34.5306397,40 34.7927856,39.737854 34.7927856,39.4140625 L34.7927856,33.2037353 C34.7927856,32.8799438 34.5306397,32.6177978 34.2068481,32.6177978 L34.2068481,32.6177978 Z M27.9641723,27.5790405 L27.9641723,32.6177978 L13.6013794,32.6177978 L13.6013794,27.5790405 L27.9641723,27.5790405 Z M7.39074703,32.6177978 L7.39074703,18.2550048 L12.4295044,18.2550048 L12.4295044,32.6177978 L7.39074703,32.6177978 Z M1.171875,12.0443726 L12.4295044,12.0443726 L12.4295044,17.0831298 L1.171875,17.0831298 L1.171875,12.0443726 Z M1.171875,23.293457 L1.171875,18.2550048 L6.21917727,18.2550048 L6.21917727,23.293457 L1.171875,23.293457 Z M7.39074703,33.7896728 L21.7538452,33.7896728 L21.7538452,38.828125 L7.39074703,38.828125 L7.39074703,33.7896728 Z M33.6209106,38.828125 L22.9257202,38.828125 L22.9257202,33.7896728 L33.6209106,33.7896728 L33.6209106,38.828125 Z" id="Shape"></path>
                    <path d="M34.2068481,1.49213975e-13 L18.6721802,1.49213975e-13 C18.3486938,1.49213975e-13 18.0862427,0.262146016 18.0862427,0.5859375 L18.0862427,6.79626469 C18.0862427,7.12005617 18.3486938,7.38220219 18.6721802,7.38220219 L27.4105835,7.38220219 L27.4105835,22.3309327 C27.4105835,22.6547241 27.6727295,22.9168702 27.996521,22.9168702 L34.2068481,22.9168702 C34.5306397,22.9168702 34.7927856,22.6547241 34.7927856,22.3309327 L34.7927856,0.5859375 C34.7927856,0.262146016 34.5306397,1.49213975e-13 34.2068481,1.49213975e-13 Z M19.2581177,1.171875 L33.6209106,1.171875 L33.6209106,6.21032719 L19.2581177,6.21032719 L19.2581177,1.171875 Z M33.6209106,21.7449952 L28.5824585,21.7449952 L28.5824585,7.38220219 L33.6209106,7.38220219 L33.6209106,21.7449952 Z" id="Shape"></path>
                </g>
            </g>
        </g>
    </g>
</svg>