<?xml version="1.0" encoding="UTF-8"?>
<svg width="40px" height="40px" viewBox="0 0 40 40" version="1.1" xmlns="http://www.w3.org/2000/svg" xmlns:xlink="http://www.w3.org/1999/xlink">
    <!-- Generator: Sketch 54.1 (76490) - https://sketchapp.com -->
    <title>003-parquet</title>
    <desc>Created with Sketch.</desc>
    <g id="Inside" stroke="none" stroke-width="1" fill="none" fill-rule="evenodd">
        <g id="allbc.info_business_center_1140px-_2" transform="translate(-158.000000, -1433.000000)" fill="#3EB060" fill-rule="nonzero">
            <g id="Group-9">
                <g id="003-parquet" transform="translate(158.000000, 1433.000000)">
                    <path d="M39.1747518,39.8839716 L0.709219858,39.8839716 C0.317446809,39.8839716 -3.48165941e-13,39.5665248 -3.48165941e-13,39.1747518 L-3.48165941e-13,0.709219858 C-3.48165941e-13,0.317446809 0.317446809,-3.48165941e-13 0.709219858,-3.48165941e-13 L39.1747518,-3.48165941e-13 C39.5665248,-3.48165941e-13 39.8839716,0.317446809 39.8839716,0.709219858 L39.8839716,39.1747518 C39.8839716,39.5665248 39.5665248,39.8839716 39.1747518,39.8839716 Z M29.8207092,38.4655319 L38.4655319,38.4655319 L38.4655319,29.8207092 L30.4468085,37.8394326 C30.4456738,37.8405674 30.444539,37.8419858 30.4431206,37.8431206 C30.4419858,37.8442553 30.4405674,37.8456738 30.4394326,37.8468085 L29.8207092,38.4655319 Z M18.7807092,38.4655319 L27.8150355,38.4655319 L28.9390071,37.3415603 L24.421844,32.8243972 L18.7807092,38.4655319 Z M8.47347518,38.4655319 L16.7747518,38.4655319 L29.1043972,26.1358865 L24.9537589,21.9852482 L11.861844,35.0771631 L11.861844,35.0771631 L8.47347518,38.4655319 Z M1.41843972,38.4655319 L6.46751773,38.4655319 L10.3574468,34.5756028 L5.99943262,30.2175887 L1.41843972,34.7985816 L1.41843972,38.4655319 Z M25.4246809,31.8212766 L29.941844,36.3384397 L38.4655319,27.8147518 L38.4655319,18.7807092 L30.6087943,26.6374468 L30.6087943,26.6374468 L25.4246809,31.8212766 Z M7.00255319,29.2144681 L11.3602837,33.5724823 L33.1114894,11.8212766 L28.7534752,7.46326241 L20.2260993,15.990922 C20.2252482,15.9914894 20.2246809,15.9920567 20.2241135,15.9926241 L7.00255319,29.2144681 Z M1.41843972,23.2649645 L1.41843972,32.7923404 L5.49049645,28.72 C5.49304965,28.7177305 5.49531915,28.7151773 5.49758865,28.7129078 C5.49985816,28.7103546 5.50241135,28.7080851 5.50468085,28.7058156 L18.7194326,15.4907801 L14.0553191,10.8266667 L1.41843972,23.2649645 Z M25.9565957,20.9821277 L30.107234,25.132766 L38.4448227,16.795461 C38.4516312,16.7886525 38.4587234,16.781844 38.4655319,16.7753191 L38.4655319,8.47319149 L25.9565957,20.9821277 Z M1.41843972,11.6902128 L1.41843972,21.2746099 L7.03489362,15.746383 L2.22212766,10.9333333 L1.41843972,11.6902128 Z M3.25503546,9.96028369 L8.04595745,14.7512057 L21.5438298,1.46553191 L12.2737589,1.46553191 L3.25503546,9.96028369 Z M15.0660993,9.83148936 L19.7225532,14.4879433 L32.7923404,1.41843972 L23.613617,1.41843972 L15.0660993,9.83148936 Z M29.7563121,6.46042553 L34.1143262,10.8184397 L38.4655319,6.46723404 L38.4655319,1.41843972 L34.7982979,1.41843972 L29.7563121,6.46042553 Z M1.41843972,1.41843972 L1.41843972,9.74184397 L1.68368794,9.49219858 C1.6987234,9.47404255 1.71432624,9.45673759 1.73134752,9.43971631 C1.75858156,9.41248227 1.78751773,9.38780142 1.81787234,9.36595745 L10.2547518,1.41843972 L1.41843972,1.41843972 Z" id="Shape"></path>
                </g>
            </g>
        </g>
    </g>
</svg>