<?xml version="1.0" encoding="UTF-8"?>
<svg width="46px" height="46px" viewBox="0 0 46 46" version="1.1" xmlns="http://www.w3.org/2000/svg" xmlns:xlink="http://www.w3.org/1999/xlink">
    <!-- Generator: Sketch 54.1 (76490) - https://sketchapp.com -->
    <title>003-pinterest</title>
    <desc>Created with Sketch.</desc>
    <g id="Inside" stroke="none" stroke-width="1" fill="none" fill-rule="evenodd">
        <g id="allbc.info_business_center_1140px-_2" transform="translate(-951.000000, -678.000000)" fill-rule="nonzero">
            <g id="003-pinterest" transform="translate(951.000000, 678.000000)">
                <circle id="Oval" fill="#CB2027" cx="22.8367611" cy="22.8371681" r="22.836354"></circle>
                <path d="M24.6800177,30.5806372 C22.9535929,30.447115 22.228177,29.5910265 20.8742301,28.7691327 C20.1300885,32.6734336 19.2206726,36.4161239 16.5270265,38.3713274 C15.6945487,32.4703009 17.7474513,28.0380177 18.7008319,23.3333982 C17.0757699,20.597823 18.8962301,15.0916637 22.3238407,16.4484602 C26.5424071,18.1166726 18.6715221,26.6201593 23.9554159,27.6822301 C29.4717522,28.791115 31.7237168,18.1105664 28.3026195,14.6365487 C23.3598584,9.62092035 13.9152035,14.5225664 15.0766018,21.7026372 C15.3595221,23.4579646 17.173469,23.9908319 15.8012035,26.4129558 C12.6377876,25.7123717 11.694177,23.2173805 11.8154867,19.8911327 C12.011292,14.4464425 16.7077699,10.6341416 21.4184956,10.1065664 C27.3761062,9.43976991 32.9677522,12.2942124 33.7395752,17.8980708 C34.6078761,24.2228673 31.05,31.0723894 24.6800177,30.5806372 L24.6800177,30.5806372 Z" id="Path" fill="#F1F2F2"></path>
            </g>
        </g>
    </g>
</svg>