<svg xmlns="http://www.w3.org/2000/svg" xmlns:xlink="http://www.w3.org/1999/xlink" width="19" height="19" viewBox="0 0 19 19"><defs><path id="ylu3a" d="M1066.4 38.665c.851 0 1.656-.164 2.415-.491a6.21 6.21 0 0 0 1.98-1.345 6.444 6.444 0 0 0 1.331-1.983 6.04 6.04 0 0 0 .49-2.43 6.04 6.04 0 0 0-.49-2.428 6.444 6.444 0 0 0-1.332-1.984 6.209 6.209 0 0 0-1.98-1.344 6.025 6.025 0 0 0-2.414-.491 6.07 6.07 0 0 0-2.433.491 6.21 6.21 0 0 0-1.98 1.344 6.444 6.444 0 0 0-1.331 1.984 6.04 6.04 0 0 0-.49 2.429c0 .865.163 1.675.49 2.429.327.754.77 1.415 1.332 1.983a6.209 6.209 0 0 0 1.98 1.345 6.07 6.07 0 0 0 2.432.49zm11.433 4.314c.111.112.167.251.167.418a.567.567 0 0 1-.167.417.584.584 0 0 1-.425.186.584.584 0 0 1-.426-.186l-5.735-5.789a7.49 7.49 0 0 1-2.22 1.336 7.179 7.179 0 0 1-2.627.483 7.188 7.188 0 0 1-2.886-.585 7.584 7.584 0 0 1-2.359-1.586 7.294 7.294 0 0 1-1.581-2.357 7.346 7.346 0 0 1-.574-2.894c0-1.027.191-1.992.574-2.895a7.294 7.294 0 0 1 1.581-2.356 7.584 7.584 0 0 1 2.36-1.587c.9-.39 1.861-.584 2.885-.584 1.012 0 1.967.195 2.868.584.9.39 1.686.919 2.359 1.587a7.418 7.418 0 0 1 1.59 2.356c.39.903.583 1.868.583 2.895 0 .903-.154 1.76-.462 2.57a7.71 7.71 0 0 1-1.258 2.18z"/></defs><g><g transform="translate(-1059 -25)"><use fill="#fff" xlink:href="#ylu3a"/></g></g></svg>