<svg xmlns="http://www.w3.org/2000/svg" width="19" height="19" viewBox="0 0 19 19"><g><g><path d="M4.967 13.174a6.21 6.21 0 0 1-1.98-1.345 6.444 6.444 0 0 1-1.331-1.983 6.04 6.04 0 0 1-.49-2.43c0-.864.163-1.674.49-2.428a6.444 6.444 0 0 1 1.332-1.984 6.209 6.209 0 0 1 1.98-1.344A6.07 6.07 0 0 1 7.4 1.17c.851 0 1.656.164 2.415.491a6.21 6.21 0 0 1 1.98 1.344 6.444 6.444 0 0 1 1.331 1.984 6.04 6.04 0 0 1 .49 2.429 6.04 6.04 0 0 1-.49 2.429 6.444 6.444 0 0 1-1.332 1.983 6.209 6.209 0 0 1-1.98 1.345 6.025 6.025 0 0 1-2.414.49 6.07 6.07 0 0 1-2.433-.49zm8.113-1.002a7.71 7.71 0 0 0 1.258-2.18c.308-.81.462-1.667.462-2.57a7.245 7.245 0 0 0-.582-2.895 7.418 7.418 0 0 0-3.95-3.943A7.142 7.142 0 0 0 7.4 0a7.188 7.188 0 0 0-2.886.584c-.9.39-1.687.919-2.359 1.587A7.294 7.294 0 0 0 .574 4.527 7.346 7.346 0 0 0 0 7.422c0 1.027.191 1.991.574 2.894.382.903.91 1.689 1.581 2.357a7.584 7.584 0 0 0 2.36 1.586c.9.39 1.862.585 2.885.585.925 0 1.8-.161 2.627-.483a7.49 7.49 0 0 0 2.22-1.336l5.735 5.79a.584.584 0 0 0 .426.185c.16 0 .302-.062.425-.186a.567.567 0 0 0 .167-.417.567.567 0 0 0-.167-.418z"/></g></g></svg>