<?xml version="1.0" encoding="UTF-8"?>
<svg width="31px" height="40px" viewBox="0 0 31 40" version="1.1" xmlns="http://www.w3.org/2000/svg" xmlns:xlink="http://www.w3.org/1999/xlink">
    <!-- Generator: Sketch 54.1 (76490) - https://sketchapp.com -->
    <title>013-security</title>
    <desc>Created with Sketch.</desc>
    <g id="Inside" stroke="none" stroke-width="1" fill="none" fill-rule="evenodd">
        <g id="allbc.info_business_center_1140px-_2" transform="translate(-162.000000, -2118.000000)" fill="#3EB060" fill-rule="nonzero">
            <g id="Group-9">
                <g id="013-security" transform="translate(162.000000, 2118.000000)">
                    <path d="M30.5396778,8.07958336 L15.612385,0.0879166933 C15.3909327,-0.03083328 15.1255217,-0.02916672 14.9057283,0.0920833067 L0.391481164,8.08374997 C0.153440658,8.215 0.00580586473,8.46583339 0.00580586473,8.73874997 L0.00580586473,19.1779167 C0.0145146884,27.7591667 5.07474045,35.5225001 12.9002167,38.9604166 L14.9148517,39.8425001 C15.1031277,39.925 15.31753,39.9254166 15.5062206,39.8433333 L17.7763137,38.8583333 C25.7469365,35.495 30.9324031,27.6566667 30.9332326,18.9708333 L30.9332326,8.73874997 C30.9332326,8.46291669 30.7818653,8.20916672 30.5396778,8.07958336 L30.5396778,8.07958336 Z M29.4469312,18.9708333 C29.4452724,27.0579167 24.6160371,34.355 17.1944831,37.4845834 L17.1895066,37.4870833 L15.2126097,38.3445834 L13.4949031,37.5916667 C6.21061644,34.3916667 1.4999866,27.1658334 1.4916925,19.1779167 L1.4916925,9.18083328 L15.2677654,1.595 L29.4469312,9.18625003 L29.4469312,18.9708333 Z" id="Shape"></path>
                    <path d="M9.78495561,18.69375 C9.51830051,18.38 9.04926956,18.3429167 8.736997,18.6108333 C8.42472445,18.8783333 8.38781566,19.35 8.65447076,19.6633333 L12.5800648,24.2820833 C12.8421581,24.5904166 13.301236,24.6325001 13.6139234,24.3766667 L22.7565014,16.9033333 C23.0749946,16.6433333 23.1231004,16.1729167 22.86391,15.8529167 C22.6051343,15.5333333 22.1369328,15.4845834 21.8184396,15.745 L13.2390304,22.7574999 L9.78495561,18.69375 Z" id="Path"></path>
                </g>
            </g>
        </g>
    </g>
</svg>