<?xml version="1.0" encoding="UTF-8"?>
<svg width="51px" height="33px" viewBox="0 0 51 33" version="1.1" xmlns="http://www.w3.org/2000/svg" xmlns:xlink="http://www.w3.org/1999/xlink">
    <!-- Generator: Sketch 54.1 (76490) - https://sketchapp.com -->
    <title>004-sprinkler</title>
    <desc>Created with Sketch.</desc>
    <g id="Inside" stroke="none" stroke-width="1" fill="none" fill-rule="evenodd">
        <g id="allbc.info_business_center_1140px-_2" transform="translate(-792.000000, -1433.000000)" fill="#3EB060" fill-rule="nonzero">
            <g id="Group-9">
                <g id="004-sprinkler" transform="translate(792.000000, 1433.000000)">
                    <path d="M2.49721053,1.76747605 L0.797011696,1.76747605 C0.356900585,1.76747605 2.60902411e-13,2.12207784 2.60902411e-13,2.55957485 C2.60902411e-13,2.99707186 0.35680117,3.35167365 0.797011696,3.35167365 L2.49721053,3.35167365 C2.93732164,3.35167365 3.29422222,2.99707186 3.29422222,2.55957485 C3.29422222,2.12207784 2.93732164,1.76747605 2.49721053,1.76747605 Z" id="Path"></path>
                    <path d="M50.1035731,1.76747605 L32.1980994,1.76747605 L32.1980994,1.71471557 C32.1980994,0.812056886 31.4592456,0.077757485 30.5509883,0.077757485 L20.3495965,0.077757485 C19.4413392,0.077757485 18.7024854,0.812056886 18.7024854,1.71471557 L18.7024854,1.76747605 L5.8977076,1.76747605 C5.45759649,1.76747605 5.10069591,2.12207784 5.10069591,2.55957485 C5.10069591,2.99707186 5.45749708,3.35167365 5.8977076,3.35167365 L18.7025848,3.35167365 L18.7025848,5.14701198 L0.797011696,5.14701198 C0.356900585,5.14701198 2.84217094e-14,5.50161377 2.84217094e-14,5.93911078 C2.84217094e-14,6.37660778 0.35680117,6.73120958 0.797011696,6.73120958 L18.7025848,6.73120958 L18.7025848,6.78397006 C18.7025848,7.68662874 19.4414386,8.42092814 20.3496959,8.42092814 L21.1997953,8.42092814 C21.2291228,8.42092814 21.252883,8.44454192 21.252883,8.47368862 L21.252883,10.1634072 C21.252883,10.7787485 21.5966608,11.3153443 22.1029825,11.5949551 L22.1029825,13.5957036 L22.0498947,13.5957036 C21.1416374,13.5957036 20.4027836,14.330003 20.4027836,15.2326617 L20.4027836,18.6649581 L17.7992982,18.6649581 C16.4222982,18.6649581 15.3020877,19.7782635 15.3020877,21.1467754 C15.3020877,22.5152874 16.4222982,23.6285928 17.7992982,23.6285928 L21.252883,23.6285928 L21.252883,25.5161138 C21.252883,26.178979 21.5125556,26.8023234 21.9842807,27.2710419 L24.6532807,29.923491 L24.6532807,31.3380449 L22.8998947,31.3380449 C22.4597836,31.3380449 22.102883,31.6926467 22.102883,32.1301437 C22.102883,32.5675419 22.4596842,32.9222425 22.8998947,32.9222425 L28.0005906,32.9222425 C28.4407018,32.9222425 28.7976023,32.5676407 28.7976023,32.1301437 C28.7976023,31.6927455 28.4408012,31.3380449 28.0005906,31.3380449 L26.2472047,31.3380449 L26.2472047,29.923491 L28.9162047,27.2709431 C29.3879298,26.8022246 29.6476023,26.178979 29.6476023,25.516015 L29.6476023,23.6285928 L33.1011871,23.6285928 C34.4781871,23.6285928 35.5983977,22.5152874 35.5983977,21.1467754 C35.5983977,19.7782635 34.4781871,18.6649581 33.1011871,18.6649581 L30.4977018,18.6649581 L30.4977018,15.2326617 C30.4977018,14.330003 29.758848,13.5957036 28.8505906,13.5957036 L28.7975029,13.5957036 L28.7975029,11.5949551 C29.3038246,11.3154431 29.6476023,10.7788473 29.6476023,10.1634072 L29.6476023,8.47368862 C29.6476023,8.44454192 29.6713626,8.42092814 29.7006901,8.42092814 L30.5507895,8.42092814 C31.4590468,8.42092814 32.1979006,7.68662874 32.1979006,6.78397006 L32.1979006,6.73120958 L45.0027778,6.73120958 C45.4428889,6.73120958 45.7997895,6.37660778 45.7997895,5.93911078 C45.7997895,5.50161377 45.4429883,5.14701198 45.0027778,5.14701198 L32.1980994,5.14701198 L32.1980994,3.35167365 L50.1036725,3.35167365 C50.5437836,3.35167365 50.9006842,2.99707186 50.9006842,2.55957485 C50.9006842,2.12207784 50.5437836,1.76747605 50.1035731,1.76747605 Z M28.0537778,25.5162126 C28.0537778,25.756006 27.9598304,25.9813743 27.7891345,26.151018 L25.4502924,28.4754431 L23.1114503,26.151018 C22.9408538,25.9814731 22.846807,25.756006 22.846807,25.5162126 L22.846807,23.6285928 L24.6532807,23.6285928 L24.6532807,25.3711707 C24.6532807,25.8085689 25.0100819,26.1632695 25.4502924,26.1632695 C25.8904035,26.1632695 26.2473041,25.8086677 26.2473041,25.3711707 L26.2473041,23.6285928 L28.0537778,23.6285928 L28.0537778,25.5162126 Z M28.8507895,15.1799012 C28.880117,15.1799012 28.9038772,15.203515 28.9038772,15.2326617 L28.9038772,18.6649581 L28.0005906,18.6649581 C27.5604795,18.6649581 27.2035789,19.0195599 27.2035789,19.4570569 C27.2035789,19.8945539 27.5603801,20.2491557 28.0005906,20.2491557 L33.1012865,20.2491557 C33.5993567,20.2491557 34.0045731,20.6518743 34.0045731,21.1468743 C34.0045731,21.6418743 33.5993567,22.0445928 33.1012865,22.0445928 L17.7992982,22.0445928 C17.3012281,22.0445928 16.8960117,21.6418743 16.8960117,21.1468743 C16.8960117,20.6518743 17.3012281,20.2491557 17.7992982,20.2491557 L24.600193,20.2491557 C25.0403041,20.2491557 25.3972047,19.8945539 25.3972047,19.4570569 C25.3972047,19.0195599 25.0404035,18.6649581 24.600193,18.6649581 L21.9967076,18.6649581 L21.9967076,15.2326617 C21.9967076,15.203515 22.0204678,15.1799012 22.0497953,15.1799012 L28.8507895,15.1799012 L28.8507895,15.1799012 Z M23.6969064,13.5957036 L23.6969064,11.8003653 L27.2035789,11.8003653 L27.2035789,13.5957036 L23.6969064,13.5957036 Z M30.604076,6.78397006 C30.604076,6.81311677 30.5803158,6.83673054 30.5509883,6.83673054 L29.7008889,6.83673054 C28.7926316,6.83673054 28.0537778,7.57102994 28.0537778,8.47368862 L28.0537778,10.1634072 C28.0537778,10.1925539 28.0300175,10.2161677 28.0006901,10.2161677 L22.8999942,10.2161677 C22.8706667,10.2161677 22.8469064,10.1925539 22.8469064,10.1634072 L22.8469064,8.47368862 C22.8469064,7.57102994 22.1080526,6.83673054 21.1997953,6.83673054 L20.3496959,6.83673054 C20.3203684,6.83673054 20.2966082,6.81311677 20.2966082,6.78397006 L20.2966082,1.71471557 C20.2966082,1.68556886 20.3203684,1.66195509 20.3496959,1.66195509 L30.5510877,1.66195509 C30.5804152,1.66195509 30.6041754,1.68556886 30.6041754,1.71471557 L30.6041754,6.78397006 L30.604076,6.78397006 Z" id="Shape"></path>
                    <path d="M50.1035731,5.14701198 L48.4036725,5.14701198 C47.9635614,5.14701198 47.6066608,5.50161377 47.6066608,5.93911078 C47.6066608,6.37660778 47.963462,6.73120958 48.4036725,6.73120958 L50.1035731,6.73120958 C50.5436842,6.73120958 50.9005848,6.37660778 50.9005848,5.93911078 C50.9005848,5.50161377 50.5437836,5.14701198 50.1035731,5.14701198 Z" id="Path"></path>
                </g>
            </g>
        </g>
    </g>
</svg>