<svg xmlns="http://www.w3.org/2000/svg" width="14" height="13" viewBox="0 0 14 13"><g><g><path fill="#fff" d="M7 0c.2 0 .382.048.546.144a.92.92 0 0 1 .37.393L9.5 3.696l3.647.51c.182.027.346.097.492.21a.95.95 0 0 1 .314.433.906.906 0 0 1-.246.956l-2.664 2.556.615 3.551a.796.796 0 0 1-.061.511.987.987 0 0 1-.635.538 1.183 1.183 0 0 1-.547.013.939.939 0 0 1-.246-.092L7 11.244l-3.183 1.638a.755.755 0 0 1-.232.092 1.176 1.176 0 0 1-.553-.013.987.987 0 0 1-.628-.537.796.796 0 0 1-.062-.512l.615-3.551L.293 5.805a.916.916 0 0 1-.246-.956c.064-.166.168-.308.314-.426a.994.994 0 0 1 .492-.216L4.5 3.696 6.085.537a.92.92 0 0 1 .369-.393A1.06 1.06 0 0 1 7 0zm.005.8l-1.6 3.184-.287.563-4.265.603 3.09 2.962-.096.59-.629 3.538 3.787-1.94 3.787 1.94-.629-3.538-.096-.59 3.09-2.962-4.279-.603z"/></g></g></svg>