<svg width="15" height="15" viewBox="0 0 15 15" fill="none" xmlns="http://www.w3.org/2000/svg">
<path d="M3 6.48C3.61334 7.65334 4.39333 8.71333 5.34 9.66C6.28667 10.6067 7.34666 11.3867 8.52 12L10.36 10.16C10.4667 10.04 10.6 9.96 10.76 9.92C10.92 9.88 11.0733 9.89333 11.22 9.96C12.1 10.2667 13.0867 10.42 14.18 10.42C14.4067 10.42 14.6 10.5 14.76 10.66C14.92 10.82 15 11.0133 15 11.24V14.18C15 14.4067 14.92 14.6 14.76 14.76C14.6 14.92 14.4067 15 14.18 15C12.26 15 10.42 14.6267 8.66 13.88C6.96666 13.16 5.46667 12.1467 4.16 10.84C2.85333 9.53333 1.84 8.03334 1.12 6.34C0.37333 4.57999 0 2.74001 0 0.82C0 0.593332 0.0799992 0.400001 0.24 0.24C0.400001 0.0799992 0.593332 0 0.82 0H3.76C3.98667 0 4.18 0.0799992 4.34 0.24C4.5 0.400001 4.58 0.593332 4.58 0.82C4.58 1.91334 4.73333 2.9 5.04 3.78C5.08 3.92667 5.08667 4.08 5.06 4.24C5.03333 4.4 4.96 4.53333 4.84 4.64L3 6.48Z" fill="white"/>
</svg>
