<?xml version="1.0" encoding="UTF-8"?>
<svg width="32px" height="40px" viewBox="0 0 32 40" version="1.1" xmlns="http://www.w3.org/2000/svg" xmlns:xlink="http://www.w3.org/1999/xlink">
    <!-- Generator: Sketch 54.1 (76490) - https://sketchapp.com -->
    <title>018-tower</title>
    <desc>Created with Sketch.</desc>
    <g id="Inside" stroke="none" stroke-width="1" fill="none" fill-rule="evenodd">
        <g id="allbc.info_business_center_1140px-_2" transform="translate(-801.000000, -2392.000000)" fill="#3EB060" fill-rule="nonzero">
            <g id="Group-9">
                <g id="018-tower" transform="translate(801.000000, 2392.000000)">
                    <path d="M6.76841786,20.0415039 C6.91878021,20.0415039 7.0697464,19.9832153 7.1844807,19.8669434 C7.41455312,19.6347046 7.41455312,19.2578125 7.1844807,19.0255738 C2.27204104,14.0603638 2.27204104,5.98114016 7.1844807,1.01593016 C7.41455312,0.783691406 7.41455312,0.406799297 7.1844807,0.174560547 C6.95471011,-0.0579834375 6.58182369,-0.0579834375 6.35205318,0.174560547 C0.980374415,5.60363766 0.980374415,14.4378663 6.35205318,19.8672485 C6.4667874,19.9832153 6.61775366,20.0415039 6.76841786,20.0415039 Z" id="Path"></path>
                    <path d="M25.0027174,19.0255738 C24.7729469,19.2578125 24.7729469,19.6347046 25.0027174,19.8669434 C25.1177537,19.9832153 25.2684179,20.0411988 25.4190821,20.0411988 C25.5697464,20.0411988 25.7204106,19.9832153 25.8354469,19.8669434 C31.2068237,14.437561 31.2068237,5.60363766 25.8354469,0.174255391 C25.6053744,-0.0579834375 25.2324879,-0.0579834375 25.0027174,0.174255391 C24.7729469,0.406799297 24.7729469,0.78338625 25.0027174,1.01593016 C29.915157,5.98114016 29.915157,14.0600586 25.0027174,19.0255738 L25.0027174,19.0255738 Z" id="Path"></path>
                    <path d="M8.57216186,17.6229859 C8.68719807,17.7392578 8.83786234,17.7972412 8.98852653,17.7972412 C9.1391908,17.7972412 9.28985507,17.7392578 9.40489129,17.6229859 C9.63466187,17.3904419 9.63466187,17.0135498 9.40489129,16.781311 C5.71678748,13.0535889 5.71678748,6.987915 9.40489129,3.26019289 C9.63466187,3.02764891 9.63466187,2.65106203 9.40489129,2.41851805 C9.17481886,2.1862793 8.80223428,2.1862793 8.57216186,2.41851805 C4.42512077,6.61041258 4.42512077,13.4310913 8.57216186,17.6229859 Z" id="Path"></path>
                    <path d="M25.5483092,10.020752 C25.5483092,12.5775147 24.5661232,14.9786377 22.7823068,16.781311 C22.5525363,17.013855 22.5525363,17.3904419 22.7823068,17.6229859 C22.897343,17.7389527 23.0480073,17.7972412 23.1986715,17.7972412 C23.3493357,17.7972412 23.5,17.7392578 23.6150362,17.6229859 C25.6210749,15.595398 26.7258454,12.8955078 26.7258454,10.020752 C26.7258454,7.14599609 25.6210749,4.44610594 23.6150362,2.41851805 C23.3849638,2.1862793 23.0123792,2.1862793 22.7823068,2.41851805 C22.5525363,2.65106203 22.5525363,3.02764891 22.7823068,3.26019289 C24.5661232,5.06286625 25.5483092,7.46368406 25.5483092,10.020752 Z" id="Path"></path>
                    <path d="M10.7925724,15.3787231 C10.9076087,15.4946899 11.0582729,15.5529785 11.2089372,15.5529785 C11.3596015,15.5529785 11.5102657,15.4949952 11.625302,15.3787231 C11.8550725,15.1461792 11.8550725,14.7692871 11.625302,14.5370484 C9.16123192,12.046814 9.16123192,7.99468992 11.625302,5.50415039 C11.8550725,5.27191164 11.8550725,4.89501953 11.625302,4.66278078 C11.3952294,4.4302368 11.022343,4.4302368 10.7925724,4.66278078 C7.86956522,7.6171875 7.86956522,12.4243164 10.7925724,15.3787231 Z" id="Path"></path>
                    <path d="M22.4097222,10.020752 C22.4097222,11.7288208 21.7536232,13.3328247 20.5621981,14.5370484 C20.3321256,14.7695923 20.3321256,15.1461792 20.5621981,15.3787231 C20.6769323,15.4949952 20.8275966,15.5529785 20.9782609,15.5529785 C21.1289251,15.5529785 21.2795894,15.4949952 21.3946256,15.3787231 C22.8085749,13.949585 23.5872584,12.046814 23.5872584,10.020752 C23.5872584,7.99468992 22.8085749,6.09161375 21.3946256,4.66278078 C21.164855,4.4302368 20.7919686,4.4302368 20.5621981,4.66278078 C20.3321256,4.89501953 20.3321256,5.27191164 20.5621981,5.50415039 C21.7536232,6.70867922 22.4097222,8.31237797 22.4097222,10.020752 L22.4097222,10.020752 Z" id="Path"></path>
                    <path d="M29.4996981,34.9887085 L26.0603865,34.9887085 L20.6548913,20.3427124 C20.5413647,20.03479 20.2022947,19.8782348 19.8976449,19.9932861 C19.5929952,20.1080322 19.4381039,20.4507446 19.5516305,20.758667 L24.803442,34.9884033 L7.38375606,34.9884033 L15.0235508,14.2895508 C15.3662439,14.3771362 15.7246377,14.4241333 16.0935991,14.4241333 C16.4628623,14.4241333 16.821558,14.3771362 17.1642512,14.2892456 L18.700785,18.453064 C18.7892512,18.692627 19.0138889,18.8406372 19.2527174,18.8406372 C19.3209541,18.8406372 19.3903985,18.8284302 19.4583334,18.8027954 C19.7629831,18.6880493 19.9178744,18.3453369 19.8040459,18.0374145 L18.2554348,13.8412476 C19.5655193,13.0810547 20.4504831,11.6537476 20.4504831,10.020752 C20.4504831,7.59246828 18.4960749,5.61706547 16.0935991,5.61706547 C13.6914251,5.61706547 11.7370169,7.59246828 11.7370169,10.020752 C11.7370169,11.6540527 12.6219807,13.0813598 13.9320652,13.8415527 L6.12681159,34.9887085 L2.47916669,34.9887085 C1.11201693,34.9887085 4.12114787e-13,36.1126709 4.12114787e-13,37.4945069 C4.12114787e-13,38.8760376 1.11201693,40 2.47916669,40 L3.84782609,40 C4.17300723,40 4.43659424,39.7335816 4.43659424,39.4049072 C4.43659424,39.0762329 4.17300723,38.8098145 3.84782609,38.8098145 L2.47916669,38.8098145 C1.76147339,38.8098145 1.17753623,38.2196045 1.17753623,37.4945069 C1.17753623,36.769104 1.76147339,36.1788941 2.47916669,36.1788941 L29.4996981,36.1788941 C30.2173913,36.1788941 30.8010266,36.769104 30.8010266,37.4945069 C30.8010266,38.2196045 30.2173913,38.8098145 29.4996981,38.8098145 L6.20289855,38.8098145 C5.87771741,38.8098145 5.6141304,39.0762329 5.6141304,39.4049072 C5.6141304,39.7335816 5.87771741,40 6.20289855,40 L29.4996981,40 C30.8665459,40 31.9785628,38.8760376 31.9785628,37.4945069 C31.9785628,36.1126709 30.8665459,34.9887085 29.4996981,34.9887085 L29.4996981,34.9887085 Z M12.9142512,10.020752 C12.9142512,8.24890141 14.3405797,6.80725094 16.0935991,6.80725094 C17.8466184,6.80725094 19.2729469,8.24890141 19.2729469,10.020752 C19.2729469,11.7926025 17.8466184,13.234253 16.0935991,13.234253 C14.3405797,13.234253 12.9142512,11.7926025 12.9142512,10.020752 Z" id="Shape"></path>
                    <path d="M16.0935991,18.171997 C15.8478261,18.171997 15.6280193,18.326416 15.5419686,18.5592652 L10.5069445,32.2021484 C10.4396135,32.3849487 10.4649758,32.5894165 10.5748792,32.7493286 C10.6847826,32.9095459 10.8656401,33.0050659 11.0585748,33.0050659 L21.1286231,33.0050659 C21.3218599,33.0050659 21.5024155,32.9095459 21.6123188,32.7493286 C21.7225241,32.5894165 21.7478865,32.3849487 21.6802536,32.2021484 L16.6452294,18.5592652 C16.5594807,18.326416 16.339372,18.171997 16.0935991,18.171997 Z M16.0935991,20.4696655 L17.1144324,23.236084 L15.4145531,22.3095703 L16.0935991,20.4696655 Z M19.5588768,29.859314 L13.8384662,28.3554077 L17.928744,25.4415894 L19.5588768,29.859314 Z M13.678744,27.0132446 L14.9990942,23.4353637 L17.0966184,24.578247 L13.678744,27.0132446 Z M11.9067029,31.8148804 L12.8275966,29.319458 L20.0615942,31.2210083 L20.2807971,31.8148804 L11.9067029,31.8148804 Z" id="Shape"></path>
                </g>
            </g>
        </g>
    </g>
</svg>