<svg xmlns="http://www.w3.org/2000/svg" xmlns:xlink="http://www.w3.org/1999/xlink" width="19" height="15" viewBox="0 0 19 15"><defs><path id="kcs7a" d="M1106.75 6228.775c-.69.3-1.43.505-2.209.596a3.815 3.815 0 0 0 1.691-2.094 7.827 7.827 0 0 1-2.444.92 3.863 3.863 0 0 0-2.807-1.197c-2.124 0-3.847 1.696-3.847 3.787 0 .297.034.586.1.863a10.977 10.977 0 0 1-7.928-3.958 3.716 3.716 0 0 0-.52 1.904c0 1.315.68 2.474 1.71 3.153a3.892 3.892 0 0 1-1.741-.476v.048c0 1.835 1.326 3.366 3.084 3.714a3.952 3.952 0 0 1-1.013.133c-.248 0-.489-.024-.724-.07a3.841 3.841 0 0 0 3.592 2.63 7.793 7.793 0 0 1-4.777 1.62 8.3 8.3 0 0 1-.917-.052 10.994 10.994 0 0 0 5.896 1.704c7.075 0 10.943-5.772 10.943-10.778l-.013-.49a7.618 7.618 0 0 0 1.924-1.957z"/></defs><g><g transform="translate(-1088 -6227)"><use fill="#fff" xlink:href="#kcs7a"/></g></g></svg>