<?xml version="1.0" encoding="UTF-8"?>
<svg width="46px" height="46px" viewBox="0 0 46 46" version="1.1" xmlns="http://www.w3.org/2000/svg" xmlns:xlink="http://www.w3.org/1999/xlink">
    <!-- Generator: Sketch 54.1 (76490) - https://sketchapp.com -->
    <title>002-twitter</title>
    <desc>Created with Sketch.</desc>
    <g id="Inside" stroke="none" stroke-width="1" fill="none" fill-rule="evenodd">
        <g id="allbc.info_business_center_1140px-_2" transform="translate(-1018.000000, -679.000000)" fill-rule="nonzero">
            <g id="002-twitter" transform="translate(1018.000000, 679.000000)">
                <circle id="Oval" fill="#55ACEE" cx="22.8367611" cy="22.836354" r="22.836354"></circle>
                <path d="M36.8248319,16.411823 C35.8462124,16.8457699 34.7935044,17.1392743 33.6895044,17.270354 C34.816708,16.5950088 35.6817522,15.5264248 36.0900531,14.2510442 C35.0353097,14.8767257 33.8665841,15.3306195 32.6237699,15.5752743 C31.6280531,14.5148319 30.2093805,13.8521062 28.6384602,13.8521062 C25.6244425,13.8521062 23.1799292,16.2966195 23.1799292,19.3106372 C23.1799292,19.7384779 23.2283717,20.1549204 23.322,20.5546726 C18.7855044,20.327115 14.7631504,18.1541239 12.0707257,14.8506726 C11.6009558,15.6566903 11.331469,16.5950088 11.331469,17.5952035 C11.331469,19.488531 12.2958407,21.16 13.7596991,22.1386195 C12.8653451,22.110531 12.0230973,21.8650619 11.2875044,21.4551327 C11.2870973,21.4783363 11.2870973,21.5015398 11.2870973,21.5243363 C11.2870973,24.1691327 13.1694336,26.3750973 15.6660531,26.8762124 C15.2084956,27.0015929 14.725292,27.0679469 14.2282478,27.0679469 C13.8757168,27.0679469 13.534177,27.0341593 13.2011858,26.9706549 C13.8956637,29.1387611 15.911115,30.7170088 18.3002655,30.7613805 C16.4317699,32.225646 14.0784425,33.0980177 11.520354,33.0980177 C11.080708,33.0980177 10.6451327,33.0723717 10.2189204,33.0214867 C12.6333097,34.5708319 15.5032212,35.4741416 18.5856283,35.4741416 C28.6258407,35.4741416 34.116531,27.1566903 34.116531,19.9428319 C34.116531,19.7063186 34.1112389,19.4706195 34.1006549,19.2369558 C35.1680177,18.4675752 36.0933097,17.5064602 36.8248319,16.411823 L36.8248319,16.411823 Z" id="Path" fill="#F1F2F2"></path>
            </g>
        </g>
    </g>
</svg>