<svg xmlns="http://www.w3.org/2000/svg" width="19" height="19" viewBox="0 0 19 19"><g><g><path d="M9.51 0c.656 0 1.302.124 1.94.371.638.248 1.207.57 1.709.966.501.396.91.842 1.226 1.337.315.496.473.991.473 1.486v2.972c0 .359-.037.774-.111 1.244-.074.47-.198.95-.372 1.44-.173.489-.402.96-.687 1.411a4.557 4.557 0 0 1-1.04 1.161l5.182 2.47.585.325c.39.217.585.499.585.845v1.802c0 .322-.115.597-.344.826-.229.23-.504.344-.826.344H1.189c-.335 0-.616-.115-.845-.344A1.127 1.127 0 0 1 0 17.83v-1.802c0-.322.198-.597.594-.826l.595-.344 5.219-2.47a4.507 4.507 0 0 1-1.059-1.207 8.307 8.307 0 0 1-.697-1.44 7.67 7.67 0 0 1-.38-1.43 7.667 7.667 0 0 1-.112-1.179V4.16c0-.495.155-.99.465-1.486.31-.495.715-.94 1.216-1.337A6.532 6.532 0 0 1 7.56.371 5.394 5.394 0 0 1 9.51 0zm0 1.189c-.508 0-1.01.096-1.505.288a5.567 5.567 0 0 0-1.337.733c-.397.297-.715.62-.957.966-.241.347-.362.675-.362.984v2.972c0 .582.145 1.325.436 2.229.291.904.746 1.603 1.366 2.098a1.179 1.179 0 0 1 .446 1.077c-.038.199-.115.381-.233.549-.118.167-.27.294-.455.38l-5.219 2.47a1.301 1.301 0 0 0-.306.177c-.13.093-.195.263-.195.51v1.208l16.622-.019V16.66c0-.322-.077-.523-.232-.604a1.94 1.94 0 0 0-.25-.12l-5.182-2.452a1.203 1.203 0 0 1-.604-1.551c.08-.192.201-.35.362-.474.644-.495 1.1-1.198 1.365-2.108.266-.91.4-1.65.4-2.219V4.16c0-.322-.124-.656-.372-1.003a4.375 4.375 0 0 0-.956-.956 5.523 5.523 0 0 0-1.338-.724 4.16 4.16 0 0 0-1.495-.288z"/></g></g></svg>