<?xml version="1.0" encoding="UTF-8"?>
<svg width="40px" height="40px" viewBox="0 0 40 40" version="1.1" xmlns="http://www.w3.org/2000/svg" xmlns:xlink="http://www.w3.org/1999/xlink">
    <!-- Generator: Sketch 54.1 (76490) - https://sketchapp.com -->
    <title>007-ventilation</title>
    <desc>Created with Sketch.</desc>
    <g id="Inside" stroke="none" stroke-width="1" fill="none" fill-rule="evenodd">
        <g id="allbc.info_business_center_1140px-_2" transform="translate(-797.000000, -1707.000000)" fill="#3EB060" fill-rule="nonzero">
            <g id="Group-9">
                <g id="007-ventilation" transform="translate(797.000000, 1707.000000)">
                    <path d="M0,0 L0,40 L40,40 L40,0 L0,0 Z M38.6666667,38.6666667 L1.33333333,38.6666667 L1.33333333,1.33333333 L38.6666667,1.33333333 L38.6666667,38.6666667 Z" id="Shape"></path>
                    <path d="M20,36 C28.8365885,36 36,28.8365885 36,20 C36,11.1634115 28.8365885,4 20,4 C11.1634115,4 4,11.1634115 4,20 C4.01041667,28.8323568 11.1676432,35.9895833 20,36 Z M5.34993492,20.6666667 L6.70052083,20.6666667 C6.85058592,23.7360026 8.061849,26.6582032 10.1272787,28.9332683 L9.17415367,29.8867188 C6.85644533,27.3577474 5.50260417,24.09375 5.34993492,20.6666667 Z M28.9332683,10.1272787 C26.6582032,8.061849 23.7360026,6.85058592 20.6666667,6.70052083 L20.6666667,5.34993492 C24.0924479,5.50325517 27.3551432,6.85709633 29.8834635,9.17415367 L28.9332683,10.1272787 Z M19.3333333,6.70052083 C16.264974,6.851237 13.344401,8.0625 11.069987,10.1272787 L10.1165365,9.17415367 C12.6448567,6.85709633 15.9075521,5.50325517 19.3333333,5.34993492 L19.3333333,6.70052083 Z M20,8 C26.6272787,8 32,13.3727213 32,20 C32,26.6272787 26.6272787,32 20,32 C13.3727213,32 8,26.6272787 8,20 C8.0078125,13.375651 13.375651,8.0078125 20,8 Z M11.069987,29.8727213 C13.344401,31.9375 16.264974,33.148763 19.3333333,33.2994792 L19.3333333,34.6500651 C15.9075521,34.4967448 12.6448567,33.1429037 10.1165365,30.8258463 L11.069987,29.8727213 Z M20.6666667,33.2994792 C23.7360026,33.1494141 26.6582032,31.938151 28.9332682,29.8727213 L29.8867187,30.8258463 C27.3577474,33.1435547 24.09375,34.4973958 20.6666667,34.6500651 L20.6666667,33.2994792 Z M30.8258463,29.8834635 L29.8727213,28.930013 C31.9375,26.655599 33.148763,23.735026 33.2994792,20.6666667 L34.6500651,20.6666667 C34.4967448,24.0924479 33.1429037,27.3551433 30.8258463,29.8834635 L30.8258463,29.8834635 Z M34.6500651,19.3333333 L33.2994792,19.3333333 C33.148763,16.264974 31.9375,13.344401 29.8727213,11.069987 L30.8258463,10.1165365 C33.1429037,12.6448567 34.4967448,15.9075521 34.6500651,19.3333333 L34.6500651,19.3333333 Z M9.17415367,10.1165365 L10.1272787,11.069987 C8.0625,13.344401 6.851237,16.264974 6.70052083,19.3333333 L5.34993492,19.3333333 C5.50325517,15.9075521 6.85709633,12.6448567 9.17415367,10.1165365 Z" id="Shape"></path>
                    <path d="M15.6451823,11.742513 L15.0221354,10.5641276 C13.3694662,11.4384766 11.9746093,12.7301432 10.9759115,14.3105468 L12.1031901,15.0227865 C12.9775391,13.6389974 14.1988933,12.5084635 15.6451823,11.742513 Z" id="Path"></path>
                    <path d="M9.81673175,23.1845703 C9.90397133,23.4625651 10.1617838,23.6516927 10.4534505,23.6513672 C10.5198568,23.6513672 10.5859375,23.641276 10.6494141,23.6220703 L17.1158854,21.6367187 C17.4117838,22.1565755 17.8421224,22.5869141 18.3619792,22.8828125 L16.3759766,29.3492838 C16.2682292,29.7001953 16.4648438,30.0722657 16.8154297,30.1813151 C18.889974,30.8264974 21.1113282,30.8264974 23.1858724,30.1813151 C23.5364583,30.0722657 23.7330729,29.7001953 23.6253255,29.3492838 L21.6393229,22.8828125 C22.1591797,22.5869141 22.5895183,22.1565755 22.8854167,21.6367187 L26.1347657,22.6367187 C25.5885417,23.7952474 24.7190755,24.7708333 23.6305338,25.4459635 L24.3707683,26.5553385 C25.718099,25.7138672 26.780599,24.4860026 27.4192708,23.03125 L28.6894532,23.421224 C27.9619141,25.2714843 26.6611328,26.8401692 24.9778646,27.898112 L25.6901042,29.0247396 C28.5218099,27.2392578 30.351237,24.2278646 30.6308593,20.8919271 C30.9101563,17.5559896 29.6074218,14.2822266 27.1119792,12.0507812 L26.2226563,13.0439453 C27.3040365,14.0172526 28.1425782,15.2301432 28.671875,16.5852865 L27.4052734,16.9746093 C27.2161458,16.5078125 26.9830729,16.0598958 26.7093099,15.6367187 L25.5921224,16.3645833 C25.796224,16.6842448 25.9726563,17.0205078 26.1194662,17.3701172 L22.8880208,18.3619792 C22.5921224,17.8421224 22.1617838,17.4117838 21.6419271,17.1158854 L23.6279297,10.6494141 C23.7356771,10.2985026 23.5390625,9.92643233 23.1888021,9.81738283 C21.1136068,9.17545575 18.8929037,9.17545575 16.8180338,9.81738283 C16.4674479,9.92643233 16.2711588,10.2985026 16.3785808,10.6494141 L18.3645833,17.1158854 C17.8447266,17.4117838 17.414388,17.8421224 17.1188151,18.3619792 L13.8873698,17.3701172 C14.0341797,17.0205078 14.210612,16.6842448 14.4147135,16.3645833 C14.9241537,15.5859375 15.5891927,14.9208984 16.3678385,14.4114583 L15.6386718,13.2945963 C14.7054037,13.9059245 13.9085287,14.7034505 13.2972005,15.6367187 C13.023112,16.0595703 12.7897135,16.5071615 12.5999349,16.9739583 L10.6513672,16.3740234 C10.3001302,16.2659505 9.92773433,16.4625651 9.81868492,16.8134766 C9.17415367,18.8876953 9.17415367,21.1083984 9.81868492,23.1826172 L9.81673175,23.1845703 Z M22.1500651,29.0846354 C20.7369792,29.4153646 19.2669271,29.4153646 17.8538412,29.0846354 L19.6321615,23.2958984 C19.7539063,23.3154297 19.8766276,23.3277995 20,23.3333333 C20.1240234,23.328125 20.2473958,23.3154297 20.3701172,23.2958984 L22.1500651,29.0846354 Z M29.0768229,17.8561198 C29.2451172,18.5582682 29.3313802,19.2776692 29.3333333,20 C29.3323568,20.7229817 29.2480468,21.4430338 29.0820313,22.1468099 L27.8154297,21.7565104 C27.9384766,21.179362 28.0003255,20.5904948 28,20 C27.9996745,19.4098307 27.9345703,18.8212891 27.8053385,18.2454427 L29.0768229,17.8561198 Z M26.5126953,18.6425782 C26.6103516,19.0885417 26.6621093,19.5436198 26.6666667,20 C26.6660157,20.4576823 26.6214193,20.9140625 26.5332032,21.3632812 L23.2972005,20.3701172 C23.3164063,20.2473958 23.3284505,20.1240234 23.3333333,20 C23.328125,19.8759766 23.3154297,19.7526042 23.2958984,19.6298828 L26.5126953,18.6425782 Z M17.851888,10.9153646 C19.264974,10.5846354 20.735026,10.5846354 22.148112,10.9153646 L20.3701172,16.7041016 C20.2473958,16.6845703 20.1240234,16.671875 20,16.6666667 C19.8759766,16.671875 19.7526042,16.6845703 19.6298828,16.7041016 L17.851888,10.9153646 Z M20,18 C21.1044922,18 22,18.8955078 22,20 C22,21.1044922 21.1044922,22 20,22 C18.8955078,22 18,21.1044922 18,20 C18,18.8955078 18.8955078,18 20,18 L20,18 Z M10.9147135,17.8525391 L12.1946615,18.2454427 C12.0654297,18.8212891 12.0003255,19.4098307 12,20 L13.3333333,20 C13.3385417,19.5432942 13.3909505,19.0885417 13.4892578,18.6425782 L16.7041016,19.6298828 C16.6845703,19.7526042 16.671875,19.8759766 16.6666667,20 C16.671875,20.1240234 16.6845703,20.2473958 16.7041016,20.3701172 L10.9147135,22.1474609 C10.5839843,20.735026 10.5839843,19.264974 10.9147135,17.8525391 L10.9147135,17.8525391 Z" id="Shape"></path>
                    <path d="M8,2.66666667 L2.66666667,2.66666667 L2.66666667,8 L8,8 L8,2.66666667 Z M6.66666667,6.66666667 L4,6.66666667 L4,4 L6.66666667,4 L6.66666667,6.66666667 Z" id="Shape"></path>
                    <path d="M37.3333333,2.66666667 L32,2.66666667 L32,8 L37.3333333,8 L37.3333333,2.66666667 Z M36,6.66666667 L33.3333333,6.66666667 L33.3333333,4 L36,4 L36,6.66666667 Z" id="Shape"></path>
                    <path d="M8,32 L2.66666667,32 L2.66666667,37.3333333 L8,37.3333333 L8,32 Z M6.66666667,36 L4,36 L4,33.3333333 L6.66666667,33.3333333 L6.66666667,36 Z" id="Shape"></path>
                    <path d="M32,37.3333333 L37.3333333,37.3333333 L37.3333333,32 L32,32 L32,37.3333333 Z M33.3333333,33.3333333 L36,33.3333333 L36,36 L33.3333333,36 L33.3333333,33.3333333 Z" id="Shape"></path>
                    <polygon id="Path" points="29.3333333 36 30.6666667 36 30.6666667 37.3333333 29.3333333 37.3333333"></polygon>
                    <polygon id="Path" points="26.6666667 36 28 36 28 37.3333333 26.6666667 37.3333333"></polygon>
                </g>
            </g>
        </g>
    </g>
</svg>