<svg xmlns="http://www.w3.org/2000/svg" xmlns:xlink="http://www.w3.org/1999/xlink" width="100" height="80" viewBox="0 0 100 80"><defs><path id="6y7ga" d="M238.076 1331.68h1.153a5.451 5.451 0 0 0 4.843-5.72 5.447 5.447 0 0 0-5.432-5.16 5.447 5.447 0 0 0-5.432 5.16 5.451 5.451 0 0 0 4.843 5.72z"/><path id="6y7gb" d="M203.527 1332.96h-4.654c-7.19.009-13.017 5.76-13.033 12.861v3.779h30.72v-3.779c-.016-7.101-5.844-12.852-13.033-12.861z"/><path id="6y7gc" d="M165.68 1333.6h-3.184c-4.779.005-8.651 3.833-8.656 8.558v2.322h20.48v-2.322c-.005-4.718-3.867-8.544-8.64-8.558z"/><path id="6y7gd" d="M158.32 1326.261a5.438 5.438 0 0 0 4.85 5.419h1.176a5.451 5.451 0 0 0 4.84-5.817 5.446 5.446 0 0 0-5.623-5.06 5.449 5.449 0 0 0-5.243 5.454z"/><path id="6y7ge" d="M240.544 1333.6h-3.185c-4.772.014-8.634 3.84-8.639 8.558v2.322h20.48v-2.322c-.005-4.725-3.877-8.553-8.656-8.558z"/><path id="6y7gf" d="M192.88 1323.381c-.007 4.278 3.219 7.866 7.462 8.299h1.744c4.454-.478 7.73-4.407 7.413-8.888-.318-4.481-4.117-7.905-8.593-7.747-4.477.16-8.025 3.844-8.026 8.336z"/><path id="6y7gg" d="M203.604 1332.96h-3.684c7.147.009 12.94 5.76 12.956 12.861v3.779h3.684v-3.779c-.016-7.101-5.81-12.852-12.956-12.861z"/><path id="6y7gh" d="M164.821 1333.6h-3.301c4.428.16 7.939 3.941 7.945 8.555v2.325h3.575v-2.325c-.01-4.722-3.685-8.546-8.219-8.555z"/><path id="6y7gi" d="M163.469 1320.8a5.89 5.89 0 0 0-1.949.336c2.251.782 3.75 2.83 3.75 5.123 0 2.292-1.499 4.34-3.75 5.123.43.15.878.25 1.334.298h1.234c3.022-.3 5.268-2.816 5.104-5.72-.165-2.904-2.68-5.175-5.72-5.16z"/><path id="6y7gj" d="M240.341 1333.6h-3.301c4.428.16 7.939 3.941 7.945 8.555v2.325h3.575v-2.325c-.01-4.722-3.685-8.546-8.219-8.555z"/><path id="6y7gk" d="M238.989 1320.8a5.89 5.89 0 0 0-1.949.336c2.251.782 3.75 2.83 3.75 5.123 0 2.292-1.499 4.34-3.75 5.123.43.15.878.25 1.334.298h1.234c3.022-.3 5.268-2.816 5.104-5.72-.165-2.904-2.68-5.175-5.72-5.16z"/><path id="6y7gl" d="M201.122 1315.04c-.62.001-1.238.07-1.842.208 3.821.857 6.536 4.235 6.536 8.134 0 3.9-2.715 7.278-6.536 8.135.32.073.644.127.97.163h1.757c4.439-.46 7.737-4.302 7.501-8.738-.236-4.437-3.923-7.91-8.386-7.902z"/><path id="6y7gm" d="M199.056 1330.961c-4.371-.463-7.615-4.25-7.382-8.621.233-4.371 3.86-7.796 8.256-7.796 4.396 0 8.024 3.425 8.257 7.796.232 4.37-3.01 8.158-7.382 8.621zm16.09 14.883v3.618h-30.439v-3.618c.007-7.08 5.77-12.818 12.881-12.825h4.668c7.11.01 12.87 5.746 12.877 12.825zm-4.891-23.049c.012-4.919-3.475-9.158-8.32-10.117-4.846-.958-9.696 1.631-11.574 6.18a10.265 10.265 0 0 0 3.862 12.498c-6.771 1.566-11.57 7.567-11.583 14.488v4.647c0 .568.463 1.029 1.033 1.029h32.494c.57 0 1.033-.46 1.033-1.029v-4.647c-.009-6.922-4.804-12.927-11.575-14.496 2.883-1.9 4.62-5.11 4.63-8.553z"/><path id="6y7gn" d="M172.234 1343.711h-20.116v-2.097c.004-4.564 3.78-8.265 8.449-8.281h3.193c4.676.004 8.466 3.71 8.47 8.28zm-10.25-22.777c2.86-.1 5.287 2.033 5.488 4.823.201 2.79-1.895 5.234-4.742 5.527h-1.136c-2.692-.29-4.731-2.512-4.734-5.158-.002-2.797 2.263-5.093 5.124-5.192zm7.168 2.76c-1.05-2.886-3.846-4.814-6.982-4.814-3.135 0-5.93 1.928-6.98 4.815-1.05 2.886-.128 6.106 2.303 8.04-4.446 1.328-7.486 5.335-7.493 9.879v3.122c0 .565.47 1.024 1.048 1.024h22.224c.579 0 1.048-.459 1.048-1.024v-3.122c-.004-4.538-3.034-8.544-7.472-9.88 2.431-1.933 3.354-5.153 2.304-8.04z"/><path id="6y7go" d="M247.124 1343.712h-20.126v-2.098c.004-4.57 3.795-8.275 8.474-8.28h3.195c4.678.005 8.47 3.71 8.474 8.28zm-15.384-17.578c-.002-2.8 2.263-5.097 5.124-5.197 2.86-.1 5.287 2.035 5.488 4.827.201 2.792-1.895 5.239-4.742 5.532h-1.149c-2.689-.296-4.721-2.52-4.721-5.166zm12.292-2.44c-1.05-2.886-3.846-4.814-6.982-4.814-3.135 0-5.93 1.928-6.98 4.814-1.05 2.886-.128 6.105 2.303 8.039-4.448 1.328-7.488 5.337-7.493 9.881v3.122c0 .565.47 1.024 1.048 1.024h22.224c.579 0 1.048-.459 1.048-1.024v-3.122c-.002-4.538-3.032-8.546-7.472-9.881 2.431-1.934 3.354-5.153 2.304-8.04z"/><path id="6y7gp" d="M189.68 1306.448c0-.557-.452-1.008-1.009-1.008H176.61c-.557 0-1.009.451-1.009 1.008v12.064a1.008 1.008 0 0 0 2.017 0v-11.055h11.058a1.008 1.008 0 0 0 1.005-1.009z"/><path id="6y7gq" d="M222.592 1305.44h-12.064a1.008 1.008 0 1 0 0 2.017h11.055v11.055a1.008 1.008 0 1 0 2.017 0v-12.064c0-.557-.451-1.008-1.008-1.008z"/><path id="6y7gr" d="M188.672 1357.187h-11.055v-11.059a1.008 1.008 0 1 0-2.017 0v12.064c0 .557.451 1.008 1.008 1.008h12.064a1.008 1.008 0 1 0 0-2.017z"/><path id="6y7gs" d="M222.592 1345.12c-.557 0-1.009.451-1.009 1.008v11.055h-11.055a1.008 1.008 0 1 0 0 2.017h12.064c.557 0 1.008-.451 1.008-1.008v-12.06a1.008 1.008 0 0 0-1.008-1.012z"/><path id="6y7gt" d="M178.373 1294.347v1.706h-1.706a.427.427 0 0 0 0 .854h1.706v1.706a.427.427 0 0 0 .854 0v-1.706h1.706a.427.427 0 0 0 0-.854h-1.706v-1.706a.427.427 0 0 0-.854 0z"/><path id="6y7gu" d="M155.333 1298.187v1.706h-1.706a.427.427 0 0 0 0 .854h1.706v1.706a.427.427 0 0 0 .854 0v-1.706h1.706a.427.427 0 0 0 0-.854h-1.706v-1.706a.427.427 0 0 0-.854 0z"/><path id="6y7gv" d="M237.893 1369.445a1.712 1.712 0 1 0 3.424 0 1.712 1.712 0 0 0-3.424 0zm4.267-.005a2.56 2.56 0 1 1-5.12 0 2.56 2.56 0 0 1 5.12 0z"/><path id="6y7gw" d="M208.453 1294.565a1.712 1.712 0 1 0 3.424 0 1.712 1.712 0 0 0-3.424 0zm4.267-.005a2.56 2.56 0 1 1-5.12 0 2.56 2.56 0 0 1 5.12 0z"/><path id="6y7gx" d="M170.693 1365.835h-1.105l.781-.781a.427.427 0 0 0-.602-.602l-.78.76v-1.105a.427.427 0 0 0-.854 0v1.105l-.78-.781a.427.427 0 0 0-.602.602l.78.78h-1.104a.427.427 0 0 0 0 .854h1.105l-.781.78a.427.427 0 0 0 .602.602l.78-.78v1.104a.427.427 0 0 0 .854 0v-1.105l.78.781a.427.427 0 0 0 .602-.602l-.78-.78h1.104a.427.427 0 0 0 0-.854z"/></defs><g><g transform="translate(-150 -1292)"><g><use fill="#eb5639" xlink:href="#6y7ga"/></g><g><use fill="#49cb70" xlink:href="#6y7gb"/></g><g><use fill="#f6c002" xlink:href="#6y7gc"/></g><g><use fill="#f6c002" xlink:href="#6y7gd"/></g><g><use fill="#eb5639" xlink:href="#6y7ge"/></g><g><use fill="#49cb70" xlink:href="#6y7gf"/></g><g><use fill="#f6c002" xlink:href="#6y7ga"/></g><g><use fill="#f6c002" xlink:href="#6y7ge"/></g><g><use fill="#1a923e" xlink:href="#6y7gg"/></g><g><use fill="#c99d00" xlink:href="#6y7gh"/></g><g><use fill="#c99d00" xlink:href="#6y7gi"/></g><g><use fill="#c99d00" xlink:href="#6y7gj"/></g><g><use fill="#c99d00" xlink:href="#6y7gk"/></g><g><use fill="#1a923e" xlink:href="#6y7gl"/></g><g><use fill="#263238" xlink:href="#6y7gm"/></g><g><use fill="#263238" xlink:href="#6y7gn"/></g><g><use fill="#263238" xlink:href="#6y7go"/></g><g><use fill="#263238" xlink:href="#6y7gp"/></g><g><use fill="#263238" xlink:href="#6y7gq"/></g><g><use fill="#263238" xlink:href="#6y7gr"/></g><g><use fill="#263238" xlink:href="#6y7gs"/></g><g><use fill="#5be284" xlink:href="#6y7gt"/></g><g><use fill="#fd0" xlink:href="#6y7gu"/></g><g><use fill="#5be284" xlink:href="#6y7gv"/></g><g><use fill="#fd0" xlink:href="#6y7gw"/></g><g><use fill="#5be284" xlink:href="#6y7gx"/></g></g></g></svg>