<svg xmlns="http://www.w3.org/2000/svg" xmlns:xlink="http://www.w3.org/1999/xlink" width="73" height="80" viewBox="0 0 73 80"><defs><path id="dadya" d="M1042.526 1337.168l-.126.241h48.572l-.126-.241a22.757 22.757 0 0 0-20.225-12.258h-7.87a22.757 22.757 0 0 0-20.225 12.258z"/><path id="dadyb" d="M1095.839 1338.73h-58.308a2.645 2.645 0 0 0-2.582 3.154l4.486 22.922a2.645 2.645 0 0 0 2.595 2.136h49.326a2.645 2.645 0 0 0 2.595-2.136l4.47-22.922a2.645 2.645 0 0 0-2.582-3.154z"/><path id="dadyc" d="M1068.227 1323.587c7.948-.819 13.86-7.72 13.45-15.7-.41-7.978-6.999-14.237-14.988-14.237-7.99 0-14.579 6.259-14.989 14.238-.41 7.979 5.502 14.88 13.45 15.7z"/><path id="dadyd" d="M1090.84 1337.168a22.757 22.757 0 0 0-20.224-12.258h-3.306a22.757 22.757 0 0 1 20.225 12.258l.125.241h3.306z"/><path id="dadye" d="M1095.842 1338.73h-3.306a2.645 2.645 0 0 1 2.595 3.154l-4.486 22.925a2.645 2.645 0 0 1-2.595 2.136h3.306a2.645 2.645 0 0 0 2.595-2.136l4.473-22.925a2.645 2.645 0 0 0-2.582-3.154z"/><path id="dadyf" d="M1066.683 1293.65c-.552 0-1.104.031-1.653.093 7.6.84 13.353 7.263 13.353 14.91s-5.752 14.07-13.353 14.911h3.197c7.88-.892 13.706-7.763 13.297-15.683-.408-7.92-6.91-14.155-14.841-14.231z"/><path id="dadyg" d="M1061.436 1325.074h7.865a22.702 22.702 0 0 1 20.08 12.169h-48.029a22.702 22.702 0 0 1 20.08-12.182zm-10.912-16.413c-.007-7.999 6.328-14.564 14.323-14.844 7.995-.28 14.774 5.825 15.327 13.805.553 7.979-5.319 14.96-13.276 15.786h-3.062c-7.55-.8-13.288-7.156-13.312-14.747zm45.91 31.138a2.48 2.48 0 0 1 .52 2.052l-4.48 22.926a2.483 2.483 0 0 1-2.433 2.003h-49.346a2.483 2.483 0 0 1-2.436-2.003l-4.48-22.926a2.48 2.48 0 0 1 2.434-2.955h58.308a2.48 2.48 0 0 1 1.914.903zm-56.925-2.556h-3.306a4.132 4.132 0 0 0-4.056 4.925l4.496 22.926a4.142 4.142 0 0 0 4.056 3.339h49.339a4.139 4.139 0 0 0 4.056-3.34l4.486-22.921a4.132 4.132 0 0 0-4.056-4.926h-3.306a24.367 24.367 0 0 0-18.91-13.633 16.493 16.493 0 1 0-13.883 0 24.364 24.364 0 0 0-18.916 13.63z"/><path id="dadyh" d="M1098.534 1370.18h-66.348a.826.826 0 1 0 0 1.653h66.348a.826.826 0 1 0 0-1.653z"/><path id="dadyi" d="M1048.883 1293.72v1.323h-1.322a.33.33 0 0 0 0 .661h1.322v1.322a.33.33 0 1 0 .661 0v-1.322h1.322a.33.33 0 1 0 0-.661h-1.322v-1.322a.33.33 0 0 0-.661 0z"/><path id="dadyj" d="M1097.763 1328.82v1.323h-1.322a.33.33 0 0 0 0 .661h1.322v1.322a.33.33 0 1 0 .661 0v-1.322h1.322a.33.33 0 1 0 0-.661h-1.322v-1.322a.33.33 0 0 0-.661 0z"/><path id="dadyk" d="M1037.263 1323.25v1.323h-1.322a.33.33 0 0 0 0 .661h1.322v1.322a.33.33 0 1 0 .661 0v-1.322h1.322a.33.33 0 1 0 0-.661h-1.322v-1.322a.33.33 0 0 0-.661 0z"/><path id="dadyl" d="M1029.841 1305.558a1.327 1.327 0 1 0 2.655 0 1.327 1.327 0 0 0-2.655 0zm3.306-.005a1.983 1.983 0 1 1-3.967 0 1.983 1.983 0 0 1 3.967 0z"/><path id="dadym" d="M1098.731 1354.908a1.327 1.327 0 1 0 2.655 0 1.327 1.327 0 0 0-2.655 0zm3.306-.005a1.983 1.983 0 1 1-3.967 0 1.983 1.983 0 0 1 3.967 0z"/></defs><g><g transform="translate(-1029 -1292)"><g><use fill="#f7feef" xlink:href="#dadya"/></g><g><use fill="#49cb70" xlink:href="#dadyb"/></g><g><use fill="#f7feef" xlink:href="#dadyc"/></g><g><use fill="#e4ebed" xlink:href="#dadyd"/></g><g><use fill="#1f9844" xlink:href="#dadye"/></g><g><use fill="#e4ebed" xlink:href="#dadyf"/></g><g><use fill="#263238" xlink:href="#dadyg"/></g><g><use fill="#263238" xlink:href="#dadyh"/></g><g><use fill="#fd0" xlink:href="#dadyi"/></g><g><use fill="#fd0" xlink:href="#dadyj"/></g><g><use fill="#fd0" xlink:href="#dadyk"/></g><g><use fill="#40bdff" xlink:href="#dadyl"/></g><g><use fill="#40bdff" xlink:href="#dadym"/></g></g></g></svg>