<svg xmlns="http://www.w3.org/2000/svg" xmlns:xlink="http://www.w3.org/1999/xlink" width="10" height="18" viewBox="0 0 10 18"><defs><path id="5ngwa" d="M1216.29 6226.004l-2.313-.004c-2.598 0-4.278 1.723-4.278 4.39v2.024h-2.325a.364.364 0 0 0-.364.364v2.932c0 .201.163.364.364.364h2.325v7.4c0 .2.163.363.364.363h3.035a.364.364 0 0 0 .363-.363v-7.4h2.72a.364.364 0 0 0 .363-.364l.001-2.932a.364.364 0 0 0-.364-.364h-2.72v-1.716c0-.825.197-1.243 1.271-1.243h1.558c.201 0 .364-.164.364-.365v-2.723c0-.2-.163-.363-.363-.363z"/></defs><g><g transform="translate(-1207 -6226)"><use fill="#fff" xlink:href="#5ngwa"/></g></g></svg>